<svg width="1421" height="842" viewBox="0 0 1421 842" fill="none" xmlns="http://www.w3.org/2000/svg">
<path d="M1183 408.5C1183 602.976 983.996 761 738 761C492.004 761 293 602.976 293 408.5C293 214.024 492.004 56 738 56C983.996 56 1183 214.024 1183 408.5Z" fill="#B1D6FF" fill-opacity="0.5" stroke="#3077C6" stroke-width="2"/>
<path d="M1134 425.5C1134 505.598 1089.45 578.199 1017.25 630.813C945.057 683.427 845.268 716 735 716C624.732 716 524.943 683.427 452.746 630.813C380.548 578.199 336 505.598 336 425.5C336 345.402 380.548 272.801 452.746 220.187C524.943 167.573 624.732 135 735 135C845.268 135 945.057 167.573 1017.25 220.187C1089.45 272.801 1134 345.402 1134 425.5Z" fill="#B1D6FF" fill-opacity="0.5" stroke="#3077C6" stroke-width="2"/>
<path d="M859 380.5C859 395.846 852.017 410.541 839.236 423.99C826.45 437.445 807.902 449.607 784.906 459.843C738.915 480.313 675.31 493 605 493C534.69 493 471.085 480.313 425.094 459.843C402.098 449.607 383.55 437.445 370.764 423.99C357.983 410.541 351 395.846 351 380.5C351 365.154 357.983 350.459 370.764 337.01C383.55 323.555 402.098 311.393 425.094 301.157C471.085 280.687 534.69 268 605 268C675.31 268 738.915 280.687 784.906 301.157C807.902 311.393 826.45 323.555 839.236 337.01C852.017 350.459 859 365.154 859 380.5Z" fill="#B1D6FF" fill-opacity="0.5" stroke="#3077C6" stroke-width="2"/>
<path d="M670 432C670 444.577 662.951 456.054 651.376 464.424C639.802 472.793 623.762 478 606 478C588.238 478 572.198 472.793 560.624 464.424C549.049 456.054 542 444.577 542 432C542 419.423 549.049 407.946 560.624 399.576C572.198 391.207 588.238 386 606 386C623.762 386 639.802 391.207 651.376 399.576C662.951 407.946 670 419.423 670 432Z" fill="#B1D6FF" fill-opacity="0.5" stroke="#3077C6" stroke-width="2"/>
<path d="M670 432C670 444.577 662.951 456.054 651.376 464.424C639.802 472.793 623.762 478 606 478C588.238 478 572.198 472.793 560.624 464.424C549.049 456.054 542 444.577 542 432C542 419.423 549.049 407.946 560.624 399.576C572.198 391.207 588.238 386 606 386C623.762 386 639.802 391.207 651.376 399.576C662.951 407.946 670 419.423 670 432Z" fill="#B1D6FF" fill-opacity="0.5" stroke="#3077C6" stroke-width="2"/>
<path d="M598.46 438.24C598.46 438.744 598.544 439.112 598.712 439.344C598.88 439.576 599.14 439.748 599.492 439.86L599 441.276C598.456 441.204 597.98 441.032 597.572 440.76C597.164 440.48 596.868 440.06 596.684 439.5C596.228 440.084 595.66 440.528 594.98 440.832C594.3 441.128 593.548 441.276 592.724 441.276C591.46 441.276 590.464 440.92 589.736 440.208C589.008 439.496 588.644 438.552 588.644 437.376C588.644 436.072 589.152 435.072 590.168 434.376C591.184 433.68 592.652 433.332 594.572 433.332H596.432V432.276C596.432 431.364 596.164 430.72 595.628 430.344C595.1 429.96 594.364 429.768 593.42 429.768C593.004 429.768 592.516 429.82 591.956 429.924C591.396 430.02 590.788 430.184 590.132 430.416L589.604 428.892C590.38 428.604 591.108 428.4 591.788 428.28C592.468 428.16 593.116 428.1 593.732 428.1C595.308 428.1 596.488 428.468 597.272 429.204C598.064 429.932 598.46 430.924 598.46 432.18V438.24ZM593.24 439.74C593.864 439.74 594.46 439.584 595.028 439.272C595.596 438.952 596.064 438.512 596.432 437.952V434.7H594.608C593.216 434.7 592.232 434.94 591.656 435.42C591.088 435.9 590.804 436.544 590.804 437.352C590.804 438.136 591.004 438.732 591.404 439.14C591.812 439.54 592.424 439.74 593.24 439.74ZM603.803 441V428.364H605.519L605.675 430.116C606.187 429.468 606.827 428.972 607.595 428.628C608.371 428.276 609.123 428.1 609.851 428.1C611.091 428.1 611.991 428.428 612.551 429.084C613.119 429.74 613.403 430.652 613.403 431.82V441H611.387V433.308C611.387 432.444 611.339 431.748 611.243 431.22C611.147 430.684 610.947 430.296 610.643 430.056C610.339 429.808 609.867 429.684 609.227 429.684C608.731 429.684 608.263 429.792 607.823 430.008C607.391 430.224 607.003 430.496 606.659 430.824C606.323 431.144 606.043 431.468 605.819 431.796V441H603.803ZM628.705 428.364L624.265 441.084C623.969 441.94 623.593 442.724 623.137 443.436C622.689 444.148 622.101 444.736 621.373 445.2C620.653 445.672 619.737 445.964 618.625 446.076L618.313 444.468C619.185 444.324 619.873 444.104 620.377 443.808C620.881 443.512 621.277 443.132 621.565 442.668C621.861 442.204 622.121 441.648 622.345 441H621.673L617.257 428.364H619.417L623.041 439.464L626.617 428.364H628.705Z" fill="black"/>
<path d="M967 605C967 628.997 947.631 650.988 915.709 667.039C883.845 683.061 839.755 693 791 693C742.245 693 698.155 683.061 666.291 667.039C634.369 650.988 615 628.997 615 605C615 581.003 634.369 559.012 666.291 542.961C698.155 526.939 742.245 517 791 517C839.755 517 883.845 526.939 915.709 542.961C947.631 559.012 967 581.003 967 605Z" fill="#B1D6FF" fill-opacity="0.5" stroke="#3077C6" stroke-width="2"/>
<path d="M1120 374C1120 390.875 1107.83 406.357 1087.71 417.676C1067.61 428.978 1039.79 436 1009 436C978.211 436 950.387 428.978 930.294 417.676C910.171 406.357 898 390.875 898 374C898 357.125 910.171 341.643 930.294 330.324C950.387 319.022 978.211 312 1009 312C1039.79 312 1067.61 319.022 1087.71 330.324C1107.83 341.643 1120 357.125 1120 374Z" fill="#B1D6FF" fill-opacity="0.5" stroke="#3077C6" stroke-width="2"/>
<path d="M595 576.5C595 590.211 585.333 602.816 569.287 612.049C553.268 621.267 531.072 627 506.5 627C481.928 627 459.732 621.267 443.713 612.049C427.667 602.816 418 590.211 418 576.5C418 562.789 427.667 550.184 443.713 540.951C459.732 531.733 481.928 526 506.5 526C531.072 526 553.268 531.733 569.287 540.951C585.333 550.184 595 562.789 595 576.5Z" fill="#B1D6FF" fill-opacity="0.5" stroke="#3077C6" stroke-width="2"/>
<path d="M507.252 337.788C507.252 338.284 507.072 338.7 506.712 339.036C506.36 339.372 505.932 339.54 505.428 339.54C504.916 339.54 504.488 339.372 504.144 339.036C503.8 338.7 503.628 338.284 503.628 337.788C503.628 337.588 503.652 337.372 503.7 337.14C503.748 336.9 503.864 336.588 504.048 336.204L505.992 332.064H507.588L506.604 336.468C506.804 336.604 506.96 336.792 507.072 337.032C507.192 337.264 507.252 337.516 507.252 337.788ZM512.436 337.788C512.436 338.284 512.252 338.7 511.884 339.036C511.524 339.372 511.1 339.54 510.612 339.54C510.116 339.54 509.692 339.372 509.34 339.036C508.988 338.7 508.812 338.284 508.812 337.788C508.812 337.588 508.836 337.372 508.884 337.14C508.932 336.9 509.048 336.588 509.232 336.204L511.212 332.064H512.772L511.8 336.468C511.992 336.604 512.144 336.792 512.256 337.032C512.376 337.264 512.436 337.516 512.436 337.788ZM525.711 351V343.164H519.471V351H517.395V334.476H519.471V341.46H525.711V334.476H527.787V351H525.711ZM538.589 338.364V349.404H542.153V351H532.673V349.404H536.573V339.96H532.793V338.364H538.589ZM536.981 332.448C537.429 332.448 537.785 332.584 538.049 332.856C538.321 333.128 538.457 333.46 538.457 333.852C538.457 334.26 538.321 334.604 538.049 334.884C537.785 335.156 537.429 335.292 536.981 335.292C536.557 335.292 536.209 335.156 535.937 334.884C535.665 334.604 535.529 334.26 535.529 333.852C535.529 333.46 535.665 333.128 535.937 332.856C536.209 332.584 536.557 332.448 536.981 332.448ZM547.112 333.852C547.112 333.356 547.292 332.94 547.652 332.604C548.02 332.26 548.448 332.088 548.936 332.088C549.432 332.088 549.86 332.26 550.22 332.604C550.58 332.94 550.76 333.356 550.76 333.852C550.76 334.068 550.728 334.288 550.664 334.512C550.6 334.728 550.472 335.032 550.28 335.424L548.336 339.564H546.776L547.724 335.16C547.54 335.016 547.392 334.828 547.28 334.596C547.168 334.364 547.112 334.116 547.112 333.852ZM552.296 333.852C552.296 333.356 552.476 332.94 552.836 332.604C553.204 332.26 553.632 332.088 554.12 332.088C554.624 332.088 555.052 332.26 555.404 332.604C555.764 332.94 555.944 333.356 555.944 333.852C555.944 334.068 555.916 334.288 555.86 334.512C555.804 334.728 555.684 335.032 555.5 335.424L553.532 339.564H551.96L552.932 335.16C552.74 335.016 552.584 334.828 552.464 334.596C552.352 334.364 552.296 334.116 552.296 333.852ZM581.053 329.4V358.2H579.253V329.4H581.053ZM607.986 337.788C607.986 338.284 607.806 338.7 607.446 339.036C607.094 339.372 606.666 339.54 606.162 339.54C605.65 339.54 605.222 339.372 604.878 339.036C604.534 338.7 604.362 338.284 604.362 337.788C604.362 337.588 604.386 337.372 604.434 337.14C604.482 336.9 604.598 336.588 604.782 336.204L606.726 332.064H608.322L607.338 336.468C607.538 336.604 607.694 336.792 607.806 337.032C607.926 337.264 607.986 337.516 607.986 337.788ZM613.17 337.788C613.17 338.284 612.986 338.7 612.618 339.036C612.258 339.372 611.834 339.54 611.346 339.54C610.85 339.54 610.426 339.372 610.074 339.036C609.722 338.7 609.546 338.284 609.546 337.788C609.546 337.588 609.57 337.372 609.618 337.14C609.666 336.9 609.782 336.588 609.966 336.204L611.946 332.064H613.506L612.534 336.468C612.726 336.604 612.878 336.792 612.99 337.032C613.11 337.264 613.17 337.516 613.17 337.788ZM626.445 351V343.164H620.205V351H618.129V334.476H620.205V341.46H626.445V334.476H628.521V351H626.445ZM634.512 345.396C634.552 346.372 634.74 347.172 635.076 347.796C635.412 348.412 635.856 348.868 636.408 349.164C636.96 349.452 637.56 349.596 638.208 349.596C638.856 349.596 639.44 349.5 639.96 349.308C640.488 349.116 641.028 348.832 641.58 348.456L642.528 349.788C641.936 350.252 641.26 350.616 640.5 350.88C639.748 351.144 638.976 351.276 638.184 351.276C636.96 351.276 635.916 351 635.052 350.448C634.188 349.896 633.528 349.128 633.072 348.144C632.624 347.152 632.4 346.004 632.4 344.7C632.4 343.42 632.628 342.284 633.084 341.292C633.54 340.3 634.18 339.52 635.004 338.952C635.828 338.384 636.8 338.1 637.92 338.1C638.984 338.1 639.9 338.352 640.668 338.856C641.436 339.352 642.024 340.064 642.432 340.992C642.848 341.912 643.056 343.012 643.056 344.292C643.056 344.508 643.052 344.712 643.044 344.904C643.036 345.088 643.024 345.252 643.008 345.396H634.512ZM637.944 339.756C637.008 339.756 636.224 340.088 635.592 340.752C634.968 341.416 634.612 342.444 634.524 343.836H641.112C641.088 342.484 640.792 341.468 640.224 340.788C639.656 340.1 638.896 339.756 637.944 339.756ZM652.238 333.276V347.88C652.238 348.504 652.43 348.948 652.814 349.212C653.206 349.468 653.71 349.596 654.326 349.596C654.71 349.596 655.074 349.556 655.418 349.476C655.762 349.396 656.106 349.288 656.45 349.152L656.99 350.628C656.646 350.796 656.218 350.944 655.706 351.072C655.202 351.208 654.63 351.276 653.99 351.276C652.87 351.276 651.962 350.968 651.266 350.352C650.57 349.728 650.222 348.868 650.222 347.772V334.872H646.346V333.276H652.238ZM666.629 333.276V347.88C666.629 348.504 666.821 348.948 667.205 349.212C667.597 349.468 668.101 349.596 668.717 349.596C669.101 349.596 669.465 349.556 669.809 349.476C670.153 349.396 670.497 349.288 670.841 349.152L671.381 350.628C671.037 350.796 670.609 350.944 670.097 351.072C669.593 351.208 669.021 351.276 668.381 351.276C667.261 351.276 666.353 350.968 665.657 350.352C664.961 349.728 664.613 348.868 664.613 347.772V334.872H660.737V333.276H666.629ZM680.912 338.1C682.104 338.1 683.1 338.372 683.9 338.916C684.708 339.452 685.312 340.212 685.712 341.196C686.12 342.18 686.324 343.34 686.324 344.676C686.324 345.964 686.116 347.104 685.7 348.096C685.284 349.088 684.672 349.868 683.864 350.436C683.064 350.996 682.072 351.276 680.888 351.276C679.704 351.276 678.708 351.004 677.9 350.46C677.092 349.916 676.48 349.152 676.064 348.168C675.656 347.176 675.451 346.02 675.451 344.7C675.451 343.396 675.66 342.248 676.076 341.256C676.492 340.264 677.104 339.492 677.912 338.94C678.728 338.38 679.728 338.1 680.912 338.1ZM680.912 339.744C679.824 339.744 679 340.148 678.44 340.956C677.888 341.756 677.612 343.004 677.612 344.7C677.612 346.364 677.884 347.6 678.428 348.408C678.98 349.216 679.8 349.62 680.888 349.62C681.976 349.62 682.792 349.216 683.336 348.408C683.888 347.6 684.164 346.356 684.164 344.676C684.164 342.996 683.892 341.756 683.348 340.956C682.804 340.148 681.992 339.744 680.912 339.744ZM691.018 333.852C691.018 333.356 691.198 332.94 691.558 332.604C691.926 332.26 692.354 332.088 692.842 332.088C693.338 332.088 693.766 332.26 694.126 332.604C694.486 332.94 694.666 333.356 694.666 333.852C694.666 334.068 694.634 334.288 694.57 334.512C694.506 334.728 694.378 335.032 694.186 335.424L692.242 339.564H690.682L691.63 335.16C691.446 335.016 691.298 334.828 691.186 334.596C691.074 334.364 691.018 334.116 691.018 333.852ZM696.202 333.852C696.202 333.356 696.382 332.94 696.742 332.604C697.11 332.26 697.538 332.088 698.026 332.088C698.53 332.088 698.958 332.26 699.31 332.604C699.67 332.94 699.85 333.356 699.85 333.852C699.85 334.068 699.822 334.288 699.766 334.512C699.71 334.728 699.59 335.032 699.406 335.424L697.438 339.564H695.866L696.838 335.16C696.646 335.016 696.49 334.828 696.37 334.596C696.258 334.364 696.202 334.116 696.202 333.852Z" fill="black"/>
<path d="M879.1 363.4V392.2H877.3V363.4H879.1Z" fill="black"/>
<path d="M705.412 622V609.364H707.128L707.284 611.116C707.796 610.468 708.436 609.972 709.204 609.628C709.98 609.276 710.732 609.1 711.46 609.1C712.7 609.1 713.6 609.428 714.16 610.084C714.728 610.74 715.012 611.652 715.012 612.82V622H712.996V614.308C712.996 613.444 712.948 612.748 712.852 612.22C712.756 611.684 712.556 611.296 712.252 611.056C711.948 610.808 711.476 610.684 710.836 610.684C710.34 610.684 709.872 610.792 709.432 611.008C709 611.224 708.612 611.496 708.268 611.824C707.932 612.144 707.652 612.468 707.428 612.796V622H705.412ZM721.819 609.364V618.316C721.819 619.148 721.991 619.748 722.335 620.116C722.679 620.484 723.215 620.668 723.943 620.668C724.639 620.668 725.295 620.472 725.911 620.08C726.535 619.68 727.019 619.208 727.363 618.664V609.364H729.379V622H727.663L727.495 620.296C726.999 620.936 726.387 621.428 725.659 621.772C724.931 622.108 724.195 622.276 723.451 622.276C722.227 622.276 721.311 621.952 720.703 621.304C720.103 620.648 719.803 619.732 719.803 618.556V609.364H721.819ZM742.521 609.1C742.929 609.1 743.317 609.188 743.685 609.364C744.061 609.54 744.369 609.88 744.609 610.384C744.849 610.888 744.969 611.624 744.969 612.592V622H743.097V612.916C743.097 612.124 743.049 611.552 742.953 611.2C742.857 610.848 742.581 610.672 742.125 610.672C741.749 610.672 741.373 610.792 740.997 611.032C740.629 611.264 740.269 611.648 739.917 612.184V622H738.033V612.916C738.033 612.124 737.985 611.552 737.889 611.2C737.793 610.848 737.517 610.672 737.061 610.672C736.669 610.672 736.289 610.792 735.921 611.032C735.561 611.264 735.205 611.648 734.853 612.184V622H732.993V609.364H734.577L734.697 610.828C735.041 610.34 735.425 609.932 735.849 609.604C736.281 609.268 736.813 609.1 737.445 609.1C737.925 609.1 738.377 609.216 738.801 609.448C739.225 609.672 739.537 610.112 739.737 610.768C740.081 610.272 740.469 609.872 740.901 609.568C741.333 609.256 741.873 609.1 742.521 609.1ZM750.6 611.008C751.064 610.4 751.596 609.932 752.196 609.604C752.804 609.268 753.472 609.1 754.2 609.1C755.328 609.1 756.24 609.372 756.936 609.916C757.632 610.46 758.14 611.228 758.46 612.22C758.78 613.204 758.94 614.356 758.94 615.676C758.94 616.948 758.748 618.084 758.364 619.084C757.98 620.076 757.416 620.856 756.672 621.424C755.936 621.992 755.024 622.276 753.936 622.276C752.472 622.276 751.324 621.748 750.492 620.692L750.348 622H748.584V604.276L750.6 604.024V611.008ZM753.456 620.644C754.512 620.644 755.324 620.236 755.892 619.42C756.46 618.604 756.744 617.352 756.744 615.664C756.744 614.56 756.632 613.644 756.408 612.916C756.184 612.18 755.848 611.632 755.4 611.272C754.96 610.904 754.416 610.72 753.768 610.72C753.064 610.72 752.444 610.932 751.908 611.356C751.38 611.772 750.944 612.236 750.6 612.748V619.012C750.928 619.508 751.34 619.904 751.836 620.2C752.34 620.496 752.88 620.644 753.456 620.644ZM764.559 616.396C764.599 617.372 764.787 618.172 765.123 618.796C765.459 619.412 765.903 619.868 766.455 620.164C767.007 620.452 767.607 620.596 768.255 620.596C768.903 620.596 769.487 620.5 770.007 620.308C770.535 620.116 771.075 619.832 771.627 619.456L772.575 620.788C771.983 621.252 771.307 621.616 770.547 621.88C769.795 622.144 769.023 622.276 768.231 622.276C767.007 622.276 765.963 622 765.099 621.448C764.235 620.896 763.575 620.128 763.119 619.144C762.671 618.152 762.447 617.004 762.447 615.7C762.447 614.42 762.675 613.284 763.131 612.292C763.587 611.3 764.227 610.52 765.051 609.952C765.875 609.384 766.847 609.1 767.967 609.1C769.031 609.1 769.947 609.352 770.715 609.856C771.483 610.352 772.071 611.064 772.479 611.992C772.895 612.912 773.103 614.012 773.103 615.292C773.103 615.508 773.099 615.712 773.091 615.904C773.083 616.088 773.071 616.252 773.055 616.396H764.559ZM767.991 610.756C767.055 610.756 766.271 611.088 765.639 611.752C765.015 612.416 764.659 613.444 764.571 614.836H771.159C771.135 613.484 770.839 612.468 770.271 611.788C769.703 611.1 768.943 610.756 767.991 610.756ZM777.485 622V620.452H779.453V610.912H777.485V609.364H780.989L781.361 612.352C781.849 611.312 782.441 610.508 783.137 609.94C783.833 609.372 784.753 609.088 785.897 609.088C786.249 609.088 786.561 609.116 786.833 609.172C787.113 609.22 787.397 609.284 787.685 609.364L787.097 611.164C786.833 611.092 786.593 611.04 786.377 611.008C786.161 610.968 785.913 610.948 785.633 610.948C784.665 610.948 783.833 611.292 783.137 611.98C782.441 612.668 781.885 613.708 781.469 615.1V620.452H784.037V622H777.485ZM785.741 613.636V610.888L785.945 609.364H787.685L787.397 613.636H785.741Z" fill="black"/>
<path d="M503.481 580.152C503.481 579.76 503.573 579.408 503.757 579.096C503.941 578.776 504.193 578.524 504.513 578.34C504.825 578.148 505.181 578.052 505.581 578.052C505.989 578.052 506.353 578.148 506.673 578.34C506.993 578.524 507.245 578.776 507.429 579.096C507.613 579.408 507.705 579.76 507.705 580.152C507.705 580.544 507.613 580.904 507.429 581.232C507.245 581.552 506.993 581.808 506.673 582C506.353 582.184 505.989 582.276 505.581 582.276C505.181 582.276 504.825 582.184 504.513 582C504.193 581.808 503.941 581.552 503.757 581.232C503.573 580.904 503.481 580.544 503.481 580.152ZM513.081 580.152C513.081 579.76 513.173 579.408 513.357 579.096C513.541 578.776 513.789 578.524 514.101 578.34C514.421 578.148 514.781 578.052 515.181 578.052C515.589 578.052 515.953 578.148 516.273 578.34C516.593 578.524 516.845 578.776 517.029 579.096C517.213 579.408 517.305 579.76 517.305 580.152C517.305 580.544 517.213 580.904 517.029 581.232C516.845 581.552 516.593 581.808 516.273 582C515.953 582.184 515.589 582.276 515.181 582.276C514.781 582.276 514.421 582.184 514.101 582C513.789 581.808 513.541 581.552 513.357 581.232C513.173 580.904 513.081 580.544 513.081 580.152ZM493.881 580.152C493.881 579.76 493.973 579.408 494.157 579.096C494.341 578.776 494.593 578.524 494.913 578.34C495.225 578.148 495.581 578.052 495.981 578.052C496.389 578.052 496.753 578.148 497.073 578.34C497.393 578.524 497.645 578.776 497.829 579.096C498.013 579.408 498.105 579.76 498.105 580.152C498.105 580.544 498.013 580.904 497.829 581.232C497.645 581.552 497.393 581.808 497.073 582C496.753 582.184 496.389 582.276 495.981 582.276C495.581 582.276 495.225 582.184 494.913 582C494.593 581.808 494.341 581.552 494.157 581.232C493.973 580.904 493.881 580.544 493.881 580.152Z" fill="black"/>
<path d="M998.874 382.24C998.874 382.744 998.958 383.112 999.126 383.344C999.294 383.576 999.554 383.748 999.906 383.86L999.414 385.276C998.87 385.204 998.394 385.032 997.986 384.76C997.578 384.48 997.282 384.06 997.098 383.5C996.642 384.084 996.074 384.528 995.394 384.832C994.714 385.128 993.962 385.276 993.138 385.276C991.874 385.276 990.878 384.92 990.15 384.208C989.422 383.496 989.058 382.552 989.058 381.376C989.058 380.072 989.566 379.072 990.582 378.376C991.598 377.68 993.066 377.332 994.986 377.332H996.846V376.276C996.846 375.364 996.578 374.72 996.042 374.344C995.514 373.96 994.778 373.768 993.834 373.768C993.418 373.768 992.93 373.82 992.37 373.924C991.81 374.02 991.202 374.184 990.546 374.416L990.018 372.892C990.794 372.604 991.522 372.4 992.202 372.28C992.882 372.16 993.53 372.1 994.146 372.1C995.722 372.1 996.902 372.468 997.686 373.204C998.478 373.932 998.874 374.924 998.874 376.18V382.24ZM993.654 383.74C994.278 383.74 994.874 383.584 995.442 383.272C996.01 382.952 996.478 382.512 996.846 381.952V378.7H995.022C993.63 378.7 992.646 378.94 992.07 379.42C991.502 379.9 991.218 380.544 991.218 381.352C991.218 382.136 991.418 382.732 991.818 383.14C992.226 383.54 992.838 383.74 993.654 383.74ZM1004.22 385V372.364H1005.93L1006.09 374.116C1006.6 373.468 1007.24 372.972 1008.01 372.628C1008.78 372.276 1009.54 372.1 1010.26 372.1C1011.5 372.1 1012.4 372.428 1012.96 373.084C1013.53 373.74 1013.82 374.652 1013.82 375.82V385H1011.8V377.308C1011.8 376.444 1011.75 375.748 1011.66 375.22C1011.56 374.684 1011.36 374.296 1011.06 374.056C1010.75 373.808 1010.28 373.684 1009.64 373.684C1009.14 373.684 1008.68 373.792 1008.24 374.008C1007.8 374.224 1007.42 374.496 1007.07 374.824C1006.74 375.144 1006.46 375.468 1006.23 375.796V385H1004.22ZM1029.12 372.364L1024.68 385.084C1024.38 385.94 1024.01 386.724 1023.55 387.436C1023.1 388.148 1022.52 388.736 1021.79 389.2C1021.07 389.672 1020.15 389.964 1019.04 390.076L1018.73 388.468C1019.6 388.324 1020.29 388.104 1020.79 387.808C1021.3 387.512 1021.69 387.132 1021.98 386.668C1022.28 386.204 1022.54 385.648 1022.76 385H1022.09L1017.67 372.364H1019.83L1023.46 383.464L1027.03 372.364H1029.12Z" fill="black"/>
<path d="M718.499 98.32C718.499 98.992 718.611 99.4827 718.835 99.792C719.059 100.101 719.405 100.331 719.875 100.48L719.219 102.368C718.493 102.272 717.859 102.043 717.315 101.68C716.771 101.307 716.376 100.747 716.131 100C715.523 100.779 714.765 101.371 713.859 101.776C712.952 102.171 711.949 102.368 710.851 102.368C709.165 102.368 707.837 101.893 706.867 100.944C705.896 99.9947 705.411 98.736 705.411 97.168C705.411 95.4293 706.088 94.096 707.443 93.168C708.797 92.24 710.755 91.776 713.315 91.776H715.795V90.368C715.795 89.152 715.437 88.2933 714.723 87.792C714.019 87.28 713.037 87.024 711.779 87.024C711.224 87.024 710.573 87.0933 709.827 87.232C709.08 87.36 708.269 87.5787 707.395 87.888L706.691 85.856C707.725 85.472 708.696 85.2 709.603 85.04C710.509 84.88 711.373 84.8 712.195 84.8C714.296 84.8 715.869 85.2907 716.915 86.272C717.971 87.2427 718.499 88.5653 718.499 90.24V98.32ZM711.539 100.32C712.371 100.32 713.165 100.112 713.923 99.696C714.68 99.2693 715.304 98.6827 715.795 97.936V93.6H713.363C711.507 93.6 710.195 93.92 709.427 94.56C708.669 95.2 708.291 96.0587 708.291 97.136C708.291 98.1813 708.557 98.976 709.091 99.52C709.635 100.053 710.451 100.32 711.539 100.32ZM725.622 102V85.152H727.91L728.118 87.488C728.801 86.624 729.654 85.9627 730.678 85.504C731.713 85.0347 732.716 84.8 733.686 84.8C735.34 84.8 736.54 85.2373 737.286 86.112C738.044 86.9867 738.422 88.2027 738.422 89.76V102H735.734V91.744C735.734 90.592 735.67 89.664 735.542 88.96C735.414 88.2453 735.148 87.728 734.742 87.408C734.337 87.0773 733.708 86.912 732.854 86.912C732.193 86.912 731.569 87.056 730.982 87.344C730.406 87.632 729.889 87.9947 729.43 88.432C728.982 88.8587 728.609 89.2907 728.31 89.728V102H725.622ZM758.826 85.152L752.906 102.112C752.511 103.253 752.01 104.299 751.402 105.248C750.804 106.197 750.02 106.981 749.05 107.6C748.09 108.229 746.868 108.619 745.386 108.768L744.97 106.624C746.132 106.432 747.05 106.139 747.722 105.744C748.394 105.349 748.922 104.843 749.306 104.224C749.7 103.605 750.047 102.864 750.346 102H749.45L743.562 85.152H746.442L751.274 99.952L756.042 85.152H758.826Z" fill="black"/>
<path d="M755.561 220.364V229.316C755.561 230.148 755.733 230.748 756.077 231.116C756.421 231.484 756.957 231.668 757.685 231.668C758.381 231.668 759.037 231.472 759.653 231.08C760.277 230.68 760.761 230.208 761.105 229.664V220.364H763.121V233H761.405L761.237 231.296C760.741 231.936 760.129 232.428 759.401 232.772C758.673 233.108 757.937 233.276 757.193 233.276C755.969 233.276 755.053 232.952 754.445 232.304C753.845 231.648 753.545 230.732 753.545 229.556V220.364H755.561ZM767.935 233V220.364H769.651L769.807 222.116C770.319 221.468 770.959 220.972 771.727 220.628C772.503 220.276 773.255 220.1 773.983 220.1C775.223 220.1 776.123 220.428 776.683 221.084C777.251 221.74 777.535 222.652 777.535 223.82V233H775.519V225.308C775.519 224.444 775.471 223.748 775.375 223.22C775.279 222.684 775.079 222.296 774.775 222.056C774.471 221.808 773.999 221.684 773.359 221.684C772.863 221.684 772.395 221.792 771.955 222.008C771.523 222.224 771.135 222.496 770.791 222.824C770.455 223.144 770.175 223.468 769.951 223.796V233H767.935ZM792.91 220.364L787.222 226.052L793.57 233H790.918L784.702 226.1L790.294 220.364H792.91ZM784.474 215.024V233H782.458V215.276L784.474 215.024ZM796.717 233V220.364H798.433L798.589 222.116C799.101 221.468 799.741 220.972 800.509 220.628C801.285 220.276 802.037 220.1 802.765 220.1C804.005 220.1 804.905 220.428 805.465 221.084C806.033 221.74 806.317 222.652 806.317 223.82V233H804.301V225.308C804.301 224.444 804.253 223.748 804.157 223.22C804.061 222.684 803.861 222.296 803.557 222.056C803.253 221.808 802.781 221.684 802.141 221.684C801.645 221.684 801.177 221.792 800.737 222.008C800.305 222.224 799.917 222.496 799.573 222.824C799.237 223.144 798.957 223.468 798.733 223.796V233H796.717ZM815.919 220.1C817.111 220.1 818.107 220.372 818.907 220.916C819.715 221.452 820.319 222.212 820.719 223.196C821.127 224.18 821.331 225.34 821.331 226.676C821.331 227.964 821.123 229.104 820.707 230.096C820.291 231.088 819.679 231.868 818.871 232.436C818.071 232.996 817.079 233.276 815.895 233.276C814.711 233.276 813.715 233.004 812.907 232.46C812.099 231.916 811.487 231.152 811.071 230.168C810.663 229.176 810.459 228.02 810.459 226.7C810.459 225.396 810.667 224.248 811.083 223.256C811.499 222.264 812.111 221.492 812.919 220.94C813.735 220.38 814.735 220.1 815.919 220.1ZM815.919 221.744C814.831 221.744 814.007 222.148 813.447 222.956C812.895 223.756 812.619 225.004 812.619 226.7C812.619 228.364 812.891 229.6 813.435 230.408C813.987 231.216 814.807 231.62 815.895 231.62C816.983 231.62 817.799 231.216 818.343 230.408C818.895 229.6 819.171 228.356 819.171 226.676C819.171 224.996 818.899 223.756 818.355 222.956C817.811 222.148 816.999 221.744 815.919 221.744ZM834.858 233H832.002L830.37 223.724L828.594 233H825.81L823.506 220.364H825.57L827.178 231.752L829.194 221.972H831.582L833.49 231.752L835.098 220.364H837.066L834.858 233ZM839.889 233V220.364H841.605L841.761 222.116C842.273 221.468 842.913 220.972 843.681 220.628C844.457 220.276 845.209 220.1 845.937 220.1C847.177 220.1 848.077 220.428 848.637 221.084C849.205 221.74 849.489 222.652 849.489 223.82V233H847.473V225.308C847.473 224.444 847.425 223.748 847.329 223.22C847.233 222.684 847.033 222.296 846.729 222.056C846.425 221.808 845.953 221.684 845.313 221.684C844.817 221.684 844.349 221.792 843.909 222.008C843.477 222.224 843.089 222.496 842.745 222.824C842.409 223.144 842.129 223.468 841.905 223.796V233H839.889Z" fill="black"/>
<path d="M935 605C935 617.577 927.951 629.054 916.376 637.424C904.802 645.793 888.762 651 871 651C853.238 651 837.198 645.793 825.624 637.424C814.049 629.054 807 617.577 807 605C807 592.423 814.049 580.946 825.624 572.576C837.198 564.207 853.238 559 871 559C888.762 559 904.802 564.207 916.376 572.576C927.951 580.946 935 592.423 935 605Z" fill="#B1D6FF" fill-opacity="0.5" stroke="#3077C6" stroke-width="2"/>
<path d="M863.874 611.24C863.874 611.744 863.958 612.112 864.126 612.344C864.294 612.576 864.554 612.748 864.906 612.86L864.414 614.276C863.87 614.204 863.394 614.032 862.986 613.76C862.578 613.48 862.282 613.06 862.098 612.5C861.642 613.084 861.074 613.528 860.394 613.832C859.714 614.128 858.962 614.276 858.138 614.276C856.874 614.276 855.878 613.92 855.15 613.208C854.422 612.496 854.058 611.552 854.058 610.376C854.058 609.072 854.566 608.072 855.582 607.376C856.598 606.68 858.066 606.332 859.986 606.332H861.846V605.276C861.846 604.364 861.578 603.72 861.042 603.344C860.514 602.96 859.778 602.768 858.834 602.768C858.418 602.768 857.93 602.82 857.37 602.924C856.81 603.02 856.202 603.184 855.546 603.416L855.018 601.892C855.794 601.604 856.522 601.4 857.202 601.28C857.882 601.16 858.53 601.1 859.146 601.1C860.722 601.1 861.902 601.468 862.686 602.204C863.478 602.932 863.874 603.924 863.874 605.18V611.24ZM858.654 612.74C859.278 612.74 859.874 612.584 860.442 612.272C861.01 611.952 861.478 611.512 861.846 610.952V607.7H860.022C858.63 607.7 857.646 607.94 857.07 608.42C856.502 608.9 856.218 609.544 856.218 610.352C856.218 611.136 856.418 611.732 856.818 612.14C857.226 612.54 857.838 612.74 858.654 612.74ZM869.217 614V601.364H870.933L871.089 603.116C871.601 602.468 872.241 601.972 873.009 601.628C873.785 601.276 874.537 601.1 875.265 601.1C876.505 601.1 877.405 601.428 877.965 602.084C878.533 602.74 878.817 603.652 878.817 604.82V614H876.801V606.308C876.801 605.444 876.753 604.748 876.657 604.22C876.561 603.684 876.361 603.296 876.057 603.056C875.753 602.808 875.281 602.684 874.641 602.684C874.145 602.684 873.677 602.792 873.237 603.008C872.805 603.224 872.417 603.496 872.073 603.824C871.737 604.144 871.457 604.468 871.233 604.796V614H869.217ZM894.119 601.364L889.679 614.084C889.383 614.94 889.007 615.724 888.551 616.436C888.103 617.148 887.515 617.736 886.787 618.2C886.067 618.672 885.151 618.964 884.039 619.076L883.727 617.468C884.599 617.324 885.287 617.104 885.791 616.808C886.295 616.512 886.691 616.132 886.979 615.668C887.275 615.204 887.535 614.648 887.759 614H887.087L882.671 601.364H884.831L888.455 612.464L892.031 601.364H894.119Z" fill="black"/>
<path d="M1250 653C1250 665.577 1242.95 677.054 1231.38 685.424C1219.8 693.793 1203.76 699 1186 699C1168.24 699 1152.2 693.793 1140.62 685.424C1129.05 677.054 1122 665.577 1122 653C1122 640.423 1129.05 628.946 1140.62 620.576C1152.2 612.207 1168.24 607 1186 607C1203.76 607 1219.8 612.207 1231.38 620.576C1242.95 628.946 1250 640.423 1250 653Z" fill="#B1D6FF" fill-opacity="0.5" stroke="#3077C6" stroke-width="2"/>
<path d="M1178.87 659.24C1178.87 659.744 1178.96 660.112 1179.13 660.344C1179.29 660.576 1179.55 660.748 1179.91 660.86L1179.41 662.276C1178.87 662.204 1178.39 662.032 1177.99 661.76C1177.58 661.48 1177.28 661.06 1177.1 660.5C1176.64 661.084 1176.07 661.528 1175.39 661.832C1174.71 662.128 1173.96 662.276 1173.14 662.276C1171.87 662.276 1170.88 661.92 1170.15 661.208C1169.42 660.496 1169.06 659.552 1169.06 658.376C1169.06 657.072 1169.57 656.072 1170.58 655.376C1171.6 654.68 1173.07 654.332 1174.99 654.332H1176.85V653.276C1176.85 652.364 1176.58 651.72 1176.04 651.344C1175.51 650.96 1174.78 650.768 1173.83 650.768C1173.42 650.768 1172.93 650.82 1172.37 650.924C1171.81 651.02 1171.2 651.184 1170.55 651.416L1170.02 649.892C1170.79 649.604 1171.52 649.4 1172.2 649.28C1172.88 649.16 1173.53 649.1 1174.15 649.1C1175.72 649.1 1176.9 649.468 1177.69 650.204C1178.48 650.932 1178.87 651.924 1178.87 653.18V659.24ZM1173.65 660.74C1174.28 660.74 1174.87 660.584 1175.44 660.272C1176.01 659.952 1176.48 659.512 1176.85 658.952V655.7H1175.02C1173.63 655.7 1172.65 655.94 1172.07 656.42C1171.5 656.9 1171.22 657.544 1171.22 658.352C1171.22 659.136 1171.42 659.732 1171.82 660.14C1172.23 660.54 1172.84 660.74 1173.65 660.74ZM1184.22 662V649.364H1185.93L1186.09 651.116C1186.6 650.468 1187.24 649.972 1188.01 649.628C1188.78 649.276 1189.54 649.1 1190.26 649.1C1191.5 649.1 1192.4 649.428 1192.96 650.084C1193.53 650.74 1193.82 651.652 1193.82 652.82V662H1191.8V654.308C1191.8 653.444 1191.75 652.748 1191.66 652.22C1191.56 651.684 1191.36 651.296 1191.06 651.056C1190.75 650.808 1190.28 650.684 1189.64 650.684C1189.14 650.684 1188.68 650.792 1188.24 651.008C1187.8 651.224 1187.42 651.496 1187.07 651.824C1186.74 652.144 1186.46 652.468 1186.23 652.796V662H1184.22ZM1209.12 649.364L1204.68 662.084C1204.38 662.94 1204.01 663.724 1203.55 664.436C1203.1 665.148 1202.52 665.736 1201.79 666.2C1201.07 666.672 1200.15 666.964 1199.04 667.076L1198.73 665.468C1199.6 665.324 1200.29 665.104 1200.79 664.808C1201.3 664.512 1201.69 664.132 1201.98 663.668C1202.28 663.204 1202.54 662.648 1202.76 662H1202.09L1197.67 649.364H1199.83L1203.46 660.464L1207.03 649.364H1209.12Z" fill="black"/>
<path d="M1356 478C1356 490.577 1348.95 502.054 1337.38 510.424C1325.8 518.793 1309.76 524 1292 524C1274.24 524 1258.2 518.793 1246.62 510.424C1235.05 502.054 1228 490.577 1228 478C1228 465.423 1235.05 453.946 1246.62 445.576C1258.2 437.207 1274.24 432 1292 432C1309.76 432 1325.8 437.207 1337.38 445.576C1348.95 453.946 1356 465.423 1356 478Z" fill="#B1D6FF" fill-opacity="0.5" stroke="#3077C6" stroke-width="2"/>
<path d="M1284.87 484.24C1284.87 484.744 1284.96 485.112 1285.13 485.344C1285.29 485.576 1285.55 485.748 1285.91 485.86L1285.41 487.276C1284.87 487.204 1284.39 487.032 1283.99 486.76C1283.58 486.48 1283.28 486.06 1283.1 485.5C1282.64 486.084 1282.07 486.528 1281.39 486.832C1280.71 487.128 1279.96 487.276 1279.14 487.276C1277.87 487.276 1276.88 486.92 1276.15 486.208C1275.42 485.496 1275.06 484.552 1275.06 483.376C1275.06 482.072 1275.57 481.072 1276.58 480.376C1277.6 479.68 1279.07 479.332 1280.99 479.332H1282.85V478.276C1282.85 477.364 1282.58 476.72 1282.04 476.344C1281.51 475.96 1280.78 475.768 1279.83 475.768C1279.42 475.768 1278.93 475.82 1278.37 475.924C1277.81 476.02 1277.2 476.184 1276.55 476.416L1276.02 474.892C1276.79 474.604 1277.52 474.4 1278.2 474.28C1278.88 474.16 1279.53 474.1 1280.15 474.1C1281.72 474.1 1282.9 474.468 1283.69 475.204C1284.48 475.932 1284.87 476.924 1284.87 478.18V484.24ZM1279.65 485.74C1280.28 485.74 1280.87 485.584 1281.44 485.272C1282.01 484.952 1282.48 484.512 1282.85 483.952V480.7H1281.02C1279.63 480.7 1278.65 480.94 1278.07 481.42C1277.5 481.9 1277.22 482.544 1277.22 483.352C1277.22 484.136 1277.42 484.732 1277.82 485.14C1278.23 485.54 1278.84 485.74 1279.65 485.74ZM1290.22 487V474.364H1291.93L1292.09 476.116C1292.6 475.468 1293.24 474.972 1294.01 474.628C1294.78 474.276 1295.54 474.1 1296.26 474.1C1297.5 474.1 1298.4 474.428 1298.96 475.084C1299.53 475.74 1299.82 476.652 1299.82 477.82V487H1297.8V479.308C1297.8 478.444 1297.75 477.748 1297.66 477.22C1297.56 476.684 1297.36 476.296 1297.06 476.056C1296.75 475.808 1296.28 475.684 1295.64 475.684C1295.14 475.684 1294.68 475.792 1294.24 476.008C1293.8 476.224 1293.42 476.496 1293.07 476.824C1292.74 477.144 1292.46 477.468 1292.23 477.796V487H1290.22ZM1315.12 474.364L1310.68 487.084C1310.38 487.94 1310.01 488.724 1309.55 489.436C1309.1 490.148 1308.52 490.736 1307.79 491.2C1307.07 491.672 1306.15 491.964 1305.04 492.076L1304.73 490.468C1305.6 490.324 1306.29 490.104 1306.79 489.808C1307.3 489.512 1307.69 489.132 1307.98 488.668C1308.28 488.204 1308.54 487.648 1308.76 487H1308.09L1303.67 474.364H1305.83L1309.46 485.464L1313.03 474.364H1315.12Z" fill="black"/>
<path d="M1095 795C1095 807.577 1087.95 819.054 1076.38 827.424C1064.8 835.793 1048.76 841 1031 841C1013.24 841 997.198 835.793 985.624 827.424C974.049 819.054 967 807.577 967 795C967 782.423 974.049 770.946 985.624 762.576C997.198 754.207 1013.24 749 1031 749C1048.76 749 1064.8 754.207 1076.38 762.576C1087.95 770.946 1095 782.423 1095 795Z" fill="#B1D6FF" fill-opacity="0.5" stroke="#3077C6" stroke-width="2"/>
<path d="M1023.87 801.24C1023.87 801.744 1023.96 802.112 1024.13 802.344C1024.29 802.576 1024.55 802.748 1024.91 802.86L1024.41 804.276C1023.87 804.204 1023.39 804.032 1022.99 803.76C1022.58 803.48 1022.28 803.06 1022.1 802.5C1021.64 803.084 1021.07 803.528 1020.39 803.832C1019.71 804.128 1018.96 804.276 1018.14 804.276C1016.87 804.276 1015.88 803.92 1015.15 803.208C1014.42 802.496 1014.06 801.552 1014.06 800.376C1014.06 799.072 1014.57 798.072 1015.58 797.376C1016.6 796.68 1018.07 796.332 1019.99 796.332H1021.85V795.276C1021.85 794.364 1021.58 793.72 1021.04 793.344C1020.51 792.96 1019.78 792.768 1018.83 792.768C1018.42 792.768 1017.93 792.82 1017.37 792.924C1016.81 793.02 1016.2 793.184 1015.55 793.416L1015.02 791.892C1015.79 791.604 1016.52 791.4 1017.2 791.28C1017.88 791.16 1018.53 791.1 1019.15 791.1C1020.72 791.1 1021.9 791.468 1022.69 792.204C1023.48 792.932 1023.87 793.924 1023.87 795.18V801.24ZM1018.65 802.74C1019.28 802.74 1019.87 802.584 1020.44 802.272C1021.01 801.952 1021.48 801.512 1021.85 800.952V797.7H1020.02C1018.63 797.7 1017.65 797.94 1017.07 798.42C1016.5 798.9 1016.22 799.544 1016.22 800.352C1016.22 801.136 1016.42 801.732 1016.82 802.14C1017.23 802.54 1017.84 802.74 1018.65 802.74ZM1029.22 804V791.364H1030.93L1031.09 793.116C1031.6 792.468 1032.24 791.972 1033.01 791.628C1033.78 791.276 1034.54 791.1 1035.26 791.1C1036.5 791.1 1037.4 791.428 1037.96 792.084C1038.53 792.74 1038.82 793.652 1038.82 794.82V804H1036.8V796.308C1036.8 795.444 1036.75 794.748 1036.66 794.22C1036.56 793.684 1036.36 793.296 1036.06 793.056C1035.75 792.808 1035.28 792.684 1034.64 792.684C1034.14 792.684 1033.68 792.792 1033.24 793.008C1032.8 793.224 1032.42 793.496 1032.07 793.824C1031.74 794.144 1031.46 794.468 1031.23 794.796V804H1029.22ZM1054.12 791.364L1049.68 804.084C1049.38 804.94 1049.01 805.724 1048.55 806.436C1048.1 807.148 1047.52 807.736 1046.79 808.2C1046.07 808.672 1045.15 808.964 1044.04 809.076L1043.73 807.468C1044.6 807.324 1045.29 807.104 1045.79 806.808C1046.3 806.512 1046.69 806.132 1046.98 805.668C1047.28 805.204 1047.54 804.648 1047.76 804H1047.09L1042.67 791.364H1044.83L1048.46 802.464L1052.03 791.364H1054.12Z" fill="black"/>
<path d="M461 779C461 791.577 453.951 803.054 442.376 811.424C430.802 819.793 414.762 825 397 825C379.238 825 363.198 819.793 351.624 811.424C340.049 803.054 333 791.577 333 779C333 766.423 340.049 754.946 351.624 746.576C363.198 738.207 379.238 733 397 733C414.762 733 430.802 738.207 442.376 746.576C453.951 754.946 461 766.423 461 779Z" fill="#B1D6FF" fill-opacity="0.5" stroke="#3077C6" stroke-width="2"/>
<path d="M389.874 785.24C389.874 785.744 389.958 786.112 390.126 786.344C390.294 786.576 390.554 786.748 390.906 786.86L390.414 788.276C389.87 788.204 389.394 788.032 388.986 787.76C388.578 787.48 388.282 787.06 388.098 786.5C387.642 787.084 387.074 787.528 386.394 787.832C385.714 788.128 384.962 788.276 384.138 788.276C382.874 788.276 381.878 787.92 381.15 787.208C380.422 786.496 380.058 785.552 380.058 784.376C380.058 783.072 380.566 782.072 381.582 781.376C382.598 780.68 384.066 780.332 385.986 780.332H387.846V779.276C387.846 778.364 387.578 777.72 387.042 777.344C386.514 776.96 385.778 776.768 384.834 776.768C384.418 776.768 383.93 776.82 383.37 776.924C382.81 777.02 382.202 777.184 381.546 777.416L381.018 775.892C381.794 775.604 382.522 775.4 383.202 775.28C383.882 775.16 384.53 775.1 385.146 775.1C386.722 775.1 387.902 775.468 388.686 776.204C389.478 776.932 389.874 777.924 389.874 779.18V785.24ZM384.654 786.74C385.278 786.74 385.874 786.584 386.442 786.272C387.01 785.952 387.478 785.512 387.846 784.952V781.7H386.022C384.63 781.7 383.646 781.94 383.07 782.42C382.502 782.9 382.218 783.544 382.218 784.352C382.218 785.136 382.418 785.732 382.818 786.14C383.226 786.54 383.838 786.74 384.654 786.74ZM395.217 788V775.364H396.933L397.089 777.116C397.601 776.468 398.241 775.972 399.009 775.628C399.785 775.276 400.537 775.1 401.265 775.1C402.505 775.1 403.405 775.428 403.965 776.084C404.533 776.74 404.817 777.652 404.817 778.82V788H402.801V780.308C402.801 779.444 402.753 778.748 402.657 778.22C402.561 777.684 402.361 777.296 402.057 777.056C401.753 776.808 401.281 776.684 400.641 776.684C400.145 776.684 399.677 776.792 399.237 777.008C398.805 777.224 398.417 777.496 398.073 777.824C397.737 778.144 397.457 778.468 397.233 778.796V788H395.217ZM420.119 775.364L415.679 788.084C415.383 788.94 415.007 789.724 414.551 790.436C414.103 791.148 413.515 791.736 412.787 792.2C412.067 792.672 411.151 792.964 410.039 793.076L409.727 791.468C410.599 791.324 411.287 791.104 411.791 790.808C412.295 790.512 412.691 790.132 412.979 789.668C413.275 789.204 413.535 788.648 413.759 788H413.087L408.671 775.364H410.831L414.455 786.464L418.031 775.364H420.119Z" fill="black"/>
<path d="M331 654C331 666.577 323.951 678.054 312.376 686.424C300.802 694.793 284.762 700 267 700C249.238 700 233.198 694.793 221.624 686.424C210.049 678.054 203 666.577 203 654C203 641.423 210.049 629.946 221.624 621.576C233.198 613.207 249.238 608 267 608C284.762 608 300.802 613.207 312.376 621.576C323.951 629.946 331 641.423 331 654Z" fill="#B1D6FF" fill-opacity="0.5" stroke="#3077C6" stroke-width="2"/>
<path d="M259.874 660.24C259.874 660.744 259.958 661.112 260.126 661.344C260.294 661.576 260.554 661.748 260.906 661.86L260.414 663.276C259.87 663.204 259.394 663.032 258.986 662.76C258.578 662.48 258.282 662.06 258.098 661.5C257.642 662.084 257.074 662.528 256.394 662.832C255.714 663.128 254.962 663.276 254.138 663.276C252.874 663.276 251.878 662.92 251.15 662.208C250.422 661.496 250.058 660.552 250.058 659.376C250.058 658.072 250.566 657.072 251.582 656.376C252.598 655.68 254.066 655.332 255.986 655.332H257.846V654.276C257.846 653.364 257.578 652.72 257.042 652.344C256.514 651.96 255.778 651.768 254.834 651.768C254.418 651.768 253.93 651.82 253.37 651.924C252.81 652.02 252.202 652.184 251.546 652.416L251.018 650.892C251.794 650.604 252.522 650.4 253.202 650.28C253.882 650.16 254.53 650.1 255.146 650.1C256.722 650.1 257.902 650.468 258.686 651.204C259.478 651.932 259.874 652.924 259.874 654.18V660.24ZM254.654 661.74C255.278 661.74 255.874 661.584 256.442 661.272C257.01 660.952 257.478 660.512 257.846 659.952V656.7H256.022C254.63 656.7 253.646 656.94 253.07 657.42C252.502 657.9 252.218 658.544 252.218 659.352C252.218 660.136 252.418 660.732 252.818 661.14C253.226 661.54 253.838 661.74 254.654 661.74ZM265.217 663V650.364H266.933L267.089 652.116C267.601 651.468 268.241 650.972 269.009 650.628C269.785 650.276 270.537 650.1 271.265 650.1C272.505 650.1 273.405 650.428 273.965 651.084C274.533 651.74 274.817 652.652 274.817 653.82V663H272.801V655.308C272.801 654.444 272.753 653.748 272.657 653.22C272.561 652.684 272.361 652.296 272.057 652.056C271.753 651.808 271.281 651.684 270.641 651.684C270.145 651.684 269.677 651.792 269.237 652.008C268.805 652.224 268.417 652.496 268.073 652.824C267.737 653.144 267.457 653.468 267.233 653.796V663H265.217ZM290.119 650.364L285.679 663.084C285.383 663.94 285.007 664.724 284.551 665.436C284.103 666.148 283.515 666.736 282.787 667.2C282.067 667.672 281.151 667.964 280.039 668.076L279.727 666.468C280.599 666.324 281.287 666.104 281.791 665.808C282.295 665.512 282.691 665.132 282.979 664.668C283.275 664.204 283.535 663.648 283.759 663H283.087L278.671 650.364H280.831L284.455 661.464L288.031 650.364H290.119Z" fill="black"/>
<path d="M179 762C179 774.577 171.951 786.054 160.376 794.424C148.802 802.793 132.762 808 115 808C97.2378 808 81.1982 802.793 69.624 794.424C58.0485 786.054 51 774.577 51 762C51 749.423 58.0485 737.946 69.624 729.576C81.1982 721.207 97.2378 716 115 716C132.762 716 148.802 721.207 160.376 729.576C171.951 737.946 179 749.423 179 762Z" fill="#B1D6FF" fill-opacity="0.5" stroke="#3077C6" stroke-width="2"/>
<path d="M107.874 768.24C107.874 768.744 107.958 769.112 108.126 769.344C108.294 769.576 108.554 769.748 108.906 769.86L108.414 771.276C107.87 771.204 107.394 771.032 106.986 770.76C106.578 770.48 106.282 770.06 106.098 769.5C105.642 770.084 105.074 770.528 104.394 770.832C103.714 771.128 102.962 771.276 102.138 771.276C100.874 771.276 99.8781 770.92 99.1501 770.208C98.4221 769.496 98.0581 768.552 98.0581 767.376C98.0581 766.072 98.5661 765.072 99.5821 764.376C100.598 763.68 102.066 763.332 103.986 763.332H105.846V762.276C105.846 761.364 105.578 760.72 105.042 760.344C104.514 759.96 103.778 759.768 102.834 759.768C102.418 759.768 101.93 759.82 101.37 759.924C100.81 760.02 100.202 760.184 99.5461 760.416L99.0181 758.892C99.7941 758.604 100.522 758.4 101.202 758.28C101.882 758.16 102.53 758.1 103.146 758.1C104.722 758.1 105.902 758.468 106.686 759.204C107.478 759.932 107.874 760.924 107.874 762.18V768.24ZM102.654 769.74C103.278 769.74 103.874 769.584 104.442 769.272C105.01 768.952 105.478 768.512 105.846 767.952V764.7H104.022C102.63 764.7 101.646 764.94 101.07 765.42C100.502 765.9 100.218 766.544 100.218 767.352C100.218 768.136 100.418 768.732 100.818 769.14C101.226 769.54 101.838 769.74 102.654 769.74ZM113.217 771V758.364H114.933L115.089 760.116C115.601 759.468 116.241 758.972 117.009 758.628C117.785 758.276 118.537 758.1 119.265 758.1C120.505 758.1 121.405 758.428 121.965 759.084C122.533 759.74 122.817 760.652 122.817 761.82V771H120.801V763.308C120.801 762.444 120.753 761.748 120.657 761.22C120.561 760.684 120.361 760.296 120.057 760.056C119.753 759.808 119.281 759.684 118.641 759.684C118.145 759.684 117.677 759.792 117.237 760.008C116.805 760.224 116.417 760.496 116.073 760.824C115.737 761.144 115.457 761.468 115.233 761.796V771H113.217ZM138.119 758.364L133.679 771.084C133.383 771.94 133.007 772.724 132.551 773.436C132.103 774.148 131.515 774.736 130.787 775.2C130.067 775.672 129.151 775.964 128.039 776.076L127.727 774.468C128.599 774.324 129.287 774.104 129.791 773.808C130.295 773.512 130.691 773.132 130.979 772.668C131.275 772.204 131.535 771.648 131.759 771H131.087L126.671 758.364H128.831L132.455 769.464L136.031 758.364H138.119Z" fill="black"/>
<path d="M1231 170C1231 182.577 1223.95 194.054 1212.38 202.424C1200.8 210.793 1184.76 216 1167 216C1149.24 216 1133.2 210.793 1121.62 202.424C1110.05 194.054 1103 182.577 1103 170C1103 157.423 1110.05 145.946 1121.62 137.576C1133.2 129.207 1149.24 124 1167 124C1184.76 124 1200.8 129.207 1212.38 137.576C1223.95 145.946 1231 157.423 1231 170Z" fill="#B1D6FF" fill-opacity="0.5" stroke="#3077C6" stroke-width="2"/>
<path d="M1159.87 176.24C1159.87 176.744 1159.96 177.112 1160.13 177.344C1160.29 177.576 1160.55 177.748 1160.91 177.86L1160.41 179.276C1159.87 179.204 1159.39 179.032 1158.99 178.76C1158.58 178.48 1158.28 178.06 1158.1 177.5C1157.64 178.084 1157.07 178.528 1156.39 178.832C1155.71 179.128 1154.96 179.276 1154.14 179.276C1152.87 179.276 1151.88 178.92 1151.15 178.208C1150.42 177.496 1150.06 176.552 1150.06 175.376C1150.06 174.072 1150.57 173.072 1151.58 172.376C1152.6 171.68 1154.07 171.332 1155.99 171.332H1157.85V170.276C1157.85 169.364 1157.58 168.72 1157.04 168.344C1156.51 167.96 1155.78 167.768 1154.83 167.768C1154.42 167.768 1153.93 167.82 1153.37 167.924C1152.81 168.02 1152.2 168.184 1151.55 168.416L1151.02 166.892C1151.79 166.604 1152.52 166.4 1153.2 166.28C1153.88 166.16 1154.53 166.1 1155.15 166.1C1156.72 166.1 1157.9 166.468 1158.69 167.204C1159.48 167.932 1159.87 168.924 1159.87 170.18V176.24ZM1154.65 177.74C1155.28 177.74 1155.87 177.584 1156.44 177.272C1157.01 176.952 1157.48 176.512 1157.85 175.952V172.7H1156.02C1154.63 172.7 1153.65 172.94 1153.07 173.42C1152.5 173.9 1152.22 174.544 1152.22 175.352C1152.22 176.136 1152.42 176.732 1152.82 177.14C1153.23 177.54 1153.84 177.74 1154.65 177.74ZM1165.22 179V166.364H1166.93L1167.09 168.116C1167.6 167.468 1168.24 166.972 1169.01 166.628C1169.78 166.276 1170.54 166.1 1171.26 166.1C1172.5 166.1 1173.4 166.428 1173.96 167.084C1174.53 167.74 1174.82 168.652 1174.82 169.82V179H1172.8V171.308C1172.8 170.444 1172.75 169.748 1172.66 169.22C1172.56 168.684 1172.36 168.296 1172.06 168.056C1171.75 167.808 1171.28 167.684 1170.64 167.684C1170.14 167.684 1169.68 167.792 1169.24 168.008C1168.8 168.224 1168.42 168.496 1168.07 168.824C1167.74 169.144 1167.46 169.468 1167.23 169.796V179H1165.22ZM1190.12 166.364L1185.68 179.084C1185.38 179.94 1185.01 180.724 1184.55 181.436C1184.1 182.148 1183.52 182.736 1182.79 183.2C1182.07 183.672 1181.15 183.964 1180.04 184.076L1179.73 182.468C1180.6 182.324 1181.29 182.104 1181.79 181.808C1182.3 181.512 1182.69 181.132 1182.98 180.668C1183.28 180.204 1183.54 179.648 1183.76 179H1183.09L1178.67 166.364H1180.83L1184.46 177.464L1188.03 166.364H1190.12Z" fill="black"/>
<path d="M331 186C331 198.577 323.951 210.054 312.376 218.424C300.802 226.793 284.762 232 267 232C249.238 232 233.198 226.793 221.624 218.424C210.049 210.054 203 198.577 203 186C203 173.423 210.049 161.946 221.624 153.576C233.198 145.207 249.238 140 267 140C284.762 140 300.802 145.207 312.376 153.576C323.951 161.946 331 173.423 331 186Z" fill="#B1D6FF" fill-opacity="0.5" stroke="#3077C6" stroke-width="2"/>
<path d="M259.874 192.24C259.874 192.744 259.958 193.112 260.126 193.344C260.294 193.576 260.554 193.748 260.906 193.86L260.414 195.276C259.87 195.204 259.394 195.032 258.986 194.76C258.578 194.48 258.282 194.06 258.098 193.5C257.642 194.084 257.074 194.528 256.394 194.832C255.714 195.128 254.962 195.276 254.138 195.276C252.874 195.276 251.878 194.92 251.15 194.208C250.422 193.496 250.058 192.552 250.058 191.376C250.058 190.072 250.566 189.072 251.582 188.376C252.598 187.68 254.066 187.332 255.986 187.332H257.846V186.276C257.846 185.364 257.578 184.72 257.042 184.344C256.514 183.96 255.778 183.768 254.834 183.768C254.418 183.768 253.93 183.82 253.37 183.924C252.81 184.02 252.202 184.184 251.546 184.416L251.018 182.892C251.794 182.604 252.522 182.4 253.202 182.28C253.882 182.16 254.53 182.1 255.146 182.1C256.722 182.1 257.902 182.468 258.686 183.204C259.478 183.932 259.874 184.924 259.874 186.18V192.24ZM254.654 193.74C255.278 193.74 255.874 193.584 256.442 193.272C257.01 192.952 257.478 192.512 257.846 191.952V188.7H256.022C254.63 188.7 253.646 188.94 253.07 189.42C252.502 189.9 252.218 190.544 252.218 191.352C252.218 192.136 252.418 192.732 252.818 193.14C253.226 193.54 253.838 193.74 254.654 193.74ZM265.217 195V182.364H266.933L267.089 184.116C267.601 183.468 268.241 182.972 269.009 182.628C269.785 182.276 270.537 182.1 271.265 182.1C272.505 182.1 273.405 182.428 273.965 183.084C274.533 183.74 274.817 184.652 274.817 185.82V195H272.801V187.308C272.801 186.444 272.753 185.748 272.657 185.22C272.561 184.684 272.361 184.296 272.057 184.056C271.753 183.808 271.281 183.684 270.641 183.684C270.145 183.684 269.677 183.792 269.237 184.008C268.805 184.224 268.417 184.496 268.073 184.824C267.737 185.144 267.457 185.468 267.233 185.796V195H265.217ZM290.119 182.364L285.679 195.084C285.383 195.94 285.007 196.724 284.551 197.436C284.103 198.148 283.515 198.736 282.787 199.2C282.067 199.672 281.151 199.964 280.039 200.076L279.727 198.468C280.599 198.324 281.287 198.104 281.791 197.808C282.295 197.512 282.691 197.132 282.979 196.668C283.275 196.204 283.535 195.648 283.759 195H283.087L278.671 182.364H280.831L284.455 193.464L288.031 182.364H290.119Z" fill="black"/>
<path d="M273 500.5C273 521.169 259.966 540.02 238.605 553.752C217.254 567.478 187.698 576 155 576C122.302 576 92.7457 567.478 71.3951 553.752C50.0337 540.02 37 521.169 37 500.5C37 479.831 50.0337 460.98 71.3951 447.248C92.7457 433.522 122.302 425 155 425C187.698 425 217.254 433.522 238.605 447.248C259.966 460.98 273 479.831 273 500.5Z" fill="#B1D6FF" fill-opacity="0.5" stroke="#3077C6" stroke-width="2"/>
<path d="M144.374 505.24C144.374 505.744 144.458 506.112 144.626 506.344C144.794 506.576 145.054 506.748 145.406 506.86L144.914 508.276C144.37 508.204 143.894 508.032 143.486 507.76C143.078 507.48 142.782 507.06 142.598 506.5C142.142 507.084 141.574 507.528 140.894 507.832C140.214 508.128 139.462 508.276 138.638 508.276C137.374 508.276 136.378 507.92 135.65 507.208C134.922 506.496 134.558 505.552 134.558 504.376C134.558 503.072 135.066 502.072 136.082 501.376C137.098 500.68 138.566 500.332 140.486 500.332H142.346V499.276C142.346 498.364 142.078 497.72 141.542 497.344C141.014 496.96 140.278 496.768 139.334 496.768C138.918 496.768 138.43 496.82 137.87 496.924C137.31 497.02 136.702 497.184 136.046 497.416L135.518 495.892C136.294 495.604 137.022 495.4 137.702 495.28C138.382 495.16 139.03 495.1 139.646 495.1C141.222 495.1 142.402 495.468 143.186 496.204C143.978 496.932 144.374 497.924 144.374 499.18V505.24ZM139.154 506.74C139.778 506.74 140.374 506.584 140.942 506.272C141.51 505.952 141.978 505.512 142.346 504.952V501.7H140.522C139.13 501.7 138.146 501.94 137.57 502.42C137.002 502.9 136.718 503.544 136.718 504.352C136.718 505.136 136.918 505.732 137.318 506.14C137.726 506.54 138.338 506.74 139.154 506.74ZM149.717 508V495.364H151.433L151.589 497.116C152.101 496.468 152.741 495.972 153.509 495.628C154.285 495.276 155.037 495.1 155.765 495.1C157.005 495.1 157.905 495.428 158.465 496.084C159.033 496.74 159.317 497.652 159.317 498.82V508H157.301V500.308C157.301 499.444 157.253 498.748 157.157 498.22C157.061 497.684 156.861 497.296 156.557 497.056C156.253 496.808 155.781 496.684 155.141 496.684C154.645 496.684 154.177 496.792 153.737 497.008C153.305 497.224 152.917 497.496 152.573 497.824C152.237 498.144 151.957 498.468 151.733 498.796V508H149.717ZM174.619 495.364L170.179 508.084C169.883 508.94 169.507 509.724 169.051 510.436C168.603 511.148 168.015 511.736 167.287 512.2C166.567 512.672 165.651 512.964 164.539 513.076L164.227 511.468C165.099 511.324 165.787 511.104 166.291 510.808C166.795 510.512 167.191 510.132 167.479 509.668C167.775 509.204 168.035 508.648 168.259 508H167.587L163.171 495.364H165.331L168.955 506.464L172.531 495.364H174.619Z" fill="black"/>
<path d="M1389 757C1389 769.577 1381.95 781.054 1370.38 789.424C1358.8 797.793 1342.76 803 1325 803C1307.24 803 1291.2 797.793 1279.62 789.424C1268.05 781.054 1261 769.577 1261 757C1261 744.423 1268.05 732.946 1279.62 724.576C1291.2 716.207 1307.24 711 1325 711C1342.76 711 1358.8 716.207 1370.38 724.576C1381.95 732.946 1389 744.423 1389 757Z" fill="#B1D6FF" fill-opacity="0.5" stroke="#3077C6" stroke-width="2"/>
<path d="M1317.87 763.24C1317.87 763.744 1317.96 764.112 1318.13 764.344C1318.29 764.576 1318.55 764.748 1318.91 764.86L1318.41 766.276C1317.87 766.204 1317.39 766.032 1316.99 765.76C1316.58 765.48 1316.28 765.06 1316.1 764.5C1315.64 765.084 1315.07 765.528 1314.39 765.832C1313.71 766.128 1312.96 766.276 1312.14 766.276C1310.87 766.276 1309.88 765.92 1309.15 765.208C1308.42 764.496 1308.06 763.552 1308.06 762.376C1308.06 761.072 1308.57 760.072 1309.58 759.376C1310.6 758.68 1312.07 758.332 1313.99 758.332H1315.85V757.276C1315.85 756.364 1315.58 755.72 1315.04 755.344C1314.51 754.96 1313.78 754.768 1312.83 754.768C1312.42 754.768 1311.93 754.82 1311.37 754.924C1310.81 755.02 1310.2 755.184 1309.55 755.416L1309.02 753.892C1309.79 753.604 1310.52 753.4 1311.2 753.28C1311.88 753.16 1312.53 753.1 1313.15 753.1C1314.72 753.1 1315.9 753.468 1316.69 754.204C1317.48 754.932 1317.87 755.924 1317.87 757.18V763.24ZM1312.65 764.74C1313.28 764.74 1313.87 764.584 1314.44 764.272C1315.01 763.952 1315.48 763.512 1315.85 762.952V759.7H1314.02C1312.63 759.7 1311.65 759.94 1311.07 760.42C1310.5 760.9 1310.22 761.544 1310.22 762.352C1310.22 763.136 1310.42 763.732 1310.82 764.14C1311.23 764.54 1311.84 764.74 1312.65 764.74ZM1323.22 766V753.364H1324.93L1325.09 755.116C1325.6 754.468 1326.24 753.972 1327.01 753.628C1327.78 753.276 1328.54 753.1 1329.26 753.1C1330.5 753.1 1331.4 753.428 1331.96 754.084C1332.53 754.74 1332.82 755.652 1332.82 756.82V766H1330.8V758.308C1330.8 757.444 1330.75 756.748 1330.66 756.22C1330.56 755.684 1330.36 755.296 1330.06 755.056C1329.75 754.808 1329.28 754.684 1328.64 754.684C1328.14 754.684 1327.68 754.792 1327.24 755.008C1326.8 755.224 1326.42 755.496 1326.07 755.824C1325.74 756.144 1325.46 756.468 1325.23 756.796V766H1323.22ZM1348.12 753.364L1343.68 766.084C1343.38 766.94 1343.01 767.724 1342.55 768.436C1342.1 769.148 1341.52 769.736 1340.79 770.2C1340.07 770.672 1339.15 770.964 1338.04 771.076L1337.73 769.468C1338.6 769.324 1339.29 769.104 1339.79 768.808C1340.3 768.512 1340.69 768.132 1340.98 767.668C1341.28 767.204 1341.54 766.648 1341.76 766H1341.09L1336.67 753.364H1338.83L1342.46 764.464L1346.03 753.364H1348.12Z" fill="black"/>
</svg>
