<svg width="398" height="194" viewBox="0 0 398 194" fill="none" xmlns="http://www.w3.org/2000/svg">
<path d="M397 97C397 123.403 382.825 147.381 359.761 164.791C336.696 182.202 304.787 193 269.5 193C234.213 193 202.304 182.202 179.239 164.791C156.175 147.381 142 123.403 142 97C142 70.5967 156.175 46.6191 179.239 29.2088C202.304 11.798 234.213 1 269.5 1C304.787 1 336.696 11.798 359.761 29.2088C382.825 46.6191 397 70.5967 397 97Z" fill="#B1D6FF" fill-opacity="0.5" stroke="#3077C6" stroke-width="2"/>
<path d="M256 97C256 123.403 241.825 147.381 218.761 164.791C195.696 182.202 163.787 193 128.5 193C93.2127 193 61.304 182.202 38.2393 164.791C15.1751 147.381 1 123.403 1 97C1 70.5967 15.1751 46.6191 38.2393 29.2088C61.304 11.798 93.2127 1 128.5 1C163.787 1 195.696 11.798 218.761 29.2088C241.825 46.6191 256 70.5967 256 97Z" fill="#B1D6FF" fill-opacity="0.5" stroke="#3077C6" stroke-width="2"/>
<path d="M92.404 100.788H85.864L84.544 105H82.492L87.868 88.476H90.532L95.908 105H93.724L92.404 100.788ZM86.404 99.06H91.864L89.152 90.228L86.404 99.06Z" fill="black"/>
<path d="M322.752 100.356C322.752 99.524 322.588 98.884 322.26 98.436C321.94 97.98 321.512 97.664 320.976 97.488C320.44 97.312 319.852 97.224 319.212 97.224H316.392V103.284H319.116C319.524 103.284 319.94 103.244 320.364 103.164C320.788 103.084 321.18 102.94 321.54 102.732C321.908 102.524 322.2 102.232 322.416 101.856C322.64 101.472 322.752 100.972 322.752 100.356ZM322.092 92.748C322.092 91.812 321.8 91.148 321.216 90.756C320.64 90.356 319.852 90.156 318.852 90.156H316.392V95.508H319.056C320.032 95.508 320.78 95.292 321.3 94.86C321.828 94.42 322.092 93.716 322.092 92.748ZM324.948 100.284C324.948 101.18 324.768 101.932 324.408 102.54C324.056 103.148 323.58 103.632 322.98 103.992C322.388 104.352 321.724 104.612 320.988 104.772C320.26 104.924 319.516 105 318.756 105H314.316V88.476H318.384C319.112 88.476 319.82 88.544 320.508 88.68C321.204 88.808 321.828 89.032 322.38 89.352C322.94 89.664 323.388 90.088 323.724 90.624C324.06 91.16 324.228 91.832 324.228 92.64C324.228 93.352 324.08 93.956 323.784 94.452C323.496 94.94 323.116 95.332 322.644 95.628C322.18 95.924 321.684 96.132 321.156 96.252C321.772 96.348 322.368 96.536 322.944 96.816C323.528 97.088 324.008 97.504 324.384 98.064C324.76 98.616 324.948 99.356 324.948 100.284Z" fill="black"/>
<path d="M172.404 100.788H165.864L164.544 105H162.492L167.868 88.476H170.532L175.908 105H173.724L172.404 100.788ZM166.404 99.06H171.864L169.152 90.228L166.404 99.06ZM197.477 88.236C198.197 88.236 198.881 88.352 199.529 88.584C200.177 88.816 200.829 89.292 201.485 90.012L200.273 91.116C199.865 90.652 199.441 90.308 199.001 90.084C198.569 89.86 198.053 89.748 197.453 89.748C196.613 89.748 195.981 89.976 195.557 90.432C195.133 90.88 194.921 91.46 194.921 92.172C194.921 92.66 195.053 93.116 195.317 93.54C195.581 93.956 195.937 94.292 196.385 94.548C196.833 94.804 197.329 94.932 197.873 94.932H204.545V96.516H202.397V103.044C202.157 103.356 201.825 103.684 201.401 104.028C200.985 104.372 200.449 104.668 199.793 104.916C199.137 105.156 198.345 105.276 197.417 105.276C196.169 105.276 195.149 105.036 194.357 104.556C193.573 104.076 192.993 103.46 192.617 102.708C192.249 101.948 192.065 101.156 192.065 100.332C192.065 99.092 192.389 98.076 193.037 97.284C193.693 96.492 194.625 95.972 195.833 95.724V95.652C195.105 95.484 194.529 95.224 194.105 94.872C193.689 94.512 193.389 94.1 193.205 93.636C193.029 93.164 192.941 92.68 192.941 92.184C192.941 91.472 193.125 90.82 193.493 90.228C193.861 89.628 194.385 89.148 195.065 88.788C195.745 88.42 196.549 88.236 197.477 88.236ZM200.561 96.516H197.585C196.753 96.516 196.077 96.712 195.557 97.104C195.037 97.488 194.653 97.968 194.405 98.544C194.165 99.112 194.045 99.684 194.045 100.26C194.045 100.836 194.161 101.384 194.393 101.904C194.633 102.424 195.001 102.844 195.497 103.164C196.001 103.484 196.657 103.644 197.465 103.644C198.137 103.644 198.737 103.536 199.265 103.32C199.801 103.096 200.233 102.78 200.561 102.372V96.516ZM230.315 100.356C230.315 99.524 230.151 98.884 229.823 98.436C229.503 97.98 229.075 97.664 228.539 97.488C228.003 97.312 227.415 97.224 226.775 97.224H223.955V103.284H226.679C227.087 103.284 227.503 103.244 227.927 103.164C228.351 103.084 228.743 102.94 229.103 102.732C229.471 102.524 229.763 102.232 229.979 101.856C230.203 101.472 230.315 100.972 230.315 100.356ZM229.655 92.748C229.655 91.812 229.363 91.148 228.779 90.756C228.203 90.356 227.415 90.156 226.415 90.156H223.955V95.508H226.618C227.595 95.508 228.343 95.292 228.863 94.86C229.391 94.42 229.655 93.716 229.655 92.748ZM232.51 100.284C232.51 101.18 232.331 101.932 231.971 102.54C231.619 103.148 231.143 103.632 230.543 103.992C229.951 104.352 229.287 104.612 228.551 104.772C227.823 104.924 227.079 105 226.319 105H221.879V88.476H225.947C226.675 88.476 227.383 88.544 228.071 88.68C228.767 88.808 229.391 89.032 229.943 89.352C230.503 89.664 230.951 90.088 231.287 90.624C231.623 91.16 231.791 91.832 231.791 92.64C231.791 93.352 231.643 93.956 231.347 94.452C231.059 94.94 230.679 95.332 230.207 95.628C229.743 95.924 229.247 96.132 228.719 96.252C229.335 96.348 229.931 96.536 230.507 96.816C231.091 97.088 231.571 97.504 231.947 98.064C232.323 98.616 232.51 99.356 232.51 100.284Z" fill="black"/>
</svg>
