<svg width="510" height="323" viewBox="0 0 510 323" fill="none" xmlns="http://www.w3.org/2000/svg">
<path d="M509 161.5C509 205.634 480.752 245.735 434.777 274.853C388.815 303.963 325.256 322 255 322C184.744 322 121.185 303.963 75.2228 274.853C29.2478 245.735 1 205.634 1 161.5C1 117.366 29.2478 77.2646 75.2228 48.1471C121.185 19.0374 184.744 1 255 1C325.256 1 388.815 19.0374 434.777 48.1471C480.752 77.2646 509 117.366 509 161.5Z" fill="#B1D6FF" fill-opacity="0.5" stroke="#3077C6" stroke-width="2"/>
<path d="M226 203.5C226 235.072 194.416 261 155 261C115.584 261 84 235.072 84 203.5C84 171.928 115.584 146 155 146C194.416 146 226 171.928 226 203.5Z" fill="#B1D6FF" fill-opacity="0.5" stroke="#3077C6" stroke-width="2"/>
<path d="M420 203.5C420 235.072 388.416 261 349 261C309.584 261 278 235.072 278 203.5C278 171.928 309.584 146 349 146C388.416 146 420 171.928 420 203.5Z" fill="#B1D6FF" fill-opacity="0.5" stroke="#3077C6" stroke-width="2"/>
<path d="M304.252 198.788C304.252 199.284 304.072 199.7 303.712 200.036C303.36 200.372 302.932 200.54 302.428 200.54C301.916 200.54 301.488 200.372 301.144 200.036C300.8 199.7 300.628 199.284 300.628 198.788C300.628 198.588 300.652 198.372 300.7 198.14C300.748 197.9 300.864 197.588 301.048 197.204L302.992 193.064H304.588L303.604 197.468C303.804 197.604 303.96 197.792 304.072 198.032C304.192 198.264 304.252 198.516 304.252 198.788ZM309.436 198.788C309.436 199.284 309.252 199.7 308.884 200.036C308.524 200.372 308.1 200.54 307.612 200.54C307.116 200.54 306.692 200.372 306.34 200.036C305.988 199.7 305.812 199.284 305.812 198.788C305.812 198.588 305.836 198.372 305.884 198.14C305.932 197.9 306.048 197.588 306.232 197.204L308.212 193.064H309.772L308.8 197.468C308.992 197.604 309.144 197.792 309.256 198.032C309.376 198.264 309.436 198.516 309.436 198.788ZM322.711 212V204.164H316.471V212H314.395V195.476H316.471V202.46H322.711V195.476H324.787V212H322.711ZM330.777 206.396C330.817 207.372 331.005 208.172 331.341 208.796C331.677 209.412 332.121 209.868 332.673 210.164C333.225 210.452 333.825 210.596 334.473 210.596C335.121 210.596 335.705 210.5 336.225 210.308C336.753 210.116 337.293 209.832 337.845 209.456L338.793 210.788C338.201 211.252 337.525 211.616 336.765 211.88C336.013 212.144 335.241 212.276 334.449 212.276C333.225 212.276 332.181 212 331.317 211.448C330.453 210.896 329.793 210.128 329.337 209.144C328.889 208.152 328.665 207.004 328.665 205.7C328.665 204.42 328.893 203.284 329.349 202.292C329.805 201.3 330.445 200.52 331.269 199.952C332.093 199.384 333.065 199.1 334.185 199.1C335.249 199.1 336.165 199.352 336.933 199.856C337.701 200.352 338.289 201.064 338.697 201.992C339.113 202.912 339.321 204.012 339.321 205.292C339.321 205.508 339.317 205.712 339.309 205.904C339.301 206.088 339.289 206.252 339.273 206.396H330.777ZM334.209 200.756C333.273 200.756 332.489 201.088 331.857 201.752C331.233 202.416 330.877 203.444 330.789 204.836H337.377C337.353 203.484 337.057 202.468 336.489 201.788C335.921 201.1 335.161 200.756 334.209 200.756ZM348.504 194.276V208.88C348.504 209.504 348.696 209.948 349.08 210.212C349.472 210.468 349.976 210.596 350.592 210.596C350.976 210.596 351.34 210.556 351.684 210.476C352.028 210.396 352.372 210.288 352.716 210.152L353.256 211.628C352.912 211.796 352.484 211.944 351.972 212.072C351.468 212.208 350.896 212.276 350.256 212.276C349.136 212.276 348.228 211.968 347.532 211.352C346.836 210.728 346.488 209.868 346.488 208.772V195.872H342.612V194.276H348.504ZM362.895 194.276V208.88C362.895 209.504 363.087 209.948 363.471 210.212C363.863 210.468 364.367 210.596 364.983 210.596C365.367 210.596 365.731 210.556 366.075 210.476C366.419 210.396 366.763 210.288 367.107 210.152L367.647 211.628C367.303 211.796 366.875 211.944 366.363 212.072C365.859 212.208 365.287 212.276 364.647 212.276C363.527 212.276 362.619 211.968 361.923 211.352C361.227 210.728 360.879 209.868 360.879 208.772V195.872H357.003V194.276H362.895ZM377.177 199.1C378.369 199.1 379.365 199.372 380.165 199.916C380.973 200.452 381.577 201.212 381.977 202.196C382.385 203.18 382.589 204.34 382.589 205.676C382.589 206.964 382.381 208.104 381.965 209.096C381.549 210.088 380.937 210.868 380.129 211.436C379.329 211.996 378.337 212.276 377.153 212.276C375.969 212.276 374.973 212.004 374.165 211.46C373.357 210.916 372.745 210.152 372.329 209.168C371.921 208.176 371.717 207.02 371.717 205.7C371.717 204.396 371.925 203.248 372.341 202.256C372.757 201.264 373.369 200.492 374.177 199.94C374.993 199.38 375.993 199.1 377.177 199.1ZM377.177 200.744C376.089 200.744 375.265 201.148 374.705 201.956C374.153 202.756 373.877 204.004 373.877 205.7C373.877 207.364 374.149 208.6 374.693 209.408C375.245 210.216 376.065 210.62 377.153 210.62C378.241 210.62 379.057 210.216 379.601 209.408C380.153 208.6 380.429 207.356 380.429 205.676C380.429 203.996 380.157 202.756 379.613 201.956C379.069 201.148 378.257 200.744 377.177 200.744ZM387.284 194.852C387.284 194.356 387.464 193.94 387.824 193.604C388.192 193.26 388.62 193.088 389.108 193.088C389.604 193.088 390.032 193.26 390.392 193.604C390.752 193.94 390.932 194.356 390.932 194.852C390.932 195.068 390.9 195.288 390.836 195.512C390.772 195.728 390.644 196.032 390.452 196.424L388.508 200.564H386.948L387.896 196.16C387.712 196.016 387.564 195.828 387.452 195.596C387.34 195.364 387.284 195.116 387.284 194.852ZM392.468 194.852C392.468 194.356 392.648 193.94 393.008 193.604C393.376 193.26 393.804 193.088 394.292 193.088C394.796 193.088 395.224 193.26 395.576 193.604C395.936 193.94 396.116 194.356 396.116 194.852C396.116 195.068 396.088 195.288 396.032 195.512C395.976 195.728 395.856 196.032 395.672 196.424L393.704 200.564H392.132L393.104 196.16C392.912 196.016 392.756 195.828 392.636 195.596C392.524 195.364 392.468 195.116 392.468 194.852Z" fill="black"/>
<path d="M132.252 198.788C132.252 199.284 132.072 199.7 131.712 200.036C131.36 200.372 130.932 200.54 130.428 200.54C129.916 200.54 129.488 200.372 129.144 200.036C128.8 199.7 128.628 199.284 128.628 198.788C128.628 198.588 128.652 198.372 128.7 198.14C128.748 197.9 128.864 197.588 129.048 197.204L130.992 193.064H132.588L131.604 197.468C131.804 197.604 131.96 197.792 132.072 198.032C132.192 198.264 132.252 198.516 132.252 198.788ZM137.436 198.788C137.436 199.284 137.252 199.7 136.884 200.036C136.524 200.372 136.1 200.54 135.612 200.54C135.116 200.54 134.692 200.372 134.34 200.036C133.988 199.7 133.812 199.284 133.812 198.788C133.812 198.588 133.836 198.372 133.884 198.14C133.932 197.9 134.048 197.588 134.232 197.204L136.212 193.064H137.772L136.8 197.468C136.992 197.604 137.144 197.792 137.256 198.032C137.376 198.264 137.436 198.516 137.436 198.788ZM150.711 212V204.164H144.471V212H142.395V195.476H144.471V202.46H150.711V195.476H152.787V212H150.711ZM163.589 199.364V210.404H167.153V212H157.673V210.404H161.573V200.96H157.793V199.364H163.589ZM161.981 193.448C162.429 193.448 162.785 193.584 163.049 193.856C163.321 194.128 163.457 194.46 163.457 194.852C163.457 195.26 163.321 195.604 163.049 195.884C162.785 196.156 162.429 196.292 161.981 196.292C161.557 196.292 161.209 196.156 160.937 195.884C160.665 195.604 160.529 195.26 160.529 194.852C160.529 194.46 160.665 194.128 160.937 193.856C161.209 193.584 161.557 193.448 161.981 193.448ZM172.112 194.852C172.112 194.356 172.292 193.94 172.652 193.604C173.02 193.26 173.448 193.088 173.936 193.088C174.432 193.088 174.86 193.26 175.22 193.604C175.58 193.94 175.76 194.356 175.76 194.852C175.76 195.068 175.728 195.288 175.664 195.512C175.6 195.728 175.472 196.032 175.28 196.424L173.336 200.564H171.776L172.724 196.16C172.54 196.016 172.392 195.828 172.28 195.596C172.168 195.364 172.112 195.116 172.112 194.852ZM177.296 194.852C177.296 194.356 177.476 193.94 177.836 193.604C178.204 193.26 178.632 193.088 179.12 193.088C179.624 193.088 180.052 193.26 180.404 193.604C180.764 193.94 180.944 194.356 180.944 194.852C180.944 195.068 180.916 195.288 180.86 195.512C180.804 195.728 180.684 196.032 180.5 196.424L178.532 200.564H176.96L177.932 196.16C177.74 196.016 177.584 195.828 177.464 195.596C177.352 195.364 177.296 195.116 177.296 194.852Z" fill="black"/>
<path d="M217.708 85.608C218.676 85.608 219.44 85.428 220 85.068C220.568 84.7 220.852 84.212 220.852 83.604C220.852 83.22 220.78 82.888 220.636 82.608C220.5 82.328 220.216 82.076 219.784 81.852C219.352 81.628 218.688 81.404 217.792 81.18C216.92 80.964 216.16 80.716 215.512 80.436C214.872 80.148 214.372 79.776 214.012 79.32C213.66 78.864 213.484 78.272 213.484 77.544C213.484 76.832 213.684 76.22 214.084 75.708C214.492 75.188 215.056 74.792 215.776 74.52C216.496 74.24 217.332 74.1 218.284 74.1C219.3 74.1 220.184 74.236 220.936 74.508C221.696 74.772 222.34 75.1 222.868 75.492L221.98 76.86C221.5 76.532 220.972 76.264 220.396 76.056C219.82 75.84 219.124 75.732 218.308 75.732C217.316 75.732 216.612 75.888 216.196 76.2C215.78 76.504 215.572 76.9 215.572 77.388C215.572 77.756 215.672 78.064 215.872 78.312C216.08 78.552 216.428 78.772 216.916 78.972C217.404 79.164 218.076 79.376 218.932 79.608C219.756 79.824 220.472 80.084 221.08 80.388C221.696 80.692 222.176 81.092 222.52 81.588C222.864 82.084 223.036 82.724 223.036 83.508C223.036 84.404 222.78 85.132 222.268 85.692C221.756 86.244 221.092 86.648 220.276 86.904C219.468 87.152 218.612 87.276 217.708 87.276C216.564 87.276 215.588 87.112 214.78 86.784C213.98 86.448 213.308 86.044 212.764 85.572L213.916 84.24C214.412 84.648 214.98 84.98 215.62 85.236C216.268 85.484 216.964 85.608 217.708 85.608ZM237.835 86.364C237.403 86.652 236.879 86.876 236.263 87.036C235.647 87.196 235.043 87.276 234.451 87.276C233.091 87.276 232.043 86.92 231.307 86.208C230.571 85.496 230.203 84.58 230.203 83.46V75.924H227.299V74.364H230.203V71.496L232.219 71.256V74.364H236.587L236.347 75.924H232.219V83.436C232.219 84.14 232.403 84.676 232.771 85.044C233.147 85.412 233.767 85.596 234.631 85.596C235.103 85.596 235.539 85.54 235.939 85.428C236.339 85.316 236.711 85.172 237.055 84.996L237.835 86.364ZM242.313 87V85.452H244.281V75.912H242.313V74.364H245.817L246.189 77.352C246.677 76.312 247.269 75.508 247.965 74.94C248.661 74.372 249.581 74.088 250.725 74.088C251.077 74.088 251.389 74.116 251.661 74.172C251.941 74.22 252.225 74.284 252.513 74.364L251.925 76.164C251.661 76.092 251.421 76.04 251.205 76.008C250.989 75.968 250.741 75.948 250.461 75.948C249.493 75.948 248.661 76.292 247.965 76.98C247.269 77.668 246.713 78.708 246.297 80.1V85.452H248.865V87H242.313ZM250.569 78.636V75.888L250.773 74.364H252.513L252.225 78.636H250.569ZM262.98 74.364V85.404H266.544V87H257.064V85.404H260.964V75.96H257.184V74.364H262.98ZM261.372 68.448C261.82 68.448 262.176 68.584 262.44 68.856C262.712 69.128 262.848 69.46 262.848 69.852C262.848 70.26 262.712 70.604 262.44 70.884C262.176 71.156 261.82 71.292 261.372 71.292C260.948 71.292 260.6 71.156 260.328 70.884C260.056 70.604 259.92 70.26 259.92 69.852C259.92 69.46 260.056 69.128 260.328 68.856C260.6 68.584 260.948 68.448 261.372 68.448ZM270.975 87V74.364H272.691L272.847 76.116C273.359 75.468 273.999 74.972 274.767 74.628C275.543 74.276 276.295 74.1 277.023 74.1C278.263 74.1 279.163 74.428 279.723 75.084C280.291 75.74 280.575 76.652 280.575 77.82V87H278.559V79.308C278.559 78.444 278.511 77.748 278.415 77.22C278.319 76.684 278.119 76.296 277.815 76.056C277.511 75.808 277.039 75.684 276.399 75.684C275.903 75.684 275.435 75.792 274.995 76.008C274.563 76.224 274.175 76.496 273.831 76.824C273.495 77.144 273.215 77.468 272.991 77.796V87H270.975ZM295.637 73.02L296.261 74.916C295.725 75.084 295.153 75.188 294.545 75.228C293.937 75.268 293.277 75.288 292.565 75.288C293.293 75.624 293.841 76.06 294.209 76.596C294.577 77.124 294.761 77.748 294.761 78.468C294.761 79.3 294.573 80.04 294.197 80.688C293.821 81.336 293.277 81.844 292.565 82.212C291.861 82.58 291.009 82.764 290.009 82.764C289.585 82.764 289.229 82.744 288.941 82.704C288.661 82.664 288.389 82.604 288.125 82.524C287.933 82.652 287.773 82.828 287.645 83.052C287.525 83.276 287.465 83.508 287.465 83.748C287.465 84.052 287.585 84.304 287.825 84.504C288.065 84.704 288.509 84.804 289.157 84.804H291.437C292.285 84.804 293.045 84.956 293.717 85.26C294.397 85.564 294.929 85.972 295.313 86.484C295.705 86.996 295.901 87.58 295.901 88.236C295.901 89.476 295.373 90.428 294.317 91.092C293.269 91.756 291.785 92.088 289.865 92.088C288.521 92.088 287.461 91.948 286.685 91.668C285.909 91.396 285.353 90.976 285.017 90.408C284.689 89.848 284.525 89.14 284.525 88.284H286.349C286.349 88.772 286.445 89.176 286.637 89.496C286.829 89.816 287.177 90.052 287.681 90.204C288.185 90.364 288.909 90.444 289.853 90.444C290.781 90.444 291.537 90.364 292.121 90.204C292.713 90.052 293.149 89.82 293.429 89.508C293.717 89.204 293.861 88.824 293.861 88.368C293.861 87.768 293.589 87.316 293.045 87.012C292.501 86.708 291.821 86.556 291.005 86.556H288.749C287.661 86.556 286.857 86.316 286.337 85.836C285.825 85.356 285.569 84.804 285.569 84.18C285.569 83.772 285.685 83.376 285.917 82.992C286.157 82.608 286.505 82.268 286.961 81.972C286.233 81.588 285.697 81.112 285.353 80.544C285.009 79.976 284.837 79.288 284.837 78.48C284.837 77.624 285.049 76.868 285.473 76.212C285.897 75.548 286.489 75.028 287.249 74.652C288.009 74.276 288.885 74.088 289.877 74.088C290.941 74.08 291.805 74.036 292.469 73.956C293.133 73.868 293.701 73.744 294.173 73.584C294.653 73.424 295.141 73.236 295.637 73.02ZM289.877 75.564C288.861 75.564 288.109 75.84 287.621 76.392C287.141 76.936 286.901 77.632 286.901 78.48C286.901 79.336 287.149 80.04 287.645 80.592C288.141 81.144 288.901 81.42 289.925 81.42C290.821 81.42 291.501 81.16 291.965 80.64C292.437 80.12 292.673 79.396 292.673 78.468C292.673 77.516 292.437 76.796 291.965 76.308C291.501 75.812 290.805 75.564 289.877 75.564Z" fill="black"/>
</svg>
