<svg width="398" height="182" viewBox="0 0 398 182" fill="none" xmlns="http://www.w3.org/2000/svg">
<mask id="path-1-inside-1_9_27" fill="white">
<path fill-rule="evenodd" clip-rule="evenodd" d="M199 167.094C178.759 176.517 154.534 182 128.5 182C57.5314 182 0 141.258 0 91C0 40.7421 57.5314 0 128.5 0C154.534 0 178.759 5.48258 199 14.9063C219.241 5.48258 243.466 0 269.5 0C340.469 0 398 40.7421 398 91C398 141.258 340.469 182 269.5 182C243.466 182 219.241 176.517 199 167.094Z"/>
</mask>
<path fill-rule="evenodd" clip-rule="evenodd" d="M199 167.094C178.759 176.517 154.534 182 128.5 182C57.5314 182 0 141.258 0 91C0 40.7421 57.5314 0 128.5 0C154.534 0 178.759 5.48258 199 14.9063C219.241 5.48258 243.466 0 269.5 0C340.469 0 398 40.7421 398 91C398 141.258 340.469 182 269.5 182C243.466 182 219.241 176.517 199 167.094Z" fill="#B1D6FF" fill-opacity="0.75"/>
<path d="M199 167.094L199.844 165.281L199 164.888L198.156 165.281L199 167.094ZM199 14.9063L198.156 16.7194L199 17.1124L199.844 16.7194L199 14.9063ZM198.156 165.281C178.194 174.575 154.258 180 128.5 180V184C154.809 184 179.325 178.46 199.844 168.907L198.156 165.281ZM128.5 180C93.3807 180 61.6707 169.916 38.7926 153.715C15.9097 137.51 2 115.308 2 91H-2C-2 116.95 12.856 140.248 36.4809 156.979C60.1107 173.713 92.6507 184 128.5 184V180ZM2 91C2 66.6923 15.9097 44.4905 38.7926 28.2855C61.6707 12.0839 93.3807 2 128.5 2V-2C92.6507 -2 60.1107 8.28718 36.4809 25.0211C12.856 41.7516 -2 65.0498 -2 91H2ZM128.5 2C154.258 2 178.194 7.42547 198.156 16.7194L199.844 13.0932C179.325 3.5397 154.809 -2 128.5 -2V2ZM199.844 16.7194C219.806 7.42547 243.742 2 269.5 2V-2C243.191 -2 218.675 3.5397 198.156 13.0932L199.844 16.7194ZM269.5 2C304.619 2 336.329 12.0839 359.207 28.2855C382.09 44.4905 396 66.6923 396 91H400C400 65.0498 385.144 41.7516 361.519 25.0211C337.889 8.28718 305.349 -2 269.5 -2V2ZM396 91C396 115.308 382.09 137.51 359.207 153.715C336.329 169.916 304.619 180 269.5 180V184C305.349 184 337.889 173.713 361.519 156.979C385.144 140.248 400 116.95 400 91H396ZM269.5 180C243.742 180 219.806 174.575 199.844 165.281L198.156 168.907C218.675 178.46 243.191 184 269.5 184V180Z" fill="#3077C6" mask="url(#path-1-inside-1_9_27)"/>
<path d="M173.404 94.5011H166.864L165.544 98.7131H163.492L168.868 82.1891H171.532L176.908 98.7131H174.724L173.404 94.5011ZM167.404 92.7731H172.864L170.152 83.9411L167.404 92.7731ZM199.881 77.1131V105.913H198.081V77.1131H199.881ZM231.315 94.0691C231.315 93.2371 231.151 92.5971 230.823 92.1491C230.503 91.6931 230.075 91.3771 229.539 91.2011C229.003 91.0251 228.415 90.9371 227.775 90.9371H224.955V96.9971H227.679C228.087 96.9971 228.503 96.9571 228.927 96.8771C229.351 96.7971 229.743 96.6531 230.103 96.4451C230.471 96.2371 230.763 95.9451 230.979 95.5691C231.203 95.1851 231.315 94.6851 231.315 94.0691ZM230.655 86.4611C230.655 85.5251 230.363 84.8611 229.779 84.4691C229.203 84.0691 228.415 83.8691 227.415 83.8691H224.955V89.2211H227.618C228.595 89.2211 229.343 89.0051 229.863 88.5731C230.391 88.1331 230.655 87.4291 230.655 86.4611ZM233.51 93.9971C233.51 94.8931 233.331 95.6451 232.971 96.2531C232.619 96.8611 232.143 97.3451 231.543 97.7051C230.951 98.0651 230.287 98.3251 229.551 98.4851C228.823 98.6371 228.079 98.7131 227.319 98.7131H222.879V82.1891H226.947C227.675 82.1891 228.383 82.2571 229.071 82.3931C229.767 82.5211 230.391 82.7451 230.943 83.0651C231.503 83.3771 231.951 83.8011 232.287 84.3371C232.623 84.8731 232.791 85.5451 232.791 86.3531C232.791 87.0651 232.643 87.6691 232.347 88.1651C232.059 88.6531 231.679 89.0451 231.207 89.3411C230.743 89.6371 230.247 89.8451 229.719 89.9651C230.335 90.0611 230.931 90.2491 231.507 90.5291C232.091 90.8011 232.571 91.2171 232.947 91.7771C233.323 92.3291 233.51 93.0691 233.51 93.9971Z" fill="black"/>
</svg>
