<svg width="398" height="203" viewBox="0 0 398 203" fill="none" xmlns="http://www.w3.org/2000/svg">
<path d="M397 101.393C397 129.01 382.197 154.085 358.117 172.29C334.038 190.496 300.727 201.785 263.891 201.785C227.056 201.785 193.745 190.496 169.665 172.29C145.586 154.085 130.783 129.01 130.783 101.393C130.783 73.7757 145.586 48.6999 169.665 30.4949C193.745 12.2895 227.056 1 263.891 1C300.727 1 334.038 12.2895 358.117 30.4949C382.197 48.6999 397 73.7757 397 101.393Z" fill="#B1D6FF" fill-opacity="0.5" stroke="#3077C6" stroke-width="2"/>
<path d="M266.136 101.393C266.136 128.86 251.393 153.8 227.412 171.908C203.43 190.015 170.255 201.245 133.568 201.245C96.8812 201.245 63.7056 190.015 39.7237 171.908C15.7424 153.8 1 128.86 1 101.393C1 73.9256 15.7424 48.985 39.7237 30.8777C63.7056 12.7699 96.8812 1.54077 133.568 1.54077C170.255 1.54077 203.43 12.7699 227.412 30.8777C251.393 48.985 266.136 73.9256 266.136 101.393Z" fill="#B1D6FF" fill-opacity="0.5" stroke="#3077C6" stroke-width="2"/>
<path d="M16.1439 95.69V96.548C15.8276 96.548 15.5394 96.5805 15.2794 96.6455C15.0237 96.7062 14.8244 96.8123 14.6814 96.964C14.5427 97.1157 14.4842 97.3237 14.5059 97.588L14.7789 100.253C14.8179 100.617 14.7962 100.918 14.7139 101.157C14.6316 101.395 14.4929 101.581 14.2979 101.716C14.1072 101.85 13.8624 101.945 13.5634 102.002C13.8667 102.054 14.1159 102.145 14.3109 102.275C14.5059 102.4 14.6424 102.582 14.7204 102.821C14.7984 103.055 14.8179 103.364 14.7789 103.75L14.5059 106.415C14.4842 106.684 14.5427 106.894 14.6814 107.046C14.8201 107.197 15.0194 107.303 15.2794 107.364C15.5394 107.425 15.8276 107.455 16.1439 107.455V108.313C15.7799 108.313 15.4311 108.281 15.0974 108.216C14.7637 108.155 14.4691 108.049 14.2134 107.897C13.9577 107.745 13.7649 107.537 13.6349 107.273C13.5049 107.013 13.4616 106.684 13.5049 106.285L13.7649 103.815C13.7996 103.516 13.7714 103.265 13.6804 103.061C13.5937 102.857 13.4031 102.704 13.1084 102.6C12.8181 102.491 12.3826 102.437 11.8019 102.437V101.566C12.3826 101.566 12.8181 101.514 13.1084 101.41C13.4031 101.306 13.5937 101.152 13.6804 100.949C13.7714 100.745 13.7996 100.496 13.7649 100.201L13.5049 97.718C13.4616 97.3193 13.5049 96.99 13.6349 96.73C13.7649 96.4657 13.9556 96.2577 14.2069 96.106C14.4626 95.9543 14.7572 95.8482 15.0909 95.7875C15.4289 95.7225 15.7799 95.69 16.1439 95.69ZM32.0718 105.057C32.0718 105.33 32.1173 105.529 32.2083 105.655C32.2993 105.78 32.4401 105.873 32.6308 105.934L32.3643 106.701C32.0696 106.662 31.8118 106.569 31.5908 106.422C31.3698 106.27 31.2094 106.042 31.1098 105.739C30.8628 106.055 30.5551 106.296 30.1868 106.461C29.8184 106.621 29.4111 106.701 28.9648 106.701C28.2801 106.701 27.7406 106.508 27.3463 106.123C26.9519 105.737 26.7548 105.226 26.7548 104.589C26.7548 103.882 27.0299 103.341 27.5803 102.964C28.1306 102.587 28.9258 102.398 29.9658 102.398H30.9733V101.826C30.9733 101.332 30.8281 100.983 30.5378 100.78C30.2518 100.572 29.8531 100.468 29.3418 100.468C29.1164 100.468 28.8521 100.496 28.5488 100.552C28.2454 100.604 27.9161 100.693 27.5608 100.819L27.2748 99.993C27.6951 99.837 28.0894 99.7265 28.4578 99.6615C28.8261 99.5965 29.1771 99.564 29.5108 99.564C30.3644 99.564 31.0036 99.7633 31.4283 100.162C31.8573 100.556 32.0718 101.094 32.0718 101.774V105.057ZM29.2443 105.869C29.5823 105.869 29.9051 105.785 30.2128 105.616C30.5204 105.442 30.7739 105.204 30.9733 104.901V103.139H29.9853C29.2313 103.139 28.6983 103.269 28.3863 103.529C28.0786 103.789 27.9248 104.138 27.9248 104.576C27.9248 105 28.0331 105.323 28.2498 105.544C28.4708 105.761 28.8023 105.869 29.2443 105.869ZM36.4997 105.642C36.4997 105.36 36.5993 105.115 36.7987 104.907C37.0023 104.699 37.2515 104.595 37.5462 104.595C37.8495 104.595 38.1008 104.699 38.3002 104.907C38.5038 105.115 38.6057 105.36 38.6057 105.642C38.6057 105.936 38.5038 106.188 38.3002 106.396C38.1008 106.599 37.8495 106.701 37.5462 106.701C37.2515 106.701 37.0023 106.599 36.7987 106.396C36.5993 106.188 36.4997 105.936 36.4997 105.642ZM36.4997 100.955C36.4997 100.756 36.5452 100.578 36.6362 100.422C36.7272 100.266 36.8528 100.143 37.0132 100.052C37.1735 99.9562 37.3512 99.9085 37.5462 99.9085C37.8495 99.9085 38.1008 100.01 38.3002 100.214C38.5038 100.418 38.6057 100.665 38.6057 100.955C38.6057 101.241 38.5038 101.49 38.3002 101.703C38.1008 101.911 37.8495 102.015 37.5462 102.015C37.2515 102.015 37.0023 101.911 36.7987 101.703C36.5993 101.49 36.4997 101.241 36.4997 100.955ZM52.8825 105.798C53.4069 105.798 53.8207 105.7 54.124 105.505C54.4317 105.306 54.5855 105.041 54.5855 104.712C54.5855 104.504 54.5465 104.324 54.4685 104.173C54.3949 104.021 54.241 103.884 54.007 103.763C53.773 103.642 53.4134 103.52 52.928 103.399C52.4557 103.282 52.044 103.148 51.693 102.996C51.3464 102.84 51.0755 102.639 50.8805 102.392C50.6899 102.145 50.5945 101.824 50.5945 101.43C50.5945 101.044 50.7029 100.712 50.9195 100.435C51.1405 100.153 51.446 99.9388 51.836 99.7915C52.226 99.6398 52.6789 99.564 53.1945 99.564C53.7449 99.564 54.2237 99.6377 54.631 99.785C55.0427 99.928 55.3915 100.106 55.6775 100.318L55.1965 101.059C54.9365 100.881 54.6505 100.736 54.3385 100.624C54.0265 100.507 53.6495 100.448 53.2075 100.448C52.6702 100.448 52.2889 100.533 52.0635 100.702C51.8382 100.866 51.7255 101.081 51.7255 101.345C51.7255 101.544 51.7797 101.711 51.888 101.846C52.0007 101.976 52.1892 102.095 52.4535 102.203C52.7179 102.307 53.0819 102.422 53.5455 102.548C53.9919 102.665 54.3797 102.805 54.709 102.97C55.0427 103.135 55.3027 103.351 55.489 103.62C55.6754 103.889 55.7685 104.235 55.7685 104.66C55.7685 105.145 55.6299 105.54 55.3525 105.843C55.0752 106.142 54.7155 106.361 54.2735 106.5C53.8359 106.634 53.3722 106.701 52.8825 106.701C52.2629 106.701 51.7342 106.612 51.2965 106.435C50.8632 106.253 50.4992 106.034 50.2045 105.778L50.8285 105.057C51.0972 105.278 51.4049 105.457 51.7515 105.596C52.1025 105.73 52.4795 105.798 52.8825 105.798ZM63.7844 106.207C63.5504 106.363 63.2666 106.484 62.9329 106.571C62.5993 106.658 62.2721 106.701 61.9514 106.701C61.2148 106.701 60.6471 106.508 60.2484 106.123C59.8498 105.737 59.6504 105.241 59.6504 104.634V100.552H58.0774V99.707H59.6504V98.1535L60.7424 98.0235V99.707H63.1084L62.9784 100.552H60.7424V104.621C60.7424 105.002 60.8421 105.293 61.0414 105.492C61.2451 105.691 61.5809 105.791 62.0489 105.791C62.3046 105.791 62.5408 105.761 62.7574 105.7C62.9741 105.639 63.1756 105.561 63.3619 105.466L63.7844 106.207ZM66.2104 106.552V105.713H67.2764V100.546H66.2104V99.707H68.1084L68.3099 101.326C68.5742 100.762 68.8949 100.327 69.2719 100.019C69.6489 99.7113 70.1472 99.5575 70.7669 99.5575C70.9575 99.5575 71.1265 99.5727 71.2739 99.603C71.4255 99.629 71.5794 99.6637 71.7354 99.707L71.4169 100.682C71.2739 100.643 71.1439 100.615 71.0269 100.598C70.9099 100.576 70.7755 100.565 70.6239 100.565C70.0995 100.565 69.6489 100.751 69.2719 101.124C68.8949 101.497 68.5937 102.06 68.3684 102.814V105.713H69.7594V106.552H66.2104ZM70.6824 102.021V100.533L70.7929 99.707H71.7354L71.5794 102.021H70.6824ZM77.4048 99.707V105.687H79.3353V106.552H74.2003V105.687H76.3128V100.572H74.2653V99.707H77.4048ZM76.5338 96.5025C76.7765 96.5025 76.9693 96.5762 77.1123 96.7235C77.2596 96.8708 77.3333 97.0507 77.3333 97.263C77.3333 97.484 77.2596 97.6703 77.1123 97.822C76.9693 97.9693 76.7765 98.043 76.5338 98.043C76.3041 98.043 76.1156 97.9693 75.9683 97.822C75.821 97.6703 75.7473 97.484 75.7473 97.263C75.7473 97.0507 75.821 96.8708 75.9683 96.7235C76.1156 96.5762 76.3041 96.5025 76.5338 96.5025ZM81.7352 106.552V99.707H82.6647L82.7492 100.656C83.0265 100.305 83.3732 100.036 83.7892 99.85C84.2095 99.6593 84.6169 99.564 85.0112 99.564C85.6829 99.564 86.1704 99.7417 86.4737 100.097C86.7814 100.452 86.9352 100.946 86.9352 101.579V106.552H85.8432V102.385C85.8432 101.917 85.8172 101.54 85.7652 101.254C85.7132 100.964 85.6049 100.754 85.4402 100.624C85.2755 100.489 85.0199 100.422 84.6732 100.422C84.4045 100.422 84.151 100.481 83.9127 100.598C83.6787 100.715 83.4685 100.862 83.2822 101.04C83.1002 101.213 82.9485 101.388 82.8272 101.566V106.552H81.7352ZM95.0941 98.979L95.4321 100.006C95.1418 100.097 94.832 100.153 94.5026 100.175C94.1733 100.197 93.8158 100.208 93.4301 100.208C93.8245 100.39 94.1213 100.626 94.3206 100.916C94.52 101.202 94.6196 101.54 94.6196 101.93C94.6196 102.381 94.5178 102.782 94.3141 103.133C94.1105 103.484 93.8158 103.759 93.4301 103.958C93.0488 104.157 92.5873 104.257 92.0456 104.257C91.816 104.257 91.6231 104.246 91.4671 104.225C91.3155 104.203 91.1681 104.17 91.0251 104.127C90.9211 104.196 90.8345 104.292 90.7651 104.413C90.7001 104.534 90.6676 104.66 90.6676 104.79C90.6676 104.955 90.7326 105.091 90.8626 105.2C90.9926 105.308 91.2331 105.362 91.5841 105.362H92.8191C93.2785 105.362 93.6901 105.444 94.0541 105.609C94.4225 105.774 94.7106 105.995 94.9186 106.272C95.131 106.549 95.2371 106.866 95.2371 107.221C95.2371 107.893 94.9511 108.408 94.3791 108.768C93.8115 109.128 93.0076 109.308 91.9676 109.308C91.2396 109.308 90.6655 109.232 90.2451 109.08C89.8248 108.933 89.5236 108.705 89.3416 108.398C89.164 108.094 89.0751 107.711 89.0751 107.247H90.0631C90.0631 107.511 90.1151 107.73 90.2191 107.904C90.3231 108.077 90.5116 108.205 90.7846 108.287C91.0576 108.374 91.4498 108.417 91.9611 108.417C92.4638 108.417 92.8733 108.374 93.1896 108.287C93.5103 108.205 93.7465 108.079 93.8981 107.91C94.0541 107.745 94.1321 107.54 94.1321 107.293C94.1321 106.968 93.9848 106.723 93.6901 106.558C93.3955 106.393 93.0271 106.311 92.5851 106.311H91.3631C90.7738 106.311 90.3383 106.181 90.0566 105.921C89.7793 105.661 89.6406 105.362 89.6406 105.024C89.6406 104.803 89.7035 104.589 89.8291 104.381C89.9591 104.173 90.1476 103.988 90.3946 103.828C90.0003 103.62 89.71 103.362 89.5236 103.055C89.3373 102.747 89.2441 102.374 89.2441 101.937C89.2441 101.473 89.359 101.063 89.5886 100.708C89.8183 100.348 90.139 100.067 90.5506 99.863C90.9623 99.6593 91.4368 99.5575 91.9741 99.5575C92.5505 99.5532 93.0185 99.5293 93.3781 99.486C93.7378 99.4383 94.0455 99.3712 94.3011 99.2845C94.5611 99.1978 94.8255 99.096 95.0941 98.979ZM91.9741 100.357C91.4238 100.357 91.0165 100.507 90.7521 100.806C90.4921 101.1 90.3621 101.477 90.3621 101.937C90.3621 102.4 90.4965 102.782 90.7651 103.081C91.0338 103.38 91.4455 103.529 92.0001 103.529C92.4855 103.529 92.8538 103.388 93.1051 103.107C93.3608 102.825 93.4886 102.433 93.4886 101.93C93.4886 101.414 93.3608 101.024 93.1051 100.76C92.8538 100.491 92.4768 100.357 91.9741 100.357ZM105.744 95.69C106.108 95.69 106.457 95.7225 106.79 95.7875C107.124 95.8482 107.419 95.9543 107.674 96.106C107.93 96.2577 108.123 96.4657 108.253 96.73C108.387 96.99 108.431 97.3193 108.383 97.718L108.123 100.201C108.088 100.496 108.125 100.745 108.233 100.949C108.346 101.152 108.55 101.306 108.844 101.41C109.139 101.514 109.553 101.566 110.086 101.566V102.437C109.557 102.437 109.143 102.491 108.844 102.6C108.55 102.704 108.346 102.857 108.233 103.061C108.125 103.265 108.088 103.516 108.123 103.815L108.383 106.285C108.426 106.684 108.383 107.013 108.253 107.273C108.123 107.537 107.93 107.745 107.674 107.897C107.423 108.049 107.128 108.155 106.79 108.216C106.457 108.281 106.108 108.313 105.744 108.313V107.455C106.06 107.455 106.346 107.425 106.602 107.364C106.862 107.303 107.063 107.197 107.206 107.046C107.349 106.894 107.408 106.684 107.382 106.415L107.109 103.75C107.07 103.364 107.092 103.055 107.174 102.821C107.256 102.582 107.404 102.4 107.616 102.275C107.833 102.149 108.116 102.062 108.467 102.015C108.129 101.958 107.852 101.861 107.635 101.722C107.423 101.583 107.274 101.395 107.187 101.157C107.1 100.918 107.074 100.617 107.109 100.253L107.382 97.588C107.408 97.3237 107.349 97.1157 107.206 96.964C107.063 96.8123 106.864 96.7062 106.608 96.6455C106.353 96.5805 106.065 96.548 105.744 96.548V95.69Z" fill="black"/>
<path d="M294.095 95.69V96.548C293.779 96.548 293.491 96.5805 293.231 96.6455C292.975 96.7062 292.776 96.8123 292.633 96.964C292.494 97.1157 292.435 97.3237 292.457 97.588L292.73 100.253C292.769 100.617 292.747 100.918 292.665 101.157C292.583 101.395 292.444 101.581 292.249 101.716C292.058 101.85 291.814 101.945 291.515 102.002C291.818 102.054 292.067 102.145 292.262 102.275C292.457 102.4 292.594 102.582 292.672 102.821C292.75 103.055 292.769 103.364 292.73 103.75L292.457 106.415C292.435 106.684 292.494 106.894 292.633 107.046C292.771 107.197 292.971 107.303 293.231 107.364C293.491 107.425 293.779 107.455 294.095 107.455V108.313C293.731 108.313 293.382 108.281 293.049 108.216C292.715 108.155 292.42 108.049 292.165 107.897C291.909 107.745 291.716 107.537 291.586 107.273C291.456 107.013 291.413 106.684 291.456 106.285L291.716 103.815C291.751 103.516 291.723 103.265 291.632 103.061C291.545 102.857 291.354 102.704 291.06 102.6C290.769 102.491 290.334 102.437 289.753 102.437V101.566C290.334 101.566 290.769 101.514 291.06 101.41C291.354 101.306 291.545 101.152 291.632 100.949C291.723 100.745 291.751 100.496 291.716 100.201L291.456 97.718C291.413 97.3193 291.456 96.99 291.586 96.73C291.716 96.4657 291.907 96.2577 292.158 96.106C292.414 95.9543 292.708 95.8482 293.042 95.7875C293.38 95.7225 293.731 95.69 294.095 95.69ZM306.214 100.598C306.465 100.268 306.753 100.015 307.078 99.837C307.408 99.655 307.77 99.564 308.164 99.564C308.775 99.564 309.269 99.7113 309.646 100.006C310.023 100.301 310.298 100.717 310.471 101.254C310.645 101.787 310.731 102.411 310.731 103.126C310.731 103.815 310.627 104.43 310.419 104.972C310.211 105.509 309.906 105.932 309.503 106.24C309.104 106.547 308.61 106.701 308.021 106.701C307.228 106.701 306.606 106.415 306.155 105.843L306.077 106.552H305.122V96.951L306.214 96.8145V100.598ZM307.761 105.817C308.333 105.817 308.773 105.596 309.08 105.154C309.388 104.712 309.542 104.034 309.542 103.12C309.542 102.522 309.481 102.025 309.36 101.631C309.239 101.232 309.057 100.936 308.814 100.741C308.576 100.541 308.281 100.442 307.93 100.442C307.549 100.442 307.213 100.556 306.922 100.786C306.636 101.011 306.4 101.263 306.214 101.54V104.933C306.392 105.202 306.615 105.416 306.883 105.577C307.156 105.737 307.449 105.817 307.761 105.817ZM314.451 105.642C314.451 105.36 314.551 105.115 314.75 104.907C314.954 104.699 315.203 104.595 315.497 104.595C315.801 104.595 316.052 104.699 316.251 104.907C316.455 105.115 316.557 105.36 316.557 105.642C316.557 105.936 316.455 106.188 316.251 106.396C316.052 106.599 315.801 106.701 315.497 106.701C315.203 106.701 314.954 106.599 314.75 106.396C314.551 106.188 314.451 105.936 314.451 105.642ZM314.451 100.955C314.451 100.756 314.496 100.578 314.587 100.422C314.678 100.266 314.804 100.143 314.964 100.052C315.125 99.9562 315.302 99.9085 315.497 99.9085C315.801 99.9085 316.052 100.01 316.251 100.214C316.455 100.418 316.557 100.665 316.557 100.955C316.557 101.241 316.455 101.49 316.251 101.703C316.052 101.911 315.801 102.015 315.497 102.015C315.203 102.015 314.954 101.911 314.75 101.703C314.551 101.49 314.451 101.241 314.451 100.955ZM328.507 106.552V99.707H329.436L329.521 100.656C329.798 100.305 330.145 100.036 330.561 99.85C330.981 99.6593 331.388 99.564 331.783 99.564C332.454 99.564 332.942 99.7417 333.245 100.097C333.553 100.452 333.707 100.946 333.707 101.579V106.552H332.615V102.385C332.615 101.917 332.589 101.54 332.537 101.254C332.485 100.964 332.376 100.754 332.212 100.624C332.047 100.489 331.791 100.422 331.445 100.422C331.176 100.422 330.923 100.481 330.684 100.598C330.45 100.715 330.24 100.862 330.054 101.04C329.872 101.213 329.72 101.388 329.599 101.566V106.552H328.507ZM337.394 99.707V104.556C337.394 105.007 337.487 105.332 337.673 105.531C337.859 105.73 338.15 105.83 338.544 105.83C338.921 105.83 339.276 105.724 339.61 105.512C339.948 105.295 340.21 105.039 340.397 104.745V99.707H341.489V106.552H340.559L340.468 105.629C340.199 105.975 339.868 106.242 339.474 106.428C339.079 106.61 338.681 106.701 338.278 106.701C337.615 106.701 337.118 106.526 336.789 106.175C336.464 105.819 336.302 105.323 336.302 104.686V99.707H337.394ZM348.608 99.564C348.829 99.564 349.039 99.6117 349.238 99.707C349.442 99.8023 349.609 99.9865 349.739 100.26C349.869 100.533 349.934 100.931 349.934 101.456V106.552H348.92V101.631C348.92 101.202 348.894 100.892 348.842 100.702C348.79 100.511 348.64 100.416 348.393 100.416C348.189 100.416 347.986 100.481 347.782 100.611C347.583 100.736 347.388 100.944 347.197 101.235V106.552H346.177V101.631C346.177 101.202 346.151 100.892 346.099 100.702C346.047 100.511 345.897 100.416 345.65 100.416C345.438 100.416 345.232 100.481 345.033 100.611C344.838 100.736 344.645 100.944 344.454 101.235V106.552H343.447V99.707H344.305L344.37 100.5C344.556 100.236 344.764 100.015 344.994 99.837C345.228 99.655 345.516 99.564 345.858 99.564C346.118 99.564 346.363 99.6268 346.593 99.7525C346.822 99.8738 346.991 100.112 347.1 100.468C347.286 100.199 347.496 99.9822 347.73 99.8175C347.964 99.6485 348.257 99.564 348.608 99.564ZM352.983 100.598C353.235 100.268 353.523 100.015 353.848 99.837C354.177 99.655 354.539 99.564 354.933 99.564C355.544 99.564 356.038 99.7113 356.415 100.006C356.792 100.301 357.068 100.717 357.241 101.254C357.414 101.787 357.501 102.411 357.501 103.126C357.501 103.815 357.397 104.43 357.189 104.972C356.981 105.509 356.675 105.932 356.272 106.24C355.874 106.547 355.38 106.701 354.79 106.701C353.997 106.701 353.376 106.415 352.925 105.843L352.847 106.552H351.891V96.951L352.983 96.8145V100.598ZM354.53 105.817C355.102 105.817 355.542 105.596 355.85 105.154C356.158 104.712 356.311 104.034 356.311 103.12C356.311 102.522 356.251 102.025 356.129 101.631C356.008 101.232 355.826 100.936 355.583 100.741C355.345 100.541 355.05 100.442 354.699 100.442C354.318 100.442 353.982 100.556 353.692 100.786C353.406 101.011 353.17 101.263 352.983 101.54V104.933C353.161 105.202 353.384 105.416 353.653 105.577C353.926 105.737 354.218 105.817 354.53 105.817ZM360.544 103.516C360.566 104.045 360.668 104.478 360.85 104.816C361.032 105.15 361.272 105.397 361.571 105.557C361.87 105.713 362.195 105.791 362.546 105.791C362.897 105.791 363.214 105.739 363.495 105.635C363.781 105.531 364.074 105.377 364.373 105.174L364.886 105.895C364.566 106.146 364.2 106.344 363.788 106.487C363.381 106.63 362.962 106.701 362.533 106.701C361.87 106.701 361.305 106.552 360.837 106.253C360.369 105.954 360.011 105.538 359.764 105.005C359.522 104.467 359.4 103.845 359.4 103.139C359.4 102.446 359.524 101.83 359.771 101.293C360.018 100.756 360.365 100.333 360.811 100.026C361.257 99.7178 361.784 99.564 362.39 99.564C362.967 99.564 363.463 99.7005 363.879 99.9735C364.295 100.242 364.613 100.628 364.834 101.131C365.06 101.629 365.172 102.225 365.172 102.918C365.172 103.035 365.17 103.146 365.166 103.25C365.162 103.349 365.155 103.438 365.146 103.516H360.544ZM362.403 100.461C361.896 100.461 361.472 100.641 361.129 101.001C360.791 101.36 360.599 101.917 360.551 102.671H364.119C364.106 101.939 363.946 101.388 363.638 101.02C363.331 100.647 362.919 100.461 362.403 100.461ZM367.546 106.552V105.713H368.612V100.546H367.546V99.707H369.444L369.646 101.326C369.91 100.762 370.231 100.327 370.608 100.019C370.985 99.7113 371.483 99.5575 372.103 99.5575C372.293 99.5575 372.462 99.5727 372.61 99.603C372.761 99.629 372.915 99.6637 373.071 99.707L372.753 100.682C372.61 100.643 372.48 100.615 372.363 100.598C372.246 100.576 372.111 100.565 371.96 100.565C371.435 100.565 370.985 100.751 370.608 101.124C370.231 101.497 369.93 102.06 369.704 102.814V105.713H371.095V106.552H367.546ZM372.018 102.021V100.533L372.129 99.707H373.071L372.915 102.021H372.018ZM383.695 95.69C384.059 95.69 384.408 95.7225 384.742 95.7875C385.075 95.8482 385.37 95.9543 385.626 96.106C385.881 96.2577 386.074 96.4657 386.204 96.73C386.338 96.99 386.382 97.3193 386.334 97.718L386.074 100.201C386.039 100.496 386.076 100.745 386.185 100.949C386.297 101.152 386.501 101.306 386.796 101.41C387.09 101.514 387.504 101.566 388.037 101.566V102.437C387.508 102.437 387.095 102.491 386.796 102.6C386.501 102.704 386.297 102.857 386.185 103.061C386.076 103.265 386.039 103.516 386.074 103.815L386.334 106.285C386.377 106.684 386.334 107.013 386.204 107.273C386.074 107.537 385.881 107.745 385.626 107.897C385.374 108.049 385.08 108.155 384.742 108.216C384.408 108.281 384.059 108.313 383.695 108.313V107.455C384.011 107.455 384.297 107.425 384.553 107.364C384.813 107.303 385.015 107.197 385.158 107.046C385.301 106.894 385.359 106.684 385.333 106.415L385.06 103.75C385.021 103.364 385.043 103.055 385.125 102.821C385.207 102.582 385.355 102.4 385.567 102.275C385.784 102.149 386.068 102.062 386.419 102.015C386.081 101.958 385.803 101.861 385.587 101.722C385.374 101.583 385.225 101.395 385.138 101.157C385.051 100.918 385.025 100.617 385.06 100.253L385.333 97.588C385.359 97.3237 385.301 97.1157 385.158 96.964C385.015 96.8123 384.815 96.7062 384.56 96.6455C384.304 96.5805 384.016 96.548 383.695 96.548V95.69Z" fill="black"/>
<path d="M158.364 70.815V71.673C158.048 71.673 157.76 71.7055 157.5 71.7705C157.244 71.8312 157.045 71.9373 156.902 72.089C156.763 72.2407 156.704 72.4487 156.726 72.713L156.999 75.378C157.038 75.742 157.016 76.0432 156.934 76.2815C156.852 76.5198 156.713 76.7062 156.518 76.8405C156.327 76.9748 156.083 77.0702 155.784 77.1265C156.087 77.1785 156.336 77.2695 156.531 77.3995C156.726 77.5252 156.863 77.7072 156.941 77.9455C157.019 78.1795 157.038 78.4893 156.999 78.875L156.726 81.54C156.704 81.8087 156.763 82.0188 156.902 82.1705C157.04 82.3222 157.24 82.4283 157.5 82.489C157.76 82.5497 158.048 82.58 158.364 82.58V83.438C158 83.438 157.651 83.4055 157.318 83.3405C156.984 83.2798 156.689 83.1737 156.434 83.022C156.178 82.8703 155.985 82.6623 155.855 82.398C155.725 82.138 155.682 81.8087 155.725 81.41L155.985 78.94C156.02 78.641 155.992 78.3897 155.901 78.186C155.814 77.9823 155.623 77.8285 155.329 77.7245C155.038 77.6162 154.603 77.562 154.022 77.562V76.691C154.603 76.691 155.038 76.639 155.329 76.535C155.623 76.431 155.814 76.2772 155.901 76.0735C155.992 75.8698 156.02 75.6207 155.985 75.326L155.725 72.843C155.682 72.4443 155.725 72.115 155.855 71.855C155.985 71.5907 156.176 71.3827 156.427 71.231C156.683 71.0793 156.977 70.9732 157.311 70.9125C157.649 70.8475 158 70.815 158.364 70.815ZM174.292 97.1815C174.292 97.4545 174.337 97.6538 174.428 97.7795C174.519 97.9052 174.66 97.9983 174.851 98.059L174.584 98.826C174.29 98.787 174.032 98.6938 173.811 98.5465C173.59 98.3948 173.43 98.1673 173.33 97.864C173.083 98.1803 172.775 98.4208 172.407 98.5855C172.039 98.7458 171.631 98.826 171.185 98.826C170.5 98.826 169.961 98.6332 169.566 98.2475C169.172 97.8618 168.975 97.3505 168.975 96.7135C168.975 96.0072 169.25 95.4655 169.8 95.0885C170.351 94.7115 171.146 94.523 172.186 94.523H173.193V93.951C173.193 93.457 173.048 93.1082 172.758 92.9045C172.472 92.6965 172.073 92.5925 171.562 92.5925C171.337 92.5925 171.072 92.6207 170.769 92.677C170.466 92.729 170.136 92.8178 169.781 92.9435L169.495 92.118C169.915 91.962 170.31 91.8515 170.678 91.7865C171.046 91.7215 171.397 91.689 171.731 91.689C172.585 91.689 173.224 91.8883 173.648 92.287C174.077 92.6813 174.292 93.2187 174.292 93.899V97.1815ZM171.464 97.994C171.802 97.994 172.125 97.9095 172.433 97.7405C172.741 97.5672 172.994 97.3288 173.193 97.0255V95.264H172.205C171.451 95.264 170.918 95.394 170.606 95.654C170.299 95.914 170.145 96.2628 170.145 96.7005C170.145 97.1252 170.253 97.448 170.47 97.669C170.691 97.8857 171.022 97.994 171.464 97.994ZM178.72 97.7665C178.72 97.4848 178.82 97.24 179.019 97.032C179.223 96.824 179.472 96.72 179.766 96.72C180.07 96.72 180.321 96.824 180.52 97.032C180.724 97.24 180.826 97.4848 180.826 97.7665C180.826 98.0612 180.724 98.3125 180.52 98.5205C180.321 98.7242 180.07 98.826 179.766 98.826C179.472 98.826 179.223 98.7242 179.019 98.5205C178.82 98.3125 178.72 98.0612 178.72 97.7665ZM178.72 93.08C178.72 92.8807 178.765 92.703 178.856 92.547C178.947 92.391 179.073 92.2675 179.233 92.1765C179.394 92.0812 179.571 92.0335 179.766 92.0335C180.07 92.0335 180.321 92.1353 180.52 92.339C180.724 92.5427 180.826 92.7897 180.826 93.08C180.826 93.366 180.724 93.6152 180.52 93.8275C180.321 94.0355 180.07 94.1395 179.766 94.1395C179.472 94.1395 179.223 94.0355 179.019 93.8275C178.82 93.6152 178.72 93.366 178.72 93.08ZM195.103 97.9225C195.627 97.9225 196.041 97.825 196.344 97.63C196.652 97.4307 196.806 97.1663 196.806 96.837C196.806 96.629 196.767 96.4492 196.689 96.2975C196.615 96.1458 196.461 96.0093 196.227 95.888C195.993 95.7667 195.634 95.6453 195.148 95.524C194.676 95.407 194.264 95.2727 193.913 95.121C193.567 94.965 193.296 94.7635 193.101 94.5165C192.91 94.2695 192.815 93.9488 192.815 93.5545C192.815 93.1688 192.923 92.8373 193.14 92.56C193.361 92.2783 193.666 92.0638 194.056 91.9165C194.446 91.7648 194.899 91.689 195.415 91.689C195.965 91.689 196.444 91.7627 196.851 91.91C197.263 92.053 197.612 92.2307 197.898 92.443L197.417 93.184C197.157 93.0063 196.871 92.8612 196.559 92.7485C196.247 92.6315 195.87 92.573 195.428 92.573C194.89 92.573 194.509 92.6575 194.284 92.8265C194.058 92.9912 193.946 93.2057 193.946 93.47C193.946 93.6693 194 93.8362 194.108 93.9705C194.221 94.1005 194.409 94.2197 194.674 94.328C194.938 94.432 195.302 94.5468 195.766 94.6725C196.212 94.7895 196.6 94.9303 196.929 95.095C197.263 95.2597 197.523 95.4763 197.709 95.745C197.896 96.0137 197.989 96.3603 197.989 96.785C197.989 97.2703 197.85 97.6647 197.573 97.968C197.295 98.267 196.936 98.4858 196.494 98.6245C196.056 98.7588 195.592 98.826 195.103 98.826C194.483 98.826 193.954 98.7372 193.517 98.5595C193.083 98.3775 192.719 98.1587 192.425 97.903L193.049 97.1815C193.317 97.4025 193.625 97.5823 193.972 97.721C194.323 97.8553 194.7 97.9225 195.103 97.9225ZM206.005 98.332C205.771 98.488 205.487 98.6093 205.153 98.696C204.819 98.7827 204.492 98.826 204.172 98.826C203.435 98.826 202.867 98.6332 202.469 98.2475C202.07 97.8618 201.871 97.3657 201.871 96.759V92.677H200.298V91.832H201.871V90.2785L202.963 90.1485V91.832H205.329L205.199 92.677H202.963V96.746C202.963 97.1273 203.062 97.4177 203.262 97.617C203.465 97.8163 203.801 97.916 204.269 97.916C204.525 97.916 204.761 97.8857 204.978 97.825C205.194 97.7643 205.396 97.6863 205.582 97.591L206.005 98.332ZM208.431 98.6765V97.838H209.497V92.6705H208.431V91.832H210.329L210.53 93.4505C210.794 92.8872 211.115 92.4517 211.492 92.144C211.869 91.8363 212.367 91.6825 212.987 91.6825C213.178 91.6825 213.347 91.6977 213.494 91.728C213.646 91.754 213.8 91.7887 213.956 91.832L213.637 92.807C213.494 92.768 213.364 92.7398 213.247 92.7225C213.13 92.7008 212.996 92.69 212.844 92.69C212.32 92.69 211.869 92.8763 211.492 93.249C211.115 93.6217 210.814 94.185 210.589 94.939V97.838H211.98V98.6765H208.431ZM212.903 94.146V92.6575L213.013 91.832H213.956L213.8 94.146H212.903ZM219.625 91.832V97.812H221.556V98.6765H216.421V97.812H218.533V92.6965H216.486V91.832H219.625ZM218.754 88.6275C218.997 88.6275 219.19 88.7012 219.333 88.8485C219.48 88.9958 219.554 89.1757 219.554 89.388C219.554 89.609 219.48 89.7953 219.333 89.947C219.19 90.0943 218.997 90.168 218.754 90.168C218.524 90.168 218.336 90.0943 218.189 89.947C218.041 89.7953 217.968 89.609 217.968 89.388C217.968 89.1757 218.041 88.9958 218.189 88.8485C218.336 88.7012 218.524 88.6275 218.754 88.6275ZM223.955 98.6765V91.832H224.885L224.969 92.781C225.247 92.43 225.593 92.1613 226.009 91.975C226.43 91.7843 226.837 91.689 227.231 91.689C227.903 91.689 228.391 91.8667 228.694 92.222C229.002 92.5773 229.155 93.0713 229.155 93.704V98.6765H228.063V94.51C228.063 94.042 228.037 93.665 227.985 93.379C227.933 93.0887 227.825 92.8785 227.66 92.7485C227.496 92.6142 227.24 92.547 226.893 92.547C226.625 92.547 226.371 92.6055 226.133 92.7225C225.899 92.8395 225.689 92.9868 225.502 93.1645C225.32 93.3378 225.169 93.5133 225.047 93.691V98.6765H223.955ZM237.314 91.104L237.652 92.131C237.362 92.222 237.052 92.2783 236.723 92.3C236.394 92.3217 236.036 92.3325 235.65 92.3325C236.045 92.5145 236.342 92.7507 236.541 93.041C236.74 93.327 236.84 93.665 236.84 94.055C236.84 94.5057 236.738 94.9065 236.534 95.2575C236.331 95.6085 236.036 95.8837 235.65 96.083C235.269 96.2823 234.808 96.382 234.266 96.382C234.036 96.382 233.843 96.3712 233.687 96.3495C233.536 96.3278 233.388 96.2953 233.245 96.252C233.141 96.3213 233.055 96.4167 232.985 96.538C232.92 96.6593 232.888 96.785 232.888 96.915C232.888 97.0797 232.953 97.2162 233.083 97.3245C233.213 97.4328 233.453 97.487 233.804 97.487H235.039C235.499 97.487 235.91 97.5693 236.274 97.734C236.643 97.8987 236.931 98.1197 237.139 98.397C237.351 98.6743 237.457 98.9907 237.457 99.346C237.457 100.018 237.171 100.533 236.599 100.893C236.032 101.253 235.228 101.433 234.188 101.433C233.46 101.433 232.886 101.357 232.465 101.205C232.045 101.058 231.744 100.83 231.562 100.523C231.384 100.219 231.295 99.8357 231.295 99.372H232.283C232.283 99.6363 232.335 99.8552 232.439 100.029C232.543 100.202 232.732 100.33 233.005 100.412C233.278 100.499 233.67 100.542 234.181 100.542C234.684 100.542 235.094 100.499 235.41 100.412C235.731 100.33 235.967 100.204 236.118 100.035C236.274 99.8703 236.352 99.6645 236.352 99.4175C236.352 99.0925 236.205 98.8477 235.91 98.683C235.616 98.5183 235.247 98.436 234.805 98.436H233.583C232.994 98.436 232.559 98.306 232.277 98.046C232 97.786 231.861 97.487 231.861 97.149C231.861 96.928 231.924 96.7135 232.049 96.5055C232.179 96.2975 232.368 96.1133 232.615 95.953C232.221 95.745 231.93 95.4872 231.744 95.1795C231.558 94.8718 231.464 94.4992 231.464 94.0615C231.464 93.5978 231.579 93.1883 231.809 92.833C232.039 92.4733 232.359 92.1917 232.771 91.988C233.183 91.7843 233.657 91.6825 234.194 91.6825C234.771 91.6782 235.239 91.6543 235.598 91.611C235.958 91.5633 236.266 91.4962 236.521 91.4095C236.781 91.3228 237.046 91.221 237.314 91.104ZM234.194 92.482C233.644 92.482 233.237 92.6315 232.972 92.9305C232.712 93.2252 232.582 93.6022 232.582 94.0615C232.582 94.5252 232.717 94.9065 232.985 95.2055C233.254 95.5045 233.666 95.654 234.22 95.654C234.706 95.654 235.074 95.5132 235.325 95.2315C235.581 94.9498 235.709 94.5577 235.709 94.055C235.709 93.5393 235.581 93.1493 235.325 92.885C235.074 92.6163 234.697 92.482 234.194 92.482ZM242.139 96.538C242.438 96.538 242.687 96.6398 242.886 96.8435C243.09 97.0472 243.192 97.292 243.192 97.578C243.192 97.734 243.172 97.8922 243.133 98.0525C243.099 98.2128 243.034 98.3948 242.938 98.5985L241.885 101.01H240.897L241.521 98.4425C241.391 98.3472 241.287 98.2237 241.209 98.072C241.136 97.916 241.099 97.7513 241.099 97.578C241.099 97.2877 241.198 97.0428 241.398 96.8435C241.597 96.6398 241.844 96.538 242.139 96.538ZM170.483 109.723C170.734 109.393 171.022 109.14 171.347 108.962C171.677 108.78 172.039 108.689 172.433 108.689C173.044 108.689 173.538 108.836 173.915 109.131C174.292 109.426 174.567 109.842 174.74 110.379C174.914 110.912 175 111.536 175 112.251C175 112.94 174.896 113.555 174.688 114.097C174.48 114.634 174.175 115.057 173.772 115.365C173.373 115.672 172.879 115.826 172.29 115.826C171.497 115.826 170.875 115.54 170.424 114.968L170.346 115.677H169.391V106.076L170.483 105.94V109.723ZM172.03 114.942C172.602 114.942 173.042 114.721 173.349 114.279C173.657 113.837 173.811 113.159 173.811 112.245C173.811 111.647 173.75 111.15 173.629 110.756C173.508 110.357 173.326 110.061 173.083 109.866C172.845 109.666 172.55 109.567 172.199 109.567C171.818 109.567 171.482 109.681 171.191 109.911C170.905 110.136 170.669 110.388 170.483 110.665V114.058C170.661 114.327 170.884 114.541 171.152 114.702C171.425 114.862 171.718 114.942 172.03 114.942ZM178.72 114.767C178.72 114.485 178.82 114.24 179.019 114.032C179.223 113.824 179.472 113.72 179.766 113.72C180.07 113.72 180.321 113.824 180.52 114.032C180.724 114.24 180.826 114.485 180.826 114.767C180.826 115.061 180.724 115.313 180.52 115.521C180.321 115.724 180.07 115.826 179.766 115.826C179.472 115.826 179.223 115.724 179.019 115.521C178.82 115.313 178.72 115.061 178.72 114.767ZM178.72 110.08C178.72 109.881 178.765 109.703 178.856 109.547C178.947 109.391 179.073 109.268 179.233 109.177C179.394 109.081 179.571 109.034 179.766 109.034C180.07 109.034 180.321 109.135 180.52 109.339C180.724 109.543 180.826 109.79 180.826 110.08C180.826 110.366 180.724 110.615 180.52 110.828C180.321 111.036 180.07 111.14 179.766 111.14C179.472 111.14 179.223 111.036 179.019 110.828C178.82 110.615 178.72 110.366 178.72 110.08ZM192.776 115.677V108.832H193.705L193.79 109.781C194.067 109.43 194.414 109.161 194.83 108.975C195.25 108.784 195.657 108.689 196.052 108.689C196.723 108.689 197.211 108.867 197.514 109.222C197.822 109.577 197.976 110.071 197.976 110.704V115.677H196.884V111.51C196.884 111.042 196.858 110.665 196.806 110.379C196.754 110.089 196.645 109.879 196.481 109.749C196.316 109.614 196.06 109.547 195.714 109.547C195.445 109.547 195.192 109.606 194.953 109.723C194.719 109.84 194.509 109.987 194.323 110.165C194.141 110.338 193.989 110.513 193.868 110.691V115.677H192.776ZM201.663 108.832V113.681C201.663 114.132 201.756 114.457 201.942 114.656C202.128 114.855 202.419 114.955 202.813 114.955C203.19 114.955 203.545 114.849 203.879 114.637C204.217 114.42 204.479 114.164 204.666 113.87V108.832H205.758V115.677H204.828L204.737 114.754C204.468 115.1 204.137 115.367 203.743 115.553C203.348 115.735 202.95 115.826 202.547 115.826C201.884 115.826 201.387 115.651 201.058 115.3C200.733 114.944 200.571 114.448 200.571 113.811V108.832H201.663ZM212.877 108.689C213.098 108.689 213.308 108.737 213.507 108.832C213.711 108.927 213.878 109.112 214.008 109.385C214.138 109.658 214.203 110.056 214.203 110.581V115.677H213.189V110.756C213.189 110.327 213.163 110.017 213.111 109.827C213.059 109.636 212.909 109.541 212.662 109.541C212.458 109.541 212.255 109.606 212.051 109.736C211.852 109.861 211.657 110.069 211.466 110.36V115.677H210.446V110.756C210.446 110.327 210.42 110.017 210.368 109.827C210.316 109.636 210.166 109.541 209.919 109.541C209.707 109.541 209.501 109.606 209.302 109.736C209.107 109.861 208.914 110.069 208.723 110.36V115.677H207.716V108.832H208.574L208.639 109.625C208.825 109.361 209.033 109.14 209.263 108.962C209.497 108.78 209.785 108.689 210.127 108.689C210.387 108.689 210.632 108.752 210.862 108.878C211.091 108.999 211.26 109.237 211.369 109.593C211.555 109.324 211.765 109.107 211.999 108.943C212.233 108.774 212.526 108.689 212.877 108.689ZM217.253 109.723C217.504 109.393 217.792 109.14 218.117 108.962C218.446 108.78 218.808 108.689 219.203 108.689C219.814 108.689 220.308 108.836 220.685 109.131C221.062 109.426 221.337 109.842 221.51 110.379C221.683 110.912 221.77 111.536 221.77 112.251C221.77 112.94 221.666 113.555 221.458 114.097C221.25 114.634 220.945 115.057 220.542 115.365C220.143 115.672 219.649 115.826 219.06 115.826C218.267 115.826 217.645 115.54 217.194 114.968L217.116 115.677H216.161V106.076L217.253 105.94V109.723ZM218.8 114.942C219.372 114.942 219.811 114.721 220.119 114.279C220.427 113.837 220.581 113.159 220.581 112.245C220.581 111.647 220.52 111.15 220.399 110.756C220.277 110.357 220.095 110.061 219.853 109.866C219.614 109.666 219.32 109.567 218.969 109.567C218.587 109.567 218.251 109.681 217.961 109.911C217.675 110.136 217.439 110.388 217.253 110.665V114.058C217.43 114.327 217.653 114.541 217.922 114.702C218.195 114.862 218.488 114.942 218.8 114.942ZM224.813 112.641C224.835 113.17 224.937 113.603 225.119 113.941C225.301 114.275 225.541 114.522 225.84 114.682C226.139 114.838 226.464 114.916 226.815 114.916C227.166 114.916 227.483 114.864 227.764 114.76C228.05 114.656 228.343 114.502 228.642 114.299L229.155 115.02C228.835 115.271 228.469 115.469 228.057 115.612C227.65 115.755 227.231 115.826 226.802 115.826C226.139 115.826 225.574 115.677 225.106 115.378C224.638 115.079 224.28 114.663 224.033 114.13C223.791 113.592 223.669 112.97 223.669 112.264C223.669 111.571 223.793 110.955 224.04 110.418C224.287 109.881 224.634 109.458 225.08 109.151C225.526 108.843 226.053 108.689 226.659 108.689C227.236 108.689 227.732 108.826 228.148 109.099C228.564 109.367 228.882 109.753 229.103 110.256C229.329 110.754 229.441 111.35 229.441 112.043C229.441 112.16 229.439 112.271 229.435 112.375C229.431 112.474 229.424 112.563 229.415 112.641H224.813ZM226.672 109.586C226.165 109.586 225.741 109.766 225.398 110.126C225.06 110.485 224.868 111.042 224.82 111.796H228.388C228.375 111.064 228.215 110.513 227.907 110.145C227.6 109.772 227.188 109.586 226.672 109.586ZM231.815 115.677V114.838H232.881V109.671H231.815V108.832H233.713L233.915 110.451C234.179 109.887 234.5 109.452 234.877 109.144C235.254 108.836 235.752 108.683 236.372 108.683C236.563 108.683 236.732 108.698 236.879 108.728C237.031 108.754 237.184 108.789 237.34 108.832L237.022 109.807C236.879 109.768 236.749 109.74 236.632 109.723C236.515 109.701 236.381 109.69 236.229 109.69C235.705 109.69 235.254 109.876 234.877 110.249C234.5 110.622 234.199 111.185 233.973 111.939V114.838H235.364V115.677H231.815ZM236.287 111.146V109.658L236.398 108.832H237.34L237.184 111.146H236.287ZM154.425 121.815C154.789 121.815 155.138 121.848 155.472 121.913C155.805 121.973 156.1 122.079 156.356 122.231C156.611 122.383 156.804 122.591 156.934 122.855C157.068 123.115 157.112 123.444 157.064 123.843L156.804 126.326C156.769 126.621 156.806 126.87 156.915 127.074C157.027 127.277 157.231 127.431 157.526 127.535C157.82 127.639 158.234 127.691 158.767 127.691V128.562C158.238 128.562 157.825 128.616 157.526 128.725C157.231 128.829 157.027 128.982 156.915 129.186C156.806 129.39 156.769 129.641 156.804 129.94L157.064 132.41C157.107 132.809 157.064 133.138 156.934 133.398C156.804 133.662 156.611 133.87 156.356 134.022C156.104 134.174 155.81 134.28 155.472 134.341C155.138 134.406 154.789 134.438 154.425 134.438V133.58C154.741 133.58 155.027 133.55 155.283 133.489C155.543 133.428 155.745 133.322 155.888 133.171C156.031 133.019 156.089 132.809 156.063 132.54L155.79 129.875C155.751 129.489 155.773 129.18 155.855 128.946C155.937 128.707 156.085 128.525 156.297 128.4C156.514 128.274 156.798 128.187 157.149 128.14C156.811 128.083 156.533 127.986 156.317 127.847C156.104 127.708 155.955 127.52 155.868 127.282C155.781 127.043 155.755 126.742 155.79 126.378L156.063 123.713C156.089 123.449 156.031 123.241 155.888 123.089C155.745 122.937 155.545 122.831 155.29 122.771C155.034 122.706 154.746 122.673 154.425 122.673V121.815Z" fill="black"/>
</svg>
