<svg width="531" height="239" viewBox="0 0 531 239" fill="none" xmlns="http://www.w3.org/2000/svg">
<path d="M232 91.5C232 141.27 180.527 182 116.5 182C52.4726 182 1 141.27 1 91.5C1 41.7298 52.4726 1 116.5 1C180.527 1 232 41.7298 232 91.5Z" fill="#B1D6FF" fill-opacity="0.5" stroke="#3077C6" stroke-width="2"/>
<path d="M86.708 98.608C87.676 98.608 88.44 98.428 89 98.068C89.568 97.7 89.852 97.212 89.852 96.604C89.852 96.22 89.78 95.888 89.636 95.608C89.5 95.328 89.216 95.076 88.784 94.852C88.352 94.628 87.688 94.404 86.792 94.18C85.92 93.964 85.16 93.716 84.512 93.436C83.872 93.148 83.372 92.776 83.012 92.32C82.66 91.864 82.484 91.272 82.484 90.544C82.484 89.832 82.684 89.22 83.084 88.708C83.492 88.188 84.056 87.792 84.776 87.52C85.496 87.24 86.332 87.1 87.284 87.1C88.3 87.1 89.184 87.236 89.936 87.508C90.696 87.772 91.34 88.1 91.868 88.492L90.98 89.86C90.5 89.532 89.972 89.264 89.396 89.056C88.82 88.84 88.124 88.732 87.308 88.732C86.316 88.732 85.612 88.888 85.196 89.2C84.78 89.504 84.572 89.9 84.572 90.388C84.572 90.756 84.672 91.064 84.872 91.312C85.08 91.552 85.428 91.772 85.916 91.972C86.404 92.164 87.076 92.376 87.932 92.608C88.756 92.824 89.472 93.084 90.08 93.388C90.696 93.692 91.176 94.092 91.52 94.588C91.864 95.084 92.036 95.724 92.036 96.508C92.036 97.404 91.78 98.132 91.268 98.692C90.756 99.244 90.092 99.648 89.276 99.904C88.468 100.152 87.612 100.276 86.708 100.276C85.564 100.276 84.588 100.112 83.78 99.784C82.98 99.448 82.308 99.044 81.764 98.572L82.916 97.24C83.412 97.648 83.98 97.98 84.62 98.236C85.268 98.484 85.964 98.608 86.708 98.608ZM106.835 99.364C106.403 99.652 105.879 99.876 105.263 100.036C104.647 100.196 104.043 100.276 103.451 100.276C102.091 100.276 101.043 99.92 100.307 99.208C99.5706 98.496 99.2026 97.58 99.2026 96.46V88.924H96.2986V87.364H99.2026V84.496L101.219 84.256V87.364H105.587L105.347 88.924H101.219V96.436C101.219 97.14 101.403 97.676 101.771 98.044C102.147 98.412 102.767 98.596 103.631 98.596C104.103 98.596 104.539 98.54 104.939 98.428C105.339 98.316 105.711 98.172 106.055 97.996L106.835 99.364ZM111.313 100V98.452H113.281V88.912H111.313V87.364H114.817L115.189 90.352C115.677 89.312 116.269 88.508 116.965 87.94C117.661 87.372 118.581 87.088 119.725 87.088C120.077 87.088 120.389 87.116 120.661 87.172C120.941 87.22 121.225 87.284 121.513 87.364L120.925 89.164C120.661 89.092 120.421 89.04 120.205 89.008C119.989 88.968 119.741 88.948 119.461 88.948C118.493 88.948 117.661 89.292 116.965 89.98C116.269 90.668 115.713 91.708 115.297 93.1V98.452H117.865V100H111.313ZM119.569 91.636V88.888L119.773 87.364H121.513L121.225 91.636H119.569ZM131.98 87.364V98.404H135.544V100H126.064V98.404H129.964V88.96H126.184V87.364H131.98ZM130.372 81.448C130.82 81.448 131.176 81.584 131.44 81.856C131.712 82.128 131.848 82.46 131.848 82.852C131.848 83.26 131.712 83.604 131.44 83.884C131.176 84.156 130.82 84.292 130.372 84.292C129.948 84.292 129.6 84.156 129.328 83.884C129.056 83.604 128.92 83.26 128.92 82.852C128.92 82.46 129.056 82.128 129.328 81.856C129.6 81.584 129.948 81.448 130.372 81.448ZM139.975 100V87.364H141.691L141.847 89.116C142.359 88.468 142.999 87.972 143.767 87.628C144.543 87.276 145.295 87.1 146.023 87.1C147.263 87.1 148.163 87.428 148.723 88.084C149.291 88.74 149.575 89.652 149.575 90.82V100H147.559V92.308C147.559 91.444 147.511 90.748 147.415 90.22C147.319 89.684 147.119 89.296 146.815 89.056C146.511 88.808 146.039 88.684 145.399 88.684C144.903 88.684 144.435 88.792 143.995 89.008C143.563 89.224 143.175 89.496 142.831 89.824C142.495 90.144 142.215 90.468 141.991 90.796V100H139.975ZM164.637 86.02L165.261 87.916C164.725 88.084 164.153 88.188 163.545 88.228C162.937 88.268 162.277 88.288 161.565 88.288C162.293 88.624 162.841 89.06 163.209 89.596C163.577 90.124 163.761 90.748 163.761 91.468C163.761 92.3 163.573 93.04 163.197 93.688C162.821 94.336 162.277 94.844 161.565 95.212C160.861 95.58 160.009 95.764 159.009 95.764C158.585 95.764 158.229 95.744 157.941 95.704C157.661 95.664 157.389 95.604 157.125 95.524C156.933 95.652 156.773 95.828 156.645 96.052C156.525 96.276 156.465 96.508 156.465 96.748C156.465 97.052 156.585 97.304 156.825 97.504C157.065 97.704 157.509 97.804 158.157 97.804H160.437C161.285 97.804 162.045 97.956 162.717 98.26C163.397 98.564 163.929 98.972 164.313 99.484C164.705 99.996 164.901 100.58 164.901 101.236C164.901 102.476 164.373 103.428 163.317 104.092C162.269 104.756 160.785 105.088 158.865 105.088C157.521 105.088 156.461 104.948 155.685 104.668C154.909 104.396 154.353 103.976 154.017 103.408C153.689 102.848 153.525 102.14 153.525 101.284H155.349C155.349 101.772 155.445 102.176 155.637 102.496C155.829 102.816 156.177 103.052 156.681 103.204C157.185 103.364 157.909 103.444 158.853 103.444C159.781 103.444 160.537 103.364 161.121 103.204C161.713 103.052 162.149 102.82 162.429 102.508C162.717 102.204 162.861 101.824 162.861 101.368C162.861 100.768 162.589 100.316 162.045 100.012C161.501 99.708 160.821 99.556 160.005 99.556H157.749C156.661 99.556 155.857 99.316 155.337 98.836C154.825 98.356 154.569 97.804 154.569 97.18C154.569 96.772 154.685 96.376 154.917 95.992C155.157 95.608 155.505 95.268 155.961 94.972C155.233 94.588 154.697 94.112 154.353 93.544C154.009 92.976 153.837 92.288 153.837 91.48C153.837 90.624 154.049 89.868 154.473 89.212C154.897 88.548 155.489 88.028 156.249 87.652C157.009 87.276 157.885 87.088 158.877 87.088C159.941 87.08 160.805 87.036 161.469 86.956C162.133 86.868 162.701 86.744 163.173 86.584C163.653 86.424 164.141 86.236 164.637 86.02ZM158.877 88.564C157.861 88.564 157.109 88.84 156.621 89.392C156.141 89.936 155.901 90.632 155.901 91.48C155.901 92.336 156.149 93.04 156.645 93.592C157.141 94.144 157.901 94.42 158.925 94.42C159.821 94.42 160.501 94.16 160.965 93.64C161.437 93.12 161.673 92.396 161.673 91.468C161.673 90.516 161.437 89.796 160.965 89.308C160.501 88.812 159.805 88.564 158.877 88.564Z" fill="black"/>
<path d="M201.708 230.608C202.676 230.608 203.44 230.428 204 230.068C204.568 229.7 204.852 229.212 204.852 228.604C204.852 228.22 204.78 227.888 204.636 227.608C204.5 227.328 204.216 227.076 203.784 226.852C203.352 226.628 202.688 226.404 201.792 226.18C200.92 225.964 200.16 225.716 199.512 225.436C198.872 225.148 198.372 224.776 198.012 224.32C197.66 223.864 197.484 223.272 197.484 222.544C197.484 221.832 197.684 221.22 198.084 220.708C198.492 220.188 199.056 219.792 199.776 219.52C200.496 219.24 201.332 219.1 202.284 219.1C203.3 219.1 204.184 219.236 204.936 219.508C205.696 219.772 206.34 220.1 206.868 220.492L205.98 221.86C205.5 221.532 204.972 221.264 204.396 221.056C203.82 220.84 203.124 220.732 202.308 220.732C201.316 220.732 200.612 220.888 200.196 221.2C199.78 221.504 199.572 221.9 199.572 222.388C199.572 222.756 199.672 223.064 199.872 223.312C200.08 223.552 200.428 223.772 200.916 223.972C201.404 224.164 202.076 224.376 202.932 224.608C203.756 224.824 204.472 225.084 205.08 225.388C205.696 225.692 206.176 226.092 206.52 226.588C206.864 227.084 207.036 227.724 207.036 228.508C207.036 229.404 206.78 230.132 206.268 230.692C205.756 231.244 205.092 231.648 204.276 231.904C203.468 232.152 202.612 232.276 201.708 232.276C200.564 232.276 199.588 232.112 198.78 231.784C197.98 231.448 197.308 231.044 196.764 230.572L197.916 229.24C198.412 229.648 198.98 229.98 199.62 230.236C200.268 230.484 200.964 230.608 201.708 230.608ZM221.835 231.364C221.403 231.652 220.879 231.876 220.263 232.036C219.647 232.196 219.043 232.276 218.451 232.276C217.091 232.276 216.043 231.92 215.307 231.208C214.571 230.496 214.203 229.58 214.203 228.46V220.924H211.299V219.364H214.203V216.496L216.219 216.256V219.364H220.587L220.347 220.924H216.219V228.436C216.219 229.14 216.403 229.676 216.771 230.044C217.147 230.412 217.767 230.596 218.631 230.596C219.103 230.596 219.539 230.54 219.939 230.428C220.339 230.316 220.711 230.172 221.055 229.996L221.835 231.364ZM226.313 232V230.452H228.281V220.912H226.313V219.364H229.817L230.189 222.352C230.677 221.312 231.269 220.508 231.965 219.94C232.661 219.372 233.581 219.088 234.725 219.088C235.077 219.088 235.389 219.116 235.661 219.172C235.941 219.22 236.225 219.284 236.513 219.364L235.925 221.164C235.661 221.092 235.421 221.04 235.205 221.008C234.989 220.968 234.741 220.948 234.461 220.948C233.493 220.948 232.661 221.292 231.965 221.98C231.269 222.668 230.713 223.708 230.297 225.1V230.452H232.865V232H226.313ZM234.569 223.636V220.888L234.773 219.364H236.513L236.225 223.636H234.569ZM246.98 219.364V230.404H250.544V232H241.064V230.404H244.964V220.96H241.184V219.364H246.98ZM245.372 213.448C245.82 213.448 246.176 213.584 246.44 213.856C246.712 214.128 246.848 214.46 246.848 214.852C246.848 215.26 246.712 215.604 246.44 215.884C246.176 216.156 245.82 216.292 245.372 216.292C244.948 216.292 244.6 216.156 244.328 215.884C244.056 215.604 243.92 215.26 243.92 214.852C243.92 214.46 244.056 214.128 244.328 213.856C244.6 213.584 244.948 213.448 245.372 213.448ZM254.975 232V219.364H256.691L256.847 221.116C257.359 220.468 257.999 219.972 258.767 219.628C259.543 219.276 260.295 219.1 261.023 219.1C262.263 219.1 263.163 219.428 263.723 220.084C264.291 220.74 264.575 221.652 264.575 222.82V232H262.559V224.308C262.559 223.444 262.511 222.748 262.415 222.22C262.319 221.684 262.119 221.296 261.815 221.056C261.511 220.808 261.039 220.684 260.399 220.684C259.903 220.684 259.435 220.792 258.995 221.008C258.563 221.224 258.175 221.496 257.831 221.824C257.495 222.144 257.215 222.468 256.991 222.796V232H254.975ZM279.637 218.02L280.261 219.916C279.725 220.084 279.153 220.188 278.545 220.228C277.937 220.268 277.277 220.288 276.565 220.288C277.293 220.624 277.841 221.06 278.209 221.596C278.577 222.124 278.761 222.748 278.761 223.468C278.761 224.3 278.573 225.04 278.197 225.688C277.821 226.336 277.277 226.844 276.565 227.212C275.861 227.58 275.009 227.764 274.009 227.764C273.585 227.764 273.229 227.744 272.941 227.704C272.661 227.664 272.389 227.604 272.125 227.524C271.933 227.652 271.773 227.828 271.645 228.052C271.525 228.276 271.465 228.508 271.465 228.748C271.465 229.052 271.585 229.304 271.825 229.504C272.065 229.704 272.509 229.804 273.157 229.804H275.437C276.285 229.804 277.045 229.956 277.717 230.26C278.397 230.564 278.929 230.972 279.313 231.484C279.705 231.996 279.901 232.58 279.901 233.236C279.901 234.476 279.373 235.428 278.317 236.092C277.269 236.756 275.785 237.088 273.865 237.088C272.521 237.088 271.461 236.948 270.685 236.668C269.909 236.396 269.353 235.976 269.017 235.408C268.689 234.848 268.525 234.14 268.525 233.284H270.349C270.349 233.772 270.445 234.176 270.637 234.496C270.829 234.816 271.177 235.052 271.681 235.204C272.185 235.364 272.909 235.444 273.853 235.444C274.781 235.444 275.537 235.364 276.121 235.204C276.713 235.052 277.149 234.82 277.429 234.508C277.717 234.204 277.861 233.824 277.861 233.368C277.861 232.768 277.589 232.316 277.045 232.012C276.501 231.708 275.821 231.556 275.005 231.556H272.749C271.661 231.556 270.857 231.316 270.337 230.836C269.825 230.356 269.569 229.804 269.569 229.18C269.569 228.772 269.685 228.376 269.917 227.992C270.157 227.608 270.505 227.268 270.961 226.972C270.233 226.588 269.697 226.112 269.353 225.544C269.009 224.976 268.837 224.288 268.837 223.48C268.837 222.624 269.049 221.868 269.473 221.212C269.897 220.548 270.489 220.028 271.249 219.652C272.009 219.276 272.885 219.088 273.877 219.088C274.941 219.08 275.805 219.036 276.469 218.956C277.133 218.868 277.701 218.744 278.173 218.584C278.653 218.424 279.141 218.236 279.637 218.02ZM273.877 220.564C272.861 220.564 272.109 220.84 271.621 221.392C271.141 221.936 270.901 222.632 270.901 223.48C270.901 224.336 271.149 225.04 271.645 225.592C272.141 226.144 272.901 226.42 273.925 226.42C274.821 226.42 275.501 226.16 275.965 225.64C276.437 225.12 276.673 224.396 276.673 223.468C276.673 222.516 276.437 221.796 275.965 221.308C275.501 220.812 274.805 220.564 273.877 220.564ZM302.43 215.236C303.15 215.236 303.834 215.352 304.482 215.584C305.13 215.816 305.782 216.292 306.438 217.012L305.226 218.116C304.818 217.652 304.394 217.308 303.954 217.084C303.522 216.86 303.006 216.748 302.406 216.748C301.566 216.748 300.934 216.976 300.51 217.432C300.086 217.88 299.874 218.46 299.874 219.172C299.874 219.66 300.006 220.116 300.27 220.54C300.534 220.956 300.89 221.292 301.338 221.548C301.786 221.804 302.282 221.932 302.826 221.932H309.498V223.516H307.35V230.044C307.11 230.356 306.778 230.684 306.354 231.028C305.938 231.372 305.402 231.668 304.746 231.916C304.09 232.156 303.298 232.276 302.37 232.276C301.122 232.276 300.102 232.036 299.31 231.556C298.526 231.076 297.946 230.46 297.57 229.708C297.202 228.948 297.018 228.156 297.018 227.332C297.018 226.092 297.342 225.076 297.99 224.284C298.646 223.492 299.578 222.972 300.786 222.724V222.652C300.058 222.484 299.482 222.224 299.058 221.872C298.642 221.512 298.342 221.1 298.158 220.636C297.982 220.164 297.894 219.68 297.894 219.184C297.894 218.472 298.078 217.82 298.446 217.228C298.814 216.628 299.338 216.148 300.018 215.788C300.698 215.42 301.502 215.236 302.43 215.236ZM305.514 223.516H302.538C301.706 223.516 301.03 223.712 300.51 224.104C299.99 224.488 299.606 224.968 299.358 225.544C299.118 226.112 298.998 226.684 298.998 227.26C298.998 227.836 299.114 228.384 299.346 228.904C299.586 229.424 299.954 229.844 300.45 230.164C300.954 230.484 301.61 230.644 302.418 230.644C303.09 230.644 303.69 230.536 304.218 230.32C304.754 230.096 305.186 229.78 305.514 229.372V223.516ZM326.928 232V219.364H328.644L328.8 221.116C329.312 220.468 329.952 219.972 330.72 219.628C331.496 219.276 332.248 219.1 332.976 219.1C334.216 219.1 335.116 219.428 335.676 220.084C336.244 220.74 336.528 221.652 336.528 222.82V232H334.512V224.308C334.512 223.444 334.464 222.748 334.368 222.22C334.272 221.684 334.072 221.296 333.768 221.056C333.464 220.808 332.992 220.684 332.352 220.684C331.856 220.684 331.388 220.792 330.948 221.008C330.516 221.224 330.128 221.496 329.784 221.824C329.448 222.144 329.168 222.468 328.944 222.796V232H326.928ZM343.334 219.364V228.316C343.334 229.148 343.506 229.748 343.85 230.116C344.194 230.484 344.73 230.668 345.458 230.668C346.154 230.668 346.81 230.472 347.426 230.08C348.05 229.68 348.534 229.208 348.878 228.664V219.364H350.894V232H349.178L349.01 230.296C348.514 230.936 347.902 231.428 347.174 231.772C346.446 232.108 345.71 232.276 344.966 232.276C343.742 232.276 342.826 231.952 342.218 231.304C341.618 230.648 341.318 229.732 341.318 228.556V219.364H343.334ZM364.037 219.1C364.445 219.1 364.833 219.188 365.201 219.364C365.577 219.54 365.885 219.88 366.125 220.384C366.365 220.888 366.485 221.624 366.485 222.592V232H364.613V222.916C364.613 222.124 364.565 221.552 364.469 221.2C364.373 220.848 364.097 220.672 363.641 220.672C363.265 220.672 362.889 220.792 362.513 221.032C362.145 221.264 361.785 221.648 361.433 222.184V232H359.549V222.916C359.549 222.124 359.501 221.552 359.405 221.2C359.309 220.848 359.033 220.672 358.577 220.672C358.185 220.672 357.805 220.792 357.437 221.032C357.077 221.264 356.721 221.648 356.369 222.184V232H354.509V219.364H356.093L356.213 220.828C356.557 220.34 356.941 219.932 357.365 219.604C357.797 219.268 358.329 219.1 358.961 219.1C359.441 219.1 359.893 219.216 360.317 219.448C360.741 219.672 361.053 220.112 361.253 220.768C361.597 220.272 361.985 219.872 362.417 219.568C362.849 219.256 363.389 219.1 364.037 219.1ZM372.116 221.008C372.58 220.4 373.112 219.932 373.712 219.604C374.32 219.268 374.988 219.1 375.716 219.1C376.844 219.1 377.756 219.372 378.452 219.916C379.148 220.46 379.656 221.228 379.976 222.22C380.296 223.204 380.456 224.356 380.456 225.676C380.456 226.948 380.264 228.084 379.88 229.084C379.496 230.076 378.932 230.856 378.188 231.424C377.452 231.992 376.54 232.276 375.452 232.276C373.988 232.276 372.84 231.748 372.008 230.692L371.864 232H370.1V214.276L372.116 214.024V221.008ZM374.972 230.644C376.028 230.644 376.84 230.236 377.408 229.42C377.976 228.604 378.26 227.352 378.26 225.664C378.26 224.56 378.148 223.644 377.924 222.916C377.7 222.18 377.364 221.632 376.916 221.272C376.476 220.904 375.932 220.72 375.284 220.72C374.58 220.72 373.96 220.932 373.424 221.356C372.896 221.772 372.46 222.236 372.116 222.748V229.012C372.444 229.508 372.856 229.904 373.352 230.2C373.856 230.496 374.396 230.644 374.972 230.644ZM386.074 226.396C386.114 227.372 386.302 228.172 386.638 228.796C386.974 229.412 387.418 229.868 387.97 230.164C388.522 230.452 389.122 230.596 389.77 230.596C390.418 230.596 391.002 230.5 391.522 230.308C392.05 230.116 392.59 229.832 393.142 229.456L394.09 230.788C393.498 231.252 392.822 231.616 392.062 231.88C391.31 232.144 390.538 232.276 389.746 232.276C388.522 232.276 387.478 232 386.614 231.448C385.75 230.896 385.09 230.128 384.634 229.144C384.186 228.152 383.962 227.004 383.962 225.7C383.962 224.42 384.19 223.284 384.646 222.292C385.102 221.3 385.742 220.52 386.566 219.952C387.39 219.384 388.362 219.1 389.482 219.1C390.546 219.1 391.462 219.352 392.23 219.856C392.998 220.352 393.586 221.064 393.994 221.992C394.41 222.912 394.618 224.012 394.618 225.292C394.618 225.508 394.614 225.712 394.606 225.904C394.598 226.088 394.586 226.252 394.57 226.396H386.074ZM389.506 220.756C388.57 220.756 387.786 221.088 387.154 221.752C386.53 222.416 386.174 223.444 386.086 224.836H392.674C392.65 223.484 392.354 222.468 391.786 221.788C391.218 221.1 390.458 220.756 389.506 220.756ZM399.001 232V230.452H400.969V220.912H399.001V219.364H402.505L402.877 222.352C403.365 221.312 403.957 220.508 404.653 219.94C405.349 219.372 406.269 219.088 407.413 219.088C407.765 219.088 408.077 219.116 408.349 219.172C408.629 219.22 408.913 219.284 409.201 219.364L408.613 221.164C408.349 221.092 408.109 221.04 407.893 221.008C407.677 220.968 407.429 220.948 407.149 220.948C406.181 220.948 405.349 221.292 404.653 221.98C403.957 222.668 403.401 223.708 402.985 225.1V230.452H405.553V232H399.001ZM407.257 223.636V220.888L407.461 219.364H409.201L408.913 223.636H407.257ZM418.047 215.212C419.031 215.212 419.875 215.388 420.579 215.74C421.291 216.092 421.835 216.552 422.211 217.12C422.587 217.68 422.775 218.276 422.775 218.908C422.775 219.676 422.631 220.304 422.343 220.792C422.055 221.272 421.695 221.68 421.263 222.016C420.839 222.344 420.411 222.668 419.979 222.988C419.547 223.3 419.183 223.668 418.887 224.092C418.599 224.516 418.455 225.06 418.455 225.724V226.552H416.427V225.604C416.427 224.828 416.567 224.184 416.847 223.672C417.135 223.16 417.491 222.724 417.915 222.364C418.339 222.004 418.763 221.672 419.187 221.368C419.611 221.056 419.967 220.72 420.255 220.36C420.543 220 420.687 219.556 420.687 219.028C420.687 218.348 420.415 217.824 419.871 217.456C419.327 217.08 418.651 216.892 417.843 216.892C417.275 216.892 416.691 217.032 416.091 217.312C415.491 217.584 414.943 218.028 414.447 218.644L413.007 217.588C413.711 216.764 414.483 216.164 415.323 215.788C416.171 215.404 417.079 215.212 418.047 215.212ZM417.495 229.06C417.959 229.06 418.347 229.216 418.659 229.528C418.971 229.84 419.127 230.216 419.127 230.656C419.127 231.104 418.971 231.488 418.659 231.808C418.347 232.12 417.959 232.276 417.495 232.276C417.047 232.276 416.671 232.12 416.367 231.808C416.063 231.488 415.911 231.104 415.911 230.656C415.911 230.216 416.063 229.84 416.367 229.528C416.671 229.216 417.047 229.06 417.495 229.06Z" fill="#C4CDDB"/>
<path d="M530 91.5C530 116.366 516.068 138.967 493.363 155.39C470.659 171.812 439.245 182 404.5 182C369.755 182 338.341 171.812 315.637 155.39C292.932 138.967 279 116.366 279 91.5C279 66.6341 292.932 44.0328 315.637 27.61C338.341 11.1881 369.755 1 404.5 1C439.245 1 470.659 11.1881 493.363 27.61C516.068 44.0328 530 66.6341 530 91.5Z" fill="#B1D6FF" fill-opacity="0.5" stroke="#3077C6" stroke-width="2"/>
<path d="M259 91.5C259 93.433 257.433 95 255.5 95C253.567 95 252 93.433 252 91.5C252 89.567 253.567 88 255.5 88C257.433 88 259 89.567 259 91.5Z" fill="#B1D6FF" fill-opacity="0.5" stroke="#3077C6" stroke-width="2"/>
<path d="M370.412 100V87.364H372.128L372.284 89.116C372.796 88.468 373.436 87.972 374.204 87.628C374.98 87.276 375.732 87.1 376.46 87.1C377.7 87.1 378.6 87.428 379.16 88.084C379.728 88.74 380.012 89.652 380.012 90.82V100H377.996V92.308C377.996 91.444 377.948 90.748 377.852 90.22C377.756 89.684 377.556 89.296 377.252 89.056C376.948 88.808 376.476 88.684 375.836 88.684C375.34 88.684 374.872 88.792 374.432 89.008C374 89.224 373.612 89.496 373.268 89.824C372.932 90.144 372.652 90.468 372.428 90.796V100H370.412ZM386.819 87.364V96.316C386.819 97.148 386.991 97.748 387.335 98.116C387.679 98.484 388.215 98.668 388.943 98.668C389.639 98.668 390.295 98.472 390.911 98.08C391.535 97.68 392.019 97.208 392.363 96.664V87.364H394.379V100H392.663L392.495 98.296C391.999 98.936 391.387 99.428 390.659 99.772C389.931 100.108 389.195 100.276 388.451 100.276C387.227 100.276 386.311 99.952 385.703 99.304C385.103 98.648 384.803 97.732 384.803 96.556V87.364H386.819ZM407.521 87.1C407.929 87.1 408.317 87.188 408.685 87.364C409.061 87.54 409.369 87.88 409.609 88.384C409.849 88.888 409.969 89.624 409.969 90.592V100H408.097V90.916C408.097 90.124 408.049 89.552 407.953 89.2C407.857 88.848 407.581 88.672 407.125 88.672C406.749 88.672 406.373 88.792 405.997 89.032C405.629 89.264 405.269 89.648 404.917 90.184V100H403.033V90.916C403.033 90.124 402.985 89.552 402.889 89.2C402.793 88.848 402.517 88.672 402.061 88.672C401.669 88.672 401.289 88.792 400.921 89.032C400.561 89.264 400.205 89.648 399.853 90.184V100H397.993V87.364H399.577L399.697 88.828C400.041 88.34 400.425 87.932 400.849 87.604C401.281 87.268 401.813 87.1 402.445 87.1C402.925 87.1 403.377 87.216 403.801 87.448C404.225 87.672 404.537 88.112 404.737 88.768C405.081 88.272 405.469 87.872 405.901 87.568C406.333 87.256 406.873 87.1 407.521 87.1ZM415.6 89.008C416.064 88.4 416.596 87.932 417.196 87.604C417.804 87.268 418.472 87.1 419.2 87.1C420.328 87.1 421.24 87.372 421.936 87.916C422.632 88.46 423.14 89.228 423.46 90.22C423.78 91.204 423.94 92.356 423.94 93.676C423.94 94.948 423.748 96.084 423.364 97.084C422.98 98.076 422.416 98.856 421.672 99.424C420.936 99.992 420.024 100.276 418.936 100.276C417.472 100.276 416.324 99.748 415.492 98.692L415.348 100H413.584V82.276L415.6 82.024V89.008ZM418.456 98.644C419.512 98.644 420.324 98.236 420.892 97.42C421.46 96.604 421.744 95.352 421.744 93.664C421.744 92.56 421.632 91.644 421.408 90.916C421.184 90.18 420.848 89.632 420.4 89.272C419.96 88.904 419.416 88.72 418.768 88.72C418.064 88.72 417.444 88.932 416.908 89.356C416.38 89.772 415.944 90.236 415.6 90.748V97.012C415.928 97.508 416.34 97.904 416.836 98.2C417.34 98.496 417.88 98.644 418.456 98.644ZM429.559 94.396C429.599 95.372 429.787 96.172 430.123 96.796C430.459 97.412 430.903 97.868 431.455 98.164C432.007 98.452 432.607 98.596 433.255 98.596C433.903 98.596 434.487 98.5 435.007 98.308C435.535 98.116 436.075 97.832 436.627 97.456L437.575 98.788C436.983 99.252 436.307 99.616 435.547 99.88C434.795 100.144 434.023 100.276 433.231 100.276C432.007 100.276 430.963 100 430.099 99.448C429.235 98.896 428.575 98.128 428.119 97.144C427.671 96.152 427.447 95.004 427.447 93.7C427.447 92.42 427.675 91.284 428.131 90.292C428.587 89.3 429.227 88.52 430.051 87.952C430.875 87.384 431.847 87.1 432.967 87.1C434.031 87.1 434.947 87.352 435.715 87.856C436.483 88.352 437.071 89.064 437.479 89.992C437.895 90.912 438.103 92.012 438.103 93.292C438.103 93.508 438.099 93.712 438.091 93.904C438.083 94.088 438.071 94.252 438.055 94.396H429.559ZM432.991 88.756C432.055 88.756 431.271 89.088 430.639 89.752C430.015 90.416 429.659 91.444 429.571 92.836H436.159C436.135 91.484 435.839 90.468 435.271 89.788C434.703 89.1 433.943 88.756 432.991 88.756ZM442.485 100V98.452H444.453V88.912H442.485V87.364H445.989L446.361 90.352C446.849 89.312 447.441 88.508 448.137 87.94C448.833 87.372 449.753 87.088 450.897 87.088C451.249 87.088 451.561 87.116 451.833 87.172C452.113 87.22 452.397 87.284 452.685 87.364L452.097 89.164C451.833 89.092 451.593 89.04 451.377 89.008C451.161 88.968 450.913 88.948 450.633 88.948C449.665 88.948 448.833 89.292 448.137 89.98C447.441 90.668 446.885 91.708 446.469 93.1V98.452H449.037V100H442.485ZM450.741 91.636V88.888L450.945 87.364H452.685L452.397 91.636H450.741Z" fill="black"/>
<path d="M259.509 105.589C258.73 105.308 257.87 105.712 257.589 106.491L253.009 119.19C252.728 119.97 253.132 120.829 253.911 121.11C254.69 121.391 255.55 120.987 255.831 120.208L259.902 108.92L271.19 112.991C271.97 113.272 272.829 112.868 273.11 112.089C273.391 111.31 272.987 110.45 272.208 110.169L259.509 105.589ZM301.002 192.862L260.358 106.362L257.642 107.638L298.286 194.138L301.002 192.862Z" fill="#C4CDDB"/>
</svg>
