<svg width="812" height="685" viewBox="0 0 812 685" fill="none" xmlns="http://www.w3.org/2000/svg">
<path d="M811 342.5C811 530.953 629.841 684 406 684C182.159 684 1 530.953 1 342.5C1 154.047 182.159 1 406 1C629.841 1 811 154.047 811 342.5Z" fill="#B1D6FF" fill-opacity="0.5" stroke="#3077C6" stroke-width="2"/>
<path d="M553 266C553 306.922 524.795 344.151 478.805 371.204C432.838 398.244 369.27 415 299 415C228.73 415 165.162 398.244 119.195 371.204C73.2046 344.151 45 306.922 45 266C45 225.078 73.2046 187.849 119.195 160.796C165.162 133.756 228.73 117 299 117C369.27 117 432.838 133.756 478.805 160.796C524.795 187.849 553 225.078 553 266Z" fill="#B1D6FF" fill-opacity="0.5" stroke="#3077C6" stroke-width="2"/>
<path d="M538 566.5C538 582.877 524.096 597.998 500.932 609.085C477.84 620.137 445.869 627 410.5 627C375.131 627 343.16 620.137 320.068 609.085C296.904 597.998 283 582.877 283 566.5C283 550.123 296.904 535.002 320.068 523.915C343.16 512.863 375.131 506 410.5 506C445.869 506 477.84 512.863 500.932 523.915C524.096 535.002 538 550.123 538 566.5Z" fill="#B1D6FF" fill-opacity="0.5" stroke="#3077C6" stroke-width="2"/>
<path d="M776 281.5C776 296.3 765.234 309.907 747.37 319.871C729.539 329.817 704.838 336 677.5 336C650.162 336 625.461 329.817 607.63 319.871C589.766 309.907 579 296.3 579 281.5C579 266.7 589.766 253.093 607.63 243.129C625.461 233.183 650.162 227 677.5 227C704.838 227 729.539 233.183 747.37 243.129C765.234 253.093 776 266.7 776 281.5Z" fill="#B1D6FF" fill-opacity="0.5" stroke="#3077C6" stroke-width="2"/>
<path d="M263 510.5C263 524.211 253.333 536.816 237.287 546.049C221.268 555.267 199.072 561 174.5 561C149.928 561 127.732 555.267 111.713 546.049C95.6667 536.816 86 524.211 86 510.5C86 496.789 95.6667 484.184 111.713 474.951C127.732 465.733 149.928 460 174.5 460C199.072 460 221.268 465.733 237.287 474.951C253.333 484.184 263 496.789 263 510.5Z" fill="#B1D6FF" fill-opacity="0.5" stroke="#3077C6" stroke-width="2"/>
<path d="M469 296.5C469 304.149 464.457 311.587 455.895 318.492C447.342 325.39 434.904 331.646 419.446 336.919C388.54 347.462 345.779 354 298.5 354C251.221 354 208.46 347.462 177.554 336.919C162.096 331.646 149.658 325.39 141.105 318.492C132.543 311.587 128 304.149 128 296.5C128 288.851 132.543 281.413 141.105 274.508C149.658 267.61 162.096 261.354 177.554 256.081C208.46 245.538 251.221 239 298.5 239C345.779 239 388.54 245.538 419.446 256.081C434.904 261.354 447.342 267.61 455.895 274.508C464.457 281.413 469 288.851 469 296.5Z" fill="#B1D6FF" fill-opacity="0.5" stroke="#3077C6" stroke-width="2"/>
<path d="M219.252 291.788C219.252 292.284 219.072 292.7 218.712 293.036C218.36 293.372 217.932 293.54 217.428 293.54C216.916 293.54 216.488 293.372 216.144 293.036C215.8 292.7 215.628 292.284 215.628 291.788C215.628 291.588 215.652 291.372 215.7 291.14C215.748 290.9 215.864 290.588 216.048 290.204L217.992 286.064H219.588L218.604 290.468C218.804 290.604 218.96 290.792 219.072 291.032C219.192 291.264 219.252 291.516 219.252 291.788ZM224.436 291.788C224.436 292.284 224.252 292.7 223.884 293.036C223.524 293.372 223.1 293.54 222.612 293.54C222.116 293.54 221.692 293.372 221.34 293.036C220.988 292.7 220.812 292.284 220.812 291.788C220.812 291.588 220.836 291.372 220.884 291.14C220.932 290.9 221.048 290.588 221.232 290.204L223.212 286.064H224.772L223.8 290.468C223.992 290.604 224.144 290.792 224.256 291.032C224.376 291.264 224.436 291.516 224.436 291.788ZM237.711 305V297.164H231.471V305H229.395V288.476H231.471V295.46H237.711V288.476H239.787V305H237.711ZM250.589 292.364V303.404H254.153V305H244.673V303.404H248.573V293.96H244.793V292.364H250.589ZM248.981 286.448C249.429 286.448 249.785 286.584 250.049 286.856C250.321 287.128 250.457 287.46 250.457 287.852C250.457 288.26 250.321 288.604 250.049 288.884C249.785 289.156 249.429 289.292 248.981 289.292C248.557 289.292 248.209 289.156 247.937 288.884C247.665 288.604 247.529 288.26 247.529 287.852C247.529 287.46 247.665 287.128 247.937 286.856C248.209 286.584 248.557 286.448 248.981 286.448ZM259.112 287.852C259.112 287.356 259.292 286.94 259.652 286.604C260.02 286.26 260.448 286.088 260.936 286.088C261.432 286.088 261.86 286.26 262.22 286.604C262.58 286.94 262.76 287.356 262.76 287.852C262.76 288.068 262.728 288.288 262.664 288.512C262.6 288.728 262.472 289.032 262.28 289.424L260.336 293.564H258.776L259.724 289.16C259.54 289.016 259.392 288.828 259.28 288.596C259.168 288.364 259.112 288.116 259.112 287.852ZM264.296 287.852C264.296 287.356 264.476 286.94 264.836 286.604C265.204 286.26 265.632 286.088 266.12 286.088C266.624 286.088 267.052 286.26 267.404 286.604C267.764 286.94 267.944 287.356 267.944 287.852C267.944 288.068 267.916 288.288 267.86 288.512C267.804 288.728 267.684 289.032 267.5 289.424L265.532 293.564H263.96L264.932 289.16C264.74 289.016 264.584 288.828 264.464 288.596C264.352 288.364 264.296 288.116 264.296 287.852ZM293.053 283.4V312.2H291.253V283.4H293.053ZM319.986 291.788C319.986 292.284 319.806 292.7 319.446 293.036C319.094 293.372 318.666 293.54 318.162 293.54C317.65 293.54 317.222 293.372 316.878 293.036C316.534 292.7 316.362 292.284 316.362 291.788C316.362 291.588 316.386 291.372 316.434 291.14C316.482 290.9 316.598 290.588 316.782 290.204L318.726 286.064H320.322L319.338 290.468C319.538 290.604 319.694 290.792 319.806 291.032C319.926 291.264 319.986 291.516 319.986 291.788ZM325.17 291.788C325.17 292.284 324.986 292.7 324.618 293.036C324.258 293.372 323.834 293.54 323.346 293.54C322.85 293.54 322.426 293.372 322.074 293.036C321.722 292.7 321.546 292.284 321.546 291.788C321.546 291.588 321.57 291.372 321.618 291.14C321.666 290.9 321.782 290.588 321.966 290.204L323.946 286.064H325.506L324.534 290.468C324.726 290.604 324.878 290.792 324.99 291.032C325.11 291.264 325.17 291.516 325.17 291.788ZM338.445 305V297.164H332.205V305H330.129V288.476H332.205V295.46H338.445V288.476H340.521V305H338.445ZM346.512 299.396C346.552 300.372 346.74 301.172 347.076 301.796C347.412 302.412 347.856 302.868 348.408 303.164C348.96 303.452 349.56 303.596 350.208 303.596C350.856 303.596 351.44 303.5 351.96 303.308C352.488 303.116 353.028 302.832 353.58 302.456L354.528 303.788C353.936 304.252 353.26 304.616 352.5 304.88C351.748 305.144 350.976 305.276 350.184 305.276C348.96 305.276 347.916 305 347.052 304.448C346.188 303.896 345.528 303.128 345.072 302.144C344.624 301.152 344.4 300.004 344.4 298.7C344.4 297.42 344.628 296.284 345.084 295.292C345.54 294.3 346.18 293.52 347.004 292.952C347.828 292.384 348.8 292.1 349.92 292.1C350.984 292.1 351.9 292.352 352.668 292.856C353.436 293.352 354.024 294.064 354.432 294.992C354.848 295.912 355.056 297.012 355.056 298.292C355.056 298.508 355.052 298.712 355.044 298.904C355.036 299.088 355.024 299.252 355.008 299.396H346.512ZM349.944 293.756C349.008 293.756 348.224 294.088 347.592 294.752C346.968 295.416 346.612 296.444 346.524 297.836H353.112C353.088 296.484 352.792 295.468 352.224 294.788C351.656 294.1 350.896 293.756 349.944 293.756ZM364.238 287.276V301.88C364.238 302.504 364.43 302.948 364.814 303.212C365.206 303.468 365.71 303.596 366.326 303.596C366.71 303.596 367.074 303.556 367.418 303.476C367.762 303.396 368.106 303.288 368.45 303.152L368.99 304.628C368.646 304.796 368.218 304.944 367.706 305.072C367.202 305.208 366.63 305.276 365.99 305.276C364.87 305.276 363.962 304.968 363.266 304.352C362.57 303.728 362.222 302.868 362.222 301.772V288.872H358.346V287.276H364.238ZM378.629 287.276V301.88C378.629 302.504 378.821 302.948 379.205 303.212C379.597 303.468 380.101 303.596 380.717 303.596C381.101 303.596 381.465 303.556 381.809 303.476C382.153 303.396 382.497 303.288 382.841 303.152L383.381 304.628C383.037 304.796 382.609 304.944 382.097 305.072C381.593 305.208 381.021 305.276 380.381 305.276C379.261 305.276 378.353 304.968 377.657 304.352C376.961 303.728 376.613 302.868 376.613 301.772V288.872H372.737V287.276H378.629ZM392.912 292.1C394.104 292.1 395.1 292.372 395.9 292.916C396.708 293.452 397.312 294.212 397.712 295.196C398.12 296.18 398.324 297.34 398.324 298.676C398.324 299.964 398.116 301.104 397.7 302.096C397.284 303.088 396.672 303.868 395.864 304.436C395.064 304.996 394.072 305.276 392.888 305.276C391.704 305.276 390.708 305.004 389.9 304.46C389.092 303.916 388.48 303.152 388.064 302.168C387.656 301.176 387.451 300.02 387.451 298.7C387.451 297.396 387.66 296.248 388.076 295.256C388.492 294.264 389.104 293.492 389.912 292.94C390.728 292.38 391.728 292.1 392.912 292.1ZM392.912 293.744C391.824 293.744 391 294.148 390.44 294.956C389.888 295.756 389.612 297.004 389.612 298.7C389.612 300.364 389.884 301.6 390.428 302.408C390.98 303.216 391.8 303.62 392.888 303.62C393.976 303.62 394.792 303.216 395.336 302.408C395.888 301.6 396.164 300.356 396.164 298.676C396.164 296.996 395.892 295.756 395.348 294.956C394.804 294.148 393.992 293.744 392.912 293.744ZM403.018 287.852C403.018 287.356 403.198 286.94 403.558 286.604C403.926 286.26 404.354 286.088 404.842 286.088C405.338 286.088 405.766 286.26 406.126 286.604C406.486 286.94 406.666 287.356 406.666 287.852C406.666 288.068 406.634 288.288 406.57 288.512C406.506 288.728 406.378 289.032 406.186 289.424L404.242 293.564H402.682L403.63 289.16C403.446 289.016 403.298 288.828 403.186 288.596C403.074 288.364 403.018 288.116 403.018 287.852ZM408.202 287.852C408.202 287.356 408.382 286.94 408.742 286.604C409.11 286.26 409.538 286.088 410.026 286.088C410.53 286.088 410.958 286.26 411.31 286.604C411.67 286.94 411.85 287.356 411.85 287.852C411.85 288.068 411.822 288.288 411.766 288.512C411.71 288.728 411.59 289.032 411.406 289.424L409.438 293.564H407.866L408.838 289.16C408.646 289.016 408.49 288.828 408.37 288.596C408.258 288.364 408.202 288.116 408.202 287.852Z" fill="black"/>
<path d="M261.708 185.608C262.676 185.608 263.44 185.428 264 185.068C264.568 184.7 264.852 184.212 264.852 183.604C264.852 183.22 264.78 182.888 264.636 182.608C264.5 182.328 264.216 182.076 263.784 181.852C263.352 181.628 262.688 181.404 261.792 181.18C260.92 180.964 260.16 180.716 259.512 180.436C258.872 180.148 258.372 179.776 258.012 179.32C257.66 178.864 257.484 178.272 257.484 177.544C257.484 176.832 257.684 176.22 258.084 175.708C258.492 175.188 259.056 174.792 259.776 174.52C260.496 174.24 261.332 174.1 262.284 174.1C263.3 174.1 264.184 174.236 264.936 174.508C265.696 174.772 266.34 175.1 266.868 175.492L265.98 176.86C265.5 176.532 264.972 176.264 264.396 176.056C263.82 175.84 263.124 175.732 262.308 175.732C261.316 175.732 260.612 175.888 260.196 176.2C259.78 176.504 259.572 176.9 259.572 177.388C259.572 177.756 259.672 178.064 259.872 178.312C260.08 178.552 260.428 178.772 260.916 178.972C261.404 179.164 262.076 179.376 262.932 179.608C263.756 179.824 264.472 180.084 265.08 180.388C265.696 180.692 266.176 181.092 266.52 181.588C266.864 182.084 267.036 182.724 267.036 183.508C267.036 184.404 266.78 185.132 266.268 185.692C265.756 186.244 265.092 186.648 264.276 186.904C263.468 187.152 262.612 187.276 261.708 187.276C260.564 187.276 259.588 187.112 258.78 186.784C257.98 186.448 257.308 186.044 256.764 185.572L257.916 184.24C258.412 184.648 258.98 184.98 259.62 185.236C260.268 185.484 260.964 185.608 261.708 185.608ZM281.835 186.364C281.403 186.652 280.879 186.876 280.263 187.036C279.647 187.196 279.043 187.276 278.451 187.276C277.091 187.276 276.043 186.92 275.307 186.208C274.571 185.496 274.203 184.58 274.203 183.46V175.924H271.299V174.364H274.203V171.496L276.219 171.256V174.364H280.587L280.347 175.924H276.219V183.436C276.219 184.14 276.403 184.676 276.771 185.044C277.147 185.412 277.767 185.596 278.631 185.596C279.103 185.596 279.539 185.54 279.939 185.428C280.339 185.316 280.711 185.172 281.055 184.996L281.835 186.364ZM286.313 187V185.452H288.281V175.912H286.313V174.364H289.817L290.189 177.352C290.677 176.312 291.269 175.508 291.965 174.94C292.661 174.372 293.581 174.088 294.725 174.088C295.077 174.088 295.389 174.116 295.661 174.172C295.941 174.22 296.225 174.284 296.513 174.364L295.925 176.164C295.661 176.092 295.421 176.04 295.205 176.008C294.989 175.968 294.741 175.948 294.461 175.948C293.493 175.948 292.661 176.292 291.965 176.98C291.269 177.668 290.713 178.708 290.297 180.1V185.452H292.865V187H286.313ZM294.569 178.636V175.888L294.773 174.364H296.513L296.225 178.636H294.569ZM306.98 174.364V185.404H310.544V187H301.064V185.404H304.964V175.96H301.184V174.364H306.98ZM305.372 168.448C305.82 168.448 306.176 168.584 306.44 168.856C306.712 169.128 306.848 169.46 306.848 169.852C306.848 170.26 306.712 170.604 306.44 170.884C306.176 171.156 305.82 171.292 305.372 171.292C304.948 171.292 304.6 171.156 304.328 170.884C304.056 170.604 303.92 170.26 303.92 169.852C303.92 169.46 304.056 169.128 304.328 168.856C304.6 168.584 304.948 168.448 305.372 168.448ZM314.975 187V174.364H316.691L316.847 176.116C317.359 175.468 317.999 174.972 318.767 174.628C319.543 174.276 320.295 174.1 321.023 174.1C322.263 174.1 323.163 174.428 323.723 175.084C324.291 175.74 324.575 176.652 324.575 177.82V187H322.559V179.308C322.559 178.444 322.511 177.748 322.415 177.22C322.319 176.684 322.119 176.296 321.815 176.056C321.511 175.808 321.039 175.684 320.399 175.684C319.903 175.684 319.435 175.792 318.995 176.008C318.563 176.224 318.175 176.496 317.831 176.824C317.495 177.144 317.215 177.468 316.991 177.796V187H314.975ZM339.637 173.02L340.261 174.916C339.725 175.084 339.153 175.188 338.545 175.228C337.937 175.268 337.277 175.288 336.565 175.288C337.293 175.624 337.841 176.06 338.209 176.596C338.577 177.124 338.761 177.748 338.761 178.468C338.761 179.3 338.573 180.04 338.197 180.688C337.821 181.336 337.277 181.844 336.565 182.212C335.861 182.58 335.009 182.764 334.009 182.764C333.585 182.764 333.229 182.744 332.941 182.704C332.661 182.664 332.389 182.604 332.125 182.524C331.933 182.652 331.773 182.828 331.645 183.052C331.525 183.276 331.465 183.508 331.465 183.748C331.465 184.052 331.585 184.304 331.825 184.504C332.065 184.704 332.509 184.804 333.157 184.804H335.437C336.285 184.804 337.045 184.956 337.717 185.26C338.397 185.564 338.929 185.972 339.313 186.484C339.705 186.996 339.901 187.58 339.901 188.236C339.901 189.476 339.373 190.428 338.317 191.092C337.269 191.756 335.785 192.088 333.865 192.088C332.521 192.088 331.461 191.948 330.685 191.668C329.909 191.396 329.353 190.976 329.017 190.408C328.689 189.848 328.525 189.14 328.525 188.284H330.349C330.349 188.772 330.445 189.176 330.637 189.496C330.829 189.816 331.177 190.052 331.681 190.204C332.185 190.364 332.909 190.444 333.853 190.444C334.781 190.444 335.537 190.364 336.121 190.204C336.713 190.052 337.149 189.82 337.429 189.508C337.717 189.204 337.861 188.824 337.861 188.368C337.861 187.768 337.589 187.316 337.045 187.012C336.501 186.708 335.821 186.556 335.005 186.556H332.749C331.661 186.556 330.857 186.316 330.337 185.836C329.825 185.356 329.569 184.804 329.569 184.18C329.569 183.772 329.685 183.376 329.917 182.992C330.157 182.608 330.505 182.268 330.961 181.972C330.233 181.588 329.697 181.112 329.353 180.544C329.009 179.976 328.837 179.288 328.837 178.48C328.837 177.624 329.049 176.868 329.473 176.212C329.897 175.548 330.489 175.028 331.249 174.652C332.009 174.276 332.885 174.088 333.877 174.088C334.941 174.08 335.805 174.036 336.469 173.956C337.133 173.868 337.701 173.744 338.173 173.584C338.653 173.424 339.141 173.236 339.637 173.02ZM333.877 175.564C332.861 175.564 332.109 175.84 331.621 176.392C331.141 176.936 330.901 177.632 330.901 178.48C330.901 179.336 331.149 180.04 331.645 180.592C332.141 181.144 332.901 181.42 333.925 181.42C334.821 181.42 335.501 181.16 335.965 180.64C336.437 180.12 336.673 179.396 336.673 178.468C336.673 177.516 336.437 176.796 335.965 176.308C335.501 175.812 334.805 175.564 333.877 175.564Z" fill="black"/>
<path d="M370.412 575V562.364H372.128L372.284 564.116C372.796 563.468 373.436 562.972 374.204 562.628C374.98 562.276 375.732 562.1 376.46 562.1C377.7 562.1 378.6 562.428 379.16 563.084C379.728 563.74 380.012 564.652 380.012 565.82V575H377.996V567.308C377.996 566.444 377.948 565.748 377.852 565.22C377.756 564.684 377.556 564.296 377.252 564.056C376.948 563.808 376.476 563.684 375.836 563.684C375.34 563.684 374.872 563.792 374.432 564.008C374 564.224 373.612 564.496 373.268 564.824C372.932 565.144 372.652 565.468 372.428 565.796V575H370.412ZM386.819 562.364V571.316C386.819 572.148 386.991 572.748 387.335 573.116C387.679 573.484 388.215 573.668 388.943 573.668C389.639 573.668 390.295 573.472 390.911 573.08C391.535 572.68 392.019 572.208 392.363 571.664V562.364H394.379V575H392.663L392.495 573.296C391.999 573.936 391.387 574.428 390.659 574.772C389.931 575.108 389.195 575.276 388.451 575.276C387.227 575.276 386.311 574.952 385.703 574.304C385.103 573.648 384.803 572.732 384.803 571.556V562.364H386.819ZM407.521 562.1C407.929 562.1 408.317 562.188 408.685 562.364C409.061 562.54 409.369 562.88 409.609 563.384C409.849 563.888 409.969 564.624 409.969 565.592V575H408.097V565.916C408.097 565.124 408.049 564.552 407.953 564.2C407.857 563.848 407.581 563.672 407.125 563.672C406.749 563.672 406.373 563.792 405.997 564.032C405.629 564.264 405.269 564.648 404.917 565.184V575H403.033V565.916C403.033 565.124 402.985 564.552 402.889 564.2C402.793 563.848 402.517 563.672 402.061 563.672C401.669 563.672 401.289 563.792 400.921 564.032C400.561 564.264 400.205 564.648 399.853 565.184V575H397.993V562.364H399.577L399.697 563.828C400.041 563.34 400.425 562.932 400.849 562.604C401.281 562.268 401.813 562.1 402.445 562.1C402.925 562.1 403.377 562.216 403.801 562.448C404.225 562.672 404.537 563.112 404.737 563.768C405.081 563.272 405.469 562.872 405.901 562.568C406.333 562.256 406.873 562.1 407.521 562.1ZM415.6 564.008C416.064 563.4 416.596 562.932 417.196 562.604C417.804 562.268 418.472 562.1 419.2 562.1C420.328 562.1 421.24 562.372 421.936 562.916C422.632 563.46 423.14 564.228 423.46 565.22C423.78 566.204 423.94 567.356 423.94 568.676C423.94 569.948 423.748 571.084 423.364 572.084C422.98 573.076 422.416 573.856 421.672 574.424C420.936 574.992 420.024 575.276 418.936 575.276C417.472 575.276 416.324 574.748 415.492 573.692L415.348 575H413.584V557.276L415.6 557.024V564.008ZM418.456 573.644C419.512 573.644 420.324 573.236 420.892 572.42C421.46 571.604 421.744 570.352 421.744 568.664C421.744 567.56 421.632 566.644 421.408 565.916C421.184 565.18 420.848 564.632 420.4 564.272C419.96 563.904 419.416 563.72 418.768 563.72C418.064 563.72 417.444 563.932 416.908 564.356C416.38 564.772 415.944 565.236 415.6 565.748V572.012C415.928 572.508 416.34 572.904 416.836 573.2C417.34 573.496 417.88 573.644 418.456 573.644ZM429.559 569.396C429.599 570.372 429.787 571.172 430.123 571.796C430.459 572.412 430.903 572.868 431.455 573.164C432.007 573.452 432.607 573.596 433.255 573.596C433.903 573.596 434.487 573.5 435.007 573.308C435.535 573.116 436.075 572.832 436.627 572.456L437.575 573.788C436.983 574.252 436.307 574.616 435.547 574.88C434.795 575.144 434.023 575.276 433.231 575.276C432.007 575.276 430.963 575 430.099 574.448C429.235 573.896 428.575 573.128 428.119 572.144C427.671 571.152 427.447 570.004 427.447 568.7C427.447 567.42 427.675 566.284 428.131 565.292C428.587 564.3 429.227 563.52 430.051 562.952C430.875 562.384 431.847 562.1 432.967 562.1C434.031 562.1 434.947 562.352 435.715 562.856C436.483 563.352 437.071 564.064 437.479 564.992C437.895 565.912 438.103 567.012 438.103 568.292C438.103 568.508 438.099 568.712 438.091 568.904C438.083 569.088 438.071 569.252 438.055 569.396H429.559ZM432.991 563.756C432.055 563.756 431.271 564.088 430.639 564.752C430.015 565.416 429.659 566.444 429.571 567.836H436.159C436.135 566.484 435.839 565.468 435.271 564.788C434.703 564.1 433.943 563.756 432.991 563.756ZM442.485 575V573.452H444.453V563.912H442.485V562.364H445.989L446.361 565.352C446.849 564.312 447.441 563.508 448.137 562.94C448.833 562.372 449.753 562.088 450.897 562.088C451.249 562.088 451.561 562.116 451.833 562.172C452.113 562.22 452.397 562.284 452.685 562.364L452.097 564.164C451.833 564.092 451.593 564.04 451.377 564.008C451.161 563.968 450.913 563.948 450.633 563.948C449.665 563.948 448.833 564.292 448.137 564.98C447.441 565.668 446.885 566.708 446.469 568.1V573.452H449.037V575H442.485ZM450.741 566.636V563.888L450.945 562.364H452.685L452.397 566.636H450.741Z" fill="black"/>
<path d="M171.481 514.152C171.481 513.76 171.573 513.408 171.757 513.096C171.941 512.776 172.193 512.524 172.513 512.34C172.825 512.148 173.181 512.052 173.581 512.052C173.989 512.052 174.353 512.148 174.673 512.34C174.993 512.524 175.245 512.776 175.429 513.096C175.613 513.408 175.705 513.76 175.705 514.152C175.705 514.544 175.613 514.904 175.429 515.232C175.245 515.552 174.993 515.808 174.673 516C174.353 516.184 173.989 516.276 173.581 516.276C173.181 516.276 172.825 516.184 172.513 516C172.193 515.808 171.941 515.552 171.757 515.232C171.573 514.904 171.481 514.544 171.481 514.152ZM181.081 514.152C181.081 513.76 181.173 513.408 181.357 513.096C181.541 512.776 181.789 512.524 182.101 512.34C182.421 512.148 182.781 512.052 183.181 512.052C183.589 512.052 183.953 512.148 184.273 512.34C184.593 512.524 184.845 512.776 185.029 513.096C185.213 513.408 185.305 513.76 185.305 514.152C185.305 514.544 185.213 514.904 185.029 515.232C184.845 515.552 184.593 515.808 184.273 516C183.953 516.184 183.589 516.276 183.181 516.276C182.781 516.276 182.421 516.184 182.101 516C181.789 515.808 181.541 515.552 181.357 515.232C181.173 514.904 181.081 514.544 181.081 514.152ZM161.881 514.152C161.881 513.76 161.973 513.408 162.157 513.096C162.341 512.776 162.593 512.524 162.913 512.34C163.225 512.148 163.581 512.052 163.981 512.052C164.389 512.052 164.753 512.148 165.073 512.34C165.393 512.524 165.645 512.776 165.829 513.096C166.013 513.408 166.105 513.76 166.105 514.152C166.105 514.544 166.013 514.904 165.829 515.232C165.645 515.552 165.393 515.808 165.073 516C164.753 516.184 164.389 516.276 163.981 516.276C163.581 516.276 163.225 516.184 162.913 516C162.593 515.808 162.341 515.552 162.157 515.232C161.973 514.904 161.881 514.544 161.881 514.152Z" fill="black"/>
<path d="M631.428 279.008C631.892 278.4 632.424 277.932 633.024 277.604C633.632 277.268 634.3 277.1 635.028 277.1C636.156 277.1 637.068 277.372 637.764 277.916C638.46 278.46 638.968 279.228 639.288 280.22C639.608 281.204 639.768 282.356 639.768 283.676C639.768 284.948 639.576 286.084 639.192 287.084C638.808 288.076 638.244 288.856 637.5 289.424C636.764 289.992 635.852 290.276 634.764 290.276C633.3 290.276 632.152 289.748 631.32 288.692L631.176 290H629.412V272.276L631.428 272.024V279.008ZM634.284 288.644C635.34 288.644 636.152 288.236 636.72 287.42C637.288 286.604 637.572 285.352 637.572 283.664C637.572 282.56 637.46 281.644 637.236 280.916C637.012 280.18 636.676 279.632 636.228 279.272C635.788 278.904 635.244 278.72 634.596 278.72C633.892 278.72 633.272 278.932 632.736 279.356C632.208 279.772 631.772 280.236 631.428 280.748V287.012C631.756 287.508 632.168 287.904 632.664 288.2C633.168 288.496 633.708 288.644 634.284 288.644ZM648.615 277.1C649.807 277.1 650.803 277.372 651.603 277.916C652.411 278.452 653.015 279.212 653.415 280.196C653.823 281.18 654.027 282.34 654.027 283.676C654.027 284.964 653.819 286.104 653.403 287.096C652.987 288.088 652.375 288.868 651.567 289.436C650.767 289.996 649.775 290.276 648.591 290.276C647.407 290.276 646.411 290.004 645.603 289.46C644.795 288.916 644.183 288.152 643.767 287.168C643.359 286.176 643.155 285.02 643.155 283.7C643.155 282.396 643.363 281.248 643.779 280.256C644.195 279.264 644.807 278.492 645.615 277.94C646.431 277.38 647.431 277.1 648.615 277.1ZM648.615 278.744C647.527 278.744 646.703 279.148 646.143 279.956C645.591 280.756 645.315 282.004 645.315 283.7C645.315 285.364 645.587 286.6 646.131 287.408C646.683 288.216 647.503 288.62 648.591 288.62C649.679 288.62 650.495 288.216 651.039 287.408C651.591 286.6 651.867 285.356 651.867 283.676C651.867 281.996 651.595 280.756 651.051 279.956C650.507 279.148 649.695 278.744 648.615 278.744ZM663.005 277.1C664.197 277.1 665.193 277.372 665.993 277.916C666.801 278.452 667.405 279.212 667.805 280.196C668.213 281.18 668.417 282.34 668.417 283.676C668.417 284.964 668.209 286.104 667.793 287.096C667.377 288.088 666.765 288.868 665.957 289.436C665.157 289.996 664.165 290.276 662.981 290.276C661.797 290.276 660.801 290.004 659.993 289.46C659.185 288.916 658.573 288.152 658.157 287.168C657.749 286.176 657.545 285.02 657.545 283.7C657.545 282.396 657.753 281.248 658.169 280.256C658.585 279.264 659.197 278.492 660.005 277.94C660.821 277.38 661.821 277.1 663.005 277.1ZM663.005 278.744C661.917 278.744 661.093 279.148 660.533 279.956C659.981 280.756 659.705 282.004 659.705 283.7C659.705 285.364 659.977 286.6 660.521 287.408C661.073 288.216 661.893 288.62 662.981 288.62C664.069 288.62 664.885 288.216 665.429 287.408C665.981 286.6 666.257 285.356 666.257 283.676C666.257 281.996 665.985 280.756 665.441 279.956C664.897 279.148 664.085 278.744 663.005 278.744ZM677.504 272.276V286.88C677.504 287.504 677.696 287.948 678.08 288.212C678.472 288.468 678.976 288.596 679.592 288.596C679.976 288.596 680.34 288.556 680.684 288.476C681.028 288.396 681.372 288.288 681.716 288.152L682.256 289.628C681.912 289.796 681.484 289.944 680.972 290.072C680.468 290.208 679.896 290.276 679.256 290.276C678.136 290.276 677.228 289.968 676.532 289.352C675.836 288.728 675.488 287.868 675.488 286.772V273.872H671.612V272.276H677.504ZM688.559 284.396C688.599 285.372 688.787 286.172 689.123 286.796C689.459 287.412 689.903 287.868 690.455 288.164C691.007 288.452 691.607 288.596 692.255 288.596C692.903 288.596 693.487 288.5 694.007 288.308C694.535 288.116 695.075 287.832 695.627 287.456L696.575 288.788C695.983 289.252 695.307 289.616 694.547 289.88C693.795 290.144 693.023 290.276 692.231 290.276C691.007 290.276 689.963 290 689.099 289.448C688.235 288.896 687.575 288.128 687.119 287.144C686.671 286.152 686.447 285.004 686.447 283.7C686.447 282.42 686.675 281.284 687.131 280.292C687.587 279.3 688.227 278.52 689.051 277.952C689.875 277.384 690.847 277.1 691.967 277.1C693.031 277.1 693.947 277.352 694.715 277.856C695.483 278.352 696.071 279.064 696.479 279.992C696.895 280.912 697.103 282.012 697.103 283.292C697.103 283.508 697.099 283.712 697.091 283.904C697.083 284.088 697.071 284.252 697.055 284.396H688.559ZM691.991 278.756C691.055 278.756 690.271 279.088 689.639 279.752C689.015 280.416 688.659 281.444 688.571 282.836H695.159C695.135 281.484 694.839 280.468 694.271 279.788C693.703 279.1 692.943 278.756 691.991 278.756ZM710.413 287.24C710.413 287.744 710.497 288.112 710.665 288.344C710.833 288.576 711.093 288.748 711.445 288.86L710.953 290.276C710.409 290.204 709.933 290.032 709.525 289.76C709.117 289.48 708.821 289.06 708.637 288.5C708.181 289.084 707.613 289.528 706.933 289.832C706.253 290.128 705.501 290.276 704.677 290.276C703.413 290.276 702.417 289.92 701.689 289.208C700.961 288.496 700.597 287.552 700.597 286.376C700.597 285.072 701.105 284.072 702.121 283.376C703.137 282.68 704.605 282.332 706.525 282.332H708.385V281.276C708.385 280.364 708.117 279.72 707.581 279.344C707.053 278.96 706.317 278.768 705.373 278.768C704.957 278.768 704.469 278.82 703.909 278.924C703.349 279.02 702.741 279.184 702.085 279.416L701.557 277.892C702.333 277.604 703.061 277.4 703.741 277.28C704.421 277.16 705.069 277.1 705.685 277.1C707.261 277.1 708.441 277.468 709.225 278.204C710.017 278.932 710.413 279.924 710.413 281.18V287.24ZM705.193 288.74C705.817 288.74 706.413 288.584 706.981 288.272C707.549 287.952 708.017 287.512 708.385 286.952V283.7H706.561C705.169 283.7 704.185 283.94 703.609 284.42C703.041 284.9 702.757 285.544 702.757 286.352C702.757 287.136 702.957 287.732 703.357 288.14C703.765 288.54 704.377 288.74 705.193 288.74ZM715.756 290V277.364H717.472L717.628 279.116C718.14 278.468 718.78 277.972 719.548 277.628C720.324 277.276 721.076 277.1 721.804 277.1C723.044 277.1 723.944 277.428 724.504 278.084C725.072 278.74 725.356 279.652 725.356 280.82V290H723.34V282.308C723.34 281.444 723.292 280.748 723.196 280.22C723.1 279.684 722.9 279.296 722.596 279.056C722.292 278.808 721.82 278.684 721.18 278.684C720.684 278.684 720.216 278.792 719.776 279.008C719.344 279.224 718.956 279.496 718.612 279.824C718.276 280.144 717.996 280.468 717.772 280.796V290H715.756Z" fill="black"/>
<path d="M757 443.5C757 464.079 741.447 482.939 715.79 496.713C690.174 510.464 654.718 519 615.5 519C576.282 519 540.826 510.464 515.21 496.713C489.554 482.939 474 464.079 474 443.5C474 422.921 489.554 404.061 515.21 390.287C540.826 376.536 576.282 368 615.5 368C654.718 368 690.174 376.536 715.79 390.287C741.447 404.061 757 422.921 757 443.5Z" fill="#B1D6FF" fill-opacity="0.5" stroke="#3077C6" stroke-width="2"/>
<path d="M517.836 431.948V433.532C517.252 433.532 516.72 433.592 516.24 433.712C515.768 433.824 515.4 434.02 515.136 434.3C514.88 434.58 514.772 434.964 514.812 435.452L515.316 440.372C515.388 441.044 515.348 441.6 515.196 442.04C515.044 442.48 514.788 442.824 514.428 443.072C514.076 443.32 513.624 443.496 513.072 443.6C513.632 443.696 514.092 443.864 514.452 444.104C514.812 444.336 515.064 444.672 515.208 445.112C515.352 445.544 515.388 446.116 515.316 446.828L514.812 451.748C514.772 452.244 514.88 452.632 515.136 452.912C515.392 453.192 515.76 453.388 516.24 453.5C516.72 453.612 517.252 453.668 517.836 453.668V455.252C517.164 455.252 516.52 455.192 515.904 455.072C515.288 454.96 514.744 454.764 514.272 454.484C513.8 454.204 513.444 453.82 513.204 453.332C512.964 452.852 512.884 452.244 512.964 451.508L513.444 446.948C513.508 446.396 513.456 445.932 513.288 445.556C513.128 445.18 512.776 444.896 512.232 444.704C511.696 444.504 510.892 444.404 509.82 444.404V442.796C510.892 442.796 511.696 442.7 512.232 442.508C512.776 442.316 513.128 442.032 513.288 441.656C513.456 441.28 513.508 440.82 513.444 440.276L512.964 435.692C512.884 434.956 512.964 434.348 513.204 433.868C513.444 433.38 513.796 432.996 514.26 432.716C514.732 432.436 515.276 432.24 515.892 432.128C516.516 432.008 517.164 431.948 517.836 431.948ZM538.193 452V439.364H539.909L540.065 441.116C540.577 440.468 541.217 439.972 541.985 439.628C542.761 439.276 543.513 439.1 544.241 439.1C545.481 439.1 546.381 439.428 546.941 440.084C547.509 440.74 547.793 441.652 547.793 442.82V452H545.777V444.308C545.777 443.444 545.729 442.748 545.633 442.22C545.537 441.684 545.337 441.296 545.033 441.056C544.729 440.808 544.257 440.684 543.617 440.684C543.121 440.684 542.653 440.792 542.213 441.008C541.781 441.224 541.393 441.496 541.049 441.824C540.713 442.144 540.433 442.468 540.209 442.796V452H538.193ZM561.632 449.24C561.632 449.744 561.716 450.112 561.884 450.344C562.052 450.576 562.312 450.748 562.664 450.86L562.172 452.276C561.628 452.204 561.152 452.032 560.744 451.76C560.336 451.48 560.04 451.06 559.856 450.5C559.4 451.084 558.832 451.528 558.152 451.832C557.472 452.128 556.72 452.276 555.896 452.276C554.632 452.276 553.636 451.92 552.908 451.208C552.18 450.496 551.816 449.552 551.816 448.376C551.816 447.072 552.324 446.072 553.34 445.376C554.356 444.68 555.824 444.332 557.744 444.332H559.604V443.276C559.604 442.364 559.336 441.72 558.8 441.344C558.272 440.96 557.536 440.768 556.592 440.768C556.176 440.768 555.688 440.82 555.128 440.924C554.568 441.02 553.96 441.184 553.304 441.416L552.776 439.892C553.552 439.604 554.28 439.4 554.96 439.28C555.64 439.16 556.288 439.1 556.904 439.1C558.48 439.1 559.66 439.468 560.444 440.204C561.236 440.932 561.632 441.924 561.632 443.18V449.24ZM556.412 450.74C557.036 450.74 557.632 450.584 558.2 450.272C558.768 449.952 559.236 449.512 559.604 448.952V445.7H557.78C556.388 445.7 555.404 445.94 554.828 446.42C554.26 446.9 553.976 447.544 553.976 448.352C553.976 449.136 554.176 449.732 554.576 450.14C554.984 450.54 555.596 450.74 556.412 450.74ZM575.303 439.1C575.711 439.1 576.099 439.188 576.467 439.364C576.843 439.54 577.151 439.88 577.391 440.384C577.631 440.888 577.751 441.624 577.751 442.592V452H575.879V442.916C575.879 442.124 575.831 441.552 575.735 441.2C575.639 440.848 575.363 440.672 574.907 440.672C574.531 440.672 574.155 440.792 573.779 441.032C573.411 441.264 573.051 441.648 572.699 442.184V452H570.815V442.916C570.815 442.124 570.767 441.552 570.671 441.2C570.575 440.848 570.299 440.672 569.843 440.672C569.451 440.672 569.071 440.792 568.703 441.032C568.343 441.264 567.987 441.648 567.635 442.184V452H565.775V439.364H567.359L567.479 440.828C567.823 440.34 568.207 439.932 568.631 439.604C569.063 439.268 569.595 439.1 570.227 439.1C570.707 439.1 571.159 439.216 571.583 439.448C572.007 439.672 572.319 440.112 572.519 440.768C572.863 440.272 573.251 439.872 573.683 439.568C574.115 439.256 574.655 439.1 575.303 439.1ZM582.949 446.396C582.989 447.372 583.177 448.172 583.513 448.796C583.849 449.412 584.293 449.868 584.845 450.164C585.397 450.452 585.997 450.596 586.645 450.596C587.293 450.596 587.877 450.5 588.397 450.308C588.925 450.116 589.465 449.832 590.017 449.456L590.965 450.788C590.373 451.252 589.697 451.616 588.937 451.88C588.185 452.144 587.413 452.276 586.621 452.276C585.397 452.276 584.353 452 583.489 451.448C582.625 450.896 581.965 450.128 581.509 449.144C581.061 448.152 580.837 447.004 580.837 445.7C580.837 444.42 581.065 443.284 581.521 442.292C581.977 441.3 582.617 440.52 583.441 439.952C584.265 439.384 585.237 439.1 586.357 439.1C587.421 439.1 588.337 439.352 589.105 439.856C589.873 440.352 590.461 441.064 590.869 441.992C591.285 442.912 591.493 444.012 591.493 445.292C591.493 445.508 591.489 445.712 591.481 445.904C591.473 446.088 591.461 446.252 591.445 446.396H582.949ZM586.381 440.756C585.445 440.756 584.661 441.088 584.029 441.752C583.405 442.416 583.049 443.444 582.961 444.836H589.549C589.525 443.484 589.229 442.468 588.661 441.788C588.093 441.1 587.333 440.756 586.381 440.756ZM598.588 450.32C598.588 449.8 598.772 449.348 599.14 448.964C599.516 448.58 599.976 448.388 600.52 448.388C601.08 448.388 601.544 448.58 601.912 448.964C602.288 449.348 602.476 449.8 602.476 450.32C602.476 450.864 602.288 451.328 601.912 451.712C601.544 452.088 601.08 452.276 600.52 452.276C599.976 452.276 599.516 452.088 599.14 451.712C598.772 451.328 598.588 450.864 598.588 450.32ZM598.588 441.668C598.588 441.3 598.672 440.972 598.84 440.684C599.008 440.396 599.24 440.168 599.536 440C599.832 439.824 600.16 439.736 600.52 439.736C601.08 439.736 601.544 439.924 601.912 440.3C602.288 440.676 602.476 441.132 602.476 441.668C602.476 442.196 602.288 442.656 601.912 443.048C601.544 443.432 601.08 443.624 600.52 443.624C599.976 443.624 599.516 443.432 599.14 443.048C598.772 442.656 598.588 442.196 598.588 441.668ZM628.833 450.608C629.801 450.608 630.565 450.428 631.125 450.068C631.693 449.7 631.977 449.212 631.977 448.604C631.977 448.22 631.905 447.888 631.761 447.608C631.625 447.328 631.341 447.076 630.909 446.852C630.477 446.628 629.813 446.404 628.917 446.18C628.045 445.964 627.285 445.716 626.637 445.436C625.997 445.148 625.497 444.776 625.137 444.32C624.785 443.864 624.609 443.272 624.609 442.544C624.609 441.832 624.809 441.22 625.209 440.708C625.617 440.188 626.181 439.792 626.901 439.52C627.621 439.24 628.457 439.1 629.409 439.1C630.425 439.1 631.309 439.236 632.061 439.508C632.821 439.772 633.465 440.1 633.993 440.492L633.105 441.86C632.625 441.532 632.097 441.264 631.521 441.056C630.945 440.84 630.249 440.732 629.433 440.732C628.441 440.732 627.737 440.888 627.321 441.2C626.905 441.504 626.697 441.9 626.697 442.388C626.697 442.756 626.797 443.064 626.997 443.312C627.205 443.552 627.553 443.772 628.041 443.972C628.529 444.164 629.201 444.376 630.057 444.608C630.881 444.824 631.597 445.084 632.205 445.388C632.821 445.692 633.301 446.092 633.645 446.588C633.989 447.084 634.161 447.724 634.161 448.508C634.161 449.404 633.905 450.132 633.393 450.692C632.881 451.244 632.217 451.648 631.401 451.904C630.593 452.152 629.737 452.276 628.833 452.276C627.689 452.276 626.713 452.112 625.905 451.784C625.105 451.448 624.433 451.044 623.889 450.572L625.041 449.24C625.537 449.648 626.105 449.98 626.745 450.236C627.393 450.484 628.089 450.608 628.833 450.608ZM648.96 451.364C648.528 451.652 648.004 451.876 647.388 452.036C646.772 452.196 646.168 452.276 645.576 452.276C644.216 452.276 643.168 451.92 642.432 451.208C641.696 450.496 641.328 449.58 641.328 448.46V440.924H638.424V439.364H641.328V436.496L643.344 436.256V439.364H647.712L647.472 440.924H643.344V448.436C643.344 449.14 643.528 449.676 643.896 450.044C644.272 450.412 644.892 450.596 645.756 450.596C646.228 450.596 646.664 450.54 647.064 450.428C647.464 450.316 647.836 450.172 648.18 449.996L648.96 451.364ZM653.438 452V450.452H655.406V440.912H653.438V439.364H656.942L657.314 442.352C657.802 441.312 658.394 440.508 659.09 439.94C659.786 439.372 660.706 439.088 661.85 439.088C662.202 439.088 662.514 439.116 662.786 439.172C663.066 439.22 663.35 439.284 663.638 439.364L663.05 441.164C662.786 441.092 662.546 441.04 662.33 441.008C662.114 440.968 661.866 440.948 661.586 440.948C660.618 440.948 659.786 441.292 659.09 441.98C658.394 442.668 657.838 443.708 657.422 445.1V450.452H659.99V452H653.438ZM661.694 443.636V440.888L661.898 439.364H663.638L663.35 443.636H661.694ZM674.105 439.364V450.404H677.669V452H668.189V450.404H672.089V440.96H668.309V439.364H674.105ZM672.497 433.448C672.945 433.448 673.301 433.584 673.565 433.856C673.837 434.128 673.973 434.46 673.973 434.852C673.973 435.26 673.837 435.604 673.565 435.884C673.301 436.156 672.945 436.292 672.497 436.292C672.073 436.292 671.725 436.156 671.453 435.884C671.181 435.604 671.045 435.26 671.045 434.852C671.045 434.46 671.181 434.128 671.453 433.856C671.725 433.584 672.073 433.448 672.497 433.448ZM682.1 452V439.364H683.816L683.972 441.116C684.484 440.468 685.124 439.972 685.892 439.628C686.668 439.276 687.42 439.1 688.148 439.1C689.388 439.1 690.288 439.428 690.848 440.084C691.416 440.74 691.7 441.652 691.7 442.82V452H689.684V444.308C689.684 443.444 689.636 442.748 689.54 442.22C689.444 441.684 689.244 441.296 688.94 441.056C688.636 440.808 688.164 440.684 687.524 440.684C687.028 440.684 686.56 440.792 686.12 441.008C685.688 441.224 685.3 441.496 684.956 441.824C684.62 442.144 684.34 442.468 684.116 442.796V452H682.1ZM706.762 438.02L707.386 439.916C706.85 440.084 706.278 440.188 705.67 440.228C705.062 440.268 704.402 440.288 703.69 440.288C704.418 440.624 704.966 441.06 705.334 441.596C705.702 442.124 705.886 442.748 705.886 443.468C705.886 444.3 705.698 445.04 705.322 445.688C704.946 446.336 704.402 446.844 703.69 447.212C702.986 447.58 702.134 447.764 701.134 447.764C700.71 447.764 700.354 447.744 700.066 447.704C699.786 447.664 699.514 447.604 699.25 447.524C699.058 447.652 698.898 447.828 698.77 448.052C698.65 448.276 698.59 448.508 698.59 448.748C698.59 449.052 698.71 449.304 698.95 449.504C699.19 449.704 699.634 449.804 700.282 449.804H702.562C703.41 449.804 704.17 449.956 704.842 450.26C705.522 450.564 706.054 450.972 706.438 451.484C706.83 451.996 707.026 452.58 707.026 453.236C707.026 454.476 706.498 455.428 705.442 456.092C704.394 456.756 702.91 457.088 700.99 457.088C699.646 457.088 698.586 456.948 697.81 456.668C697.034 456.396 696.478 455.976 696.142 455.408C695.814 454.848 695.65 454.14 695.65 453.284H697.474C697.474 453.772 697.57 454.176 697.762 454.496C697.954 454.816 698.302 455.052 698.806 455.204C699.31 455.364 700.034 455.444 700.978 455.444C701.906 455.444 702.662 455.364 703.246 455.204C703.838 455.052 704.274 454.82 704.554 454.508C704.842 454.204 704.986 453.824 704.986 453.368C704.986 452.768 704.714 452.316 704.17 452.012C703.626 451.708 702.946 451.556 702.13 451.556H699.874C698.786 451.556 697.982 451.316 697.462 450.836C696.95 450.356 696.694 449.804 696.694 449.18C696.694 448.772 696.81 448.376 697.042 447.992C697.282 447.608 697.63 447.268 698.086 446.972C697.358 446.588 696.822 446.112 696.478 445.544C696.134 444.976 695.962 444.288 695.962 443.48C695.962 442.624 696.174 441.868 696.598 441.212C697.022 440.548 697.614 440.028 698.374 439.652C699.134 439.276 700.01 439.088 701.002 439.088C702.066 439.08 702.93 439.036 703.594 438.956C704.258 438.868 704.826 438.744 705.298 438.584C705.778 438.424 706.266 438.236 706.762 438.02ZM701.002 440.564C699.986 440.564 699.234 440.84 698.746 441.392C698.266 441.936 698.026 442.632 698.026 443.48C698.026 444.336 698.274 445.04 698.77 445.592C699.266 446.144 700.026 446.42 701.05 446.42C701.946 446.42 702.626 446.16 703.09 445.64C703.562 445.12 703.798 444.396 703.798 443.468C703.798 442.516 703.562 441.796 703.09 441.308C702.626 440.812 701.93 440.564 701.002 440.564ZM726.423 431.948C727.095 431.948 727.739 432.008 728.355 432.128C728.971 432.24 729.515 432.436 729.987 432.716C730.459 432.996 730.815 433.38 731.055 433.868C731.303 434.348 731.383 434.956 731.295 435.692L730.815 440.276C730.751 440.82 730.819 441.28 731.019 441.656C731.227 442.032 731.603 442.316 732.147 442.508C732.691 442.7 733.455 442.796 734.439 442.796V444.404C733.463 444.404 732.699 444.504 732.147 444.704C731.603 444.896 731.227 445.18 731.019 445.556C730.819 445.932 730.751 446.396 730.815 446.948L731.295 451.508C731.375 452.244 731.295 452.852 731.055 453.332C730.815 453.82 730.459 454.204 729.987 454.484C729.523 454.764 728.979 454.96 728.355 455.072C727.739 455.192 727.095 455.252 726.423 455.252V453.668C727.007 453.668 727.535 453.612 728.007 453.5C728.487 453.388 728.859 453.192 729.123 452.912C729.387 452.632 729.495 452.244 729.447 451.748L728.943 446.828C728.871 446.116 728.911 445.544 729.063 445.112C729.215 444.672 729.487 444.336 729.879 444.104C730.279 443.872 730.803 443.712 731.451 443.624C730.827 443.52 730.315 443.34 729.915 443.084C729.523 442.828 729.247 442.48 729.087 442.04C728.927 441.6 728.879 441.044 728.943 440.372L729.447 435.452C729.495 434.964 729.387 434.58 729.123 434.3C728.859 434.02 728.491 433.824 728.019 433.712C727.547 433.592 727.015 433.532 726.423 433.532V431.948Z" fill="black"/>
<path d="M344.904 51.152V63.088C344.904 64.1973 345.133 64.9973 345.592 65.488C346.051 65.9787 346.765 66.224 347.736 66.224C348.664 66.224 349.539 65.9627 350.36 65.44C351.192 64.9067 351.837 64.2773 352.296 63.552V51.152H354.984V68H352.696L352.472 65.728C351.811 66.5813 350.995 67.2373 350.024 67.696C349.053 68.144 348.072 68.368 347.08 68.368C345.448 68.368 344.227 67.936 343.416 67.072C342.616 66.1973 342.216 64.976 342.216 63.408V51.152H344.904ZM361.404 68V51.152H363.692L363.9 53.488C364.582 52.624 365.436 51.9627 366.46 51.504C367.494 51.0347 368.497 50.8 369.468 50.8C371.121 50.8 372.321 51.2373 373.068 52.112C373.825 52.9867 374.204 54.2027 374.204 55.76V68H371.516V57.744C371.516 56.592 371.452 55.664 371.324 54.96C371.196 54.2453 370.929 53.728 370.524 53.408C370.118 53.0773 369.489 52.912 368.636 52.912C367.974 52.912 367.35 53.056 366.764 53.344C366.188 53.632 365.67 53.9947 365.212 54.432C364.764 54.8587 364.39 55.2907 364.092 55.728V68H361.404ZM394.703 51.152L387.119 58.736L395.583 68H392.047L383.759 58.8L391.215 51.152H394.703ZM383.455 44.032V68H380.767V44.368L383.455 44.032ZM399.779 68V51.152H402.067L402.275 53.488C402.957 52.624 403.811 51.9627 404.835 51.504C405.869 51.0347 406.872 50.8 407.843 50.8C409.496 50.8 410.696 51.2373 411.443 52.112C412.2 52.9867 412.579 54.2027 412.579 55.76V68H409.891V57.744C409.891 56.592 409.827 55.664 409.699 54.96C409.571 54.2453 409.304 53.728 408.899 53.408C408.493 53.0773 407.864 52.912 407.011 52.912C406.349 52.912 405.725 53.056 405.139 53.344C404.563 53.632 404.045 53.9947 403.587 54.432C403.139 54.8587 402.765 55.2907 402.467 55.728V68H399.779ZM425.382 50.8C426.971 50.8 428.299 51.1627 429.366 51.888C430.443 52.6027 431.249 53.616 431.782 54.928C432.326 56.24 432.598 57.7867 432.598 59.568C432.598 61.2853 432.321 62.8053 431.766 64.128C431.211 65.4507 430.395 66.4907 429.318 67.248C428.251 67.9947 426.929 68.368 425.35 68.368C423.771 68.368 422.443 68.0053 421.366 67.28C420.289 66.5547 419.473 65.536 418.918 64.224C418.374 62.9013 418.102 61.36 418.102 59.6C418.102 57.8613 418.379 56.3307 418.934 55.008C419.489 53.6853 420.305 52.656 421.382 51.92C422.47 51.1733 423.803 50.8 425.382 50.8ZM425.382 52.992C423.931 52.992 422.833 53.5307 422.086 54.608C421.35 55.6747 420.982 57.3387 420.982 59.6C420.982 61.8187 421.345 63.4667 422.07 64.544C422.806 65.6213 423.899 66.16 425.35 66.16C426.801 66.16 427.889 65.6213 428.614 64.544C429.35 63.4667 429.718 61.808 429.718 59.568C429.718 57.328 429.355 55.6747 428.63 54.608C427.905 53.5307 426.822 52.992 425.382 52.992ZM450.634 68H446.826L444.65 55.632L442.282 68H438.57L435.498 51.152H438.25L440.394 66.336L443.082 53.296H446.266L448.81 66.336L450.954 51.152H453.578L450.634 68ZM457.341 68V51.152H459.629L459.837 53.488C460.52 52.624 461.373 51.9627 462.397 51.504C463.432 51.0347 464.434 50.8 465.405 50.8C467.058 50.8 468.258 51.2373 469.005 52.112C469.762 52.9867 470.141 54.2027 470.141 55.76V68H467.453V57.744C467.453 56.592 467.389 55.664 467.261 54.96C467.133 54.2453 466.866 53.728 466.461 53.408C466.056 53.0773 465.426 52.912 464.573 52.912C463.912 52.912 463.288 53.056 462.701 53.344C462.125 53.632 461.608 53.9947 461.149 54.432C460.701 54.8587 460.328 55.2907 460.029 55.728V68H457.341Z" fill="black"/>
</svg>
